<svg width="25" height="24" viewBox="0 0 25 24" fill="none" xmlns="http://www.w3.org/2000/svg">
    <g clip-path="url(#clip0_3488_129073)">
        <path opacity="0.991" fill-rule="evenodd" clip-rule="evenodd" d="M1.25415 0.0703051C6.52243 0.0471526 11.788 0.0705901 17.051 0.140618C17.2995 0.295188 17.4792 0.506125 17.5901 0.77343C17.6135 2.66399 17.6214 4.55462 17.6135 6.4453C11.926 6.4453 6.23851 6.4453 0.551025 6.4453C0.543213 4.55462 0.551026 2.66399 0.574463 0.77343C0.703589 0.440422 0.93015 0.206047 1.25415 0.0703051ZM7.95728 1.28906C8.63256 1.26803 9.30442 1.29146 9.9729 1.35937C10.0979 1.49999 10.0979 1.64062 9.9729 1.78124C9.71171 1.84456 9.44612 1.86799 9.17603 1.85156C9.18385 2.88292 9.17603 3.91417 9.15259 4.94531C9.1021 5.16163 8.96931 5.23195 8.75415 5.15624C8.68885 5.10135 8.64976 5.03104 8.63696 4.94531C8.61353 3.91417 8.6057 2.88292 8.61353 1.85156C8.34343 1.86799 8.07784 1.84456 7.81665 1.78124C7.66271 1.55414 7.70959 1.39008 7.95728 1.28906ZM10.9573 1.28906C11.6326 1.26803 12.3044 1.29146 12.9729 1.35937C13.0979 1.49999 13.0979 1.64062 12.9729 1.78124C12.7117 1.84456 12.4461 1.86799 12.176 1.85156C12.1839 2.88292 12.176 3.91417 12.1526 4.94531C12.1021 5.16163 11.9693 5.23195 11.7542 5.15624C11.6889 5.10135 11.6498 5.03104 11.637 4.94531C11.6135 3.91417 11.6057 2.88292 11.6135 1.85156C11.3434 1.86799 11.0778 1.84456 10.8167 1.78124C10.6627 1.55414 10.7096 1.39008 10.9573 1.28906ZM2.56665 1.33593C2.78246 1.28336 2.91528 1.36149 2.96509 1.57031C2.98853 2.60144 2.99633 3.63269 2.98853 4.66406C3.52 4.65625 4.05126 4.66406 4.58227 4.68749C4.7986 4.73798 4.86892 4.87077 4.79321 5.08593C4.73832 5.15123 4.668 5.19032 4.58227 5.20312C3.95728 5.23438 3.33227 5.23438 2.70728 5.20312C2.62155 5.19032 2.55123 5.15123 2.49634 5.08593C2.41956 3.91699 2.40393 2.74512 2.44946 1.57031C2.46662 1.47882 2.50569 1.40069 2.56665 1.33593ZM5.94165 1.33593C6.65785 1.23291 7.15004 1.51416 7.41821 2.17968C7.51196 2.89843 7.51196 3.61718 7.41821 4.33593C7.08343 5.12427 6.51315 5.36643 5.70727 5.06249C5.42457 4.88934 5.22929 4.64715 5.12134 4.33593C5.02759 3.61718 5.02759 2.89843 5.12134 2.17968C5.27851 1.78038 5.55193 1.49913 5.94165 1.33593ZM14.1917 1.33593C14.9079 1.23291 15.4 1.51416 15.6682 2.17968C15.762 2.89843 15.762 3.61718 15.6682 4.33593C15.3334 5.12427 14.7632 5.36643 13.9573 5.06249C13.6746 4.88934 13.4793 4.64715 13.3713 4.33593C13.2776 3.61718 13.2776 2.89843 13.3713 2.17968C13.5285 1.78038 13.8019 1.49913 14.1917 1.33593Z" fill="#656E79"/>
        <path opacity="0.971" fill-rule="evenodd" clip-rule="evenodd" d="M6.03541 1.85156C6.4444 1.7656 6.73343 1.90622 6.9026 2.27344C6.93387 2.92969 6.93387 3.58594 6.9026 4.24219C6.68154 4.66041 6.34558 4.7776 5.89479 4.59375C5.79124 4.50594 5.70532 4.40438 5.63697 4.28906C5.60571 3.60156 5.60571 2.91407 5.63697 2.22656C5.73532 2.05768 5.86816 1.93268 6.03541 1.85156Z" fill="#656E79"/>
        <path opacity="0.971" fill-rule="evenodd" clip-rule="evenodd" d="M14.2854 1.85156C14.6944 1.7656 14.9834 1.90622 15.1526 2.27344C15.1839 2.92969 15.1839 3.58594 15.1526 4.24219C14.9315 4.66041 14.5956 4.7776 14.1448 4.59375C14.0412 4.50594 13.9553 4.40438 13.887 4.28906C13.8557 3.60156 13.8557 2.91407 13.887 2.22656C13.9853 2.05768 14.1182 1.93268 14.2854 1.85156Z" fill="#656E79"/>
        <path opacity="0.998" fill-rule="evenodd" clip-rule="evenodd" d="M0.551025 7.00781C6.23851 7.00781 11.926 7.00781 17.6135 7.00781C17.6135 9.25781 17.6135 11.5078 17.6135 13.7578C17.1135 13.7578 16.6135 13.7578 16.1135 13.7578C16.1214 12.8827 16.1135 12.0077 16.0901 11.1328C16.0667 10.9844 15.9807 10.8984 15.8323 10.875C11.2828 10.8285 6.7359 10.8441 2.19165 10.9219C2.12634 10.9768 2.08728 11.0471 2.07446 11.1328C2.04321 14.8828 2.04321 18.6328 2.07446 22.3828C2.08728 22.4685 2.12634 22.5389 2.19165 22.5938C4.36082 22.6481 6.5327 22.6715 8.70728 22.6641C10.8323 22.6562 12.9573 22.6485 15.0823 22.6406C15.1466 22.6218 15.2091 22.5983 15.2698 22.5703C15.4138 22.66 15.57 22.7226 15.7385 22.7578C15.6146 23.1264 15.6146 23.4937 15.7385 23.8594C10.8609 23.9059 5.9859 23.8903 1.11353 23.8125C0.866297 23.659 0.686611 23.4481 0.574463 23.1797C0.551025 17.7891 0.543213 12.3984 0.551025 7.00781ZM5.33228 8.22656C7.83231 8.21873 10.3323 8.22656 12.8323 8.25C12.9807 8.27344 13.0667 8.35936 13.0901 8.50781C13.1329 8.93325 13.1173 9.35513 13.0432 9.77344C12.9883 9.83873 12.918 9.87783 12.8323 9.89063C10.3323 9.92189 7.83226 9.92189 5.33228 9.89063C5.24654 9.87783 5.17623 9.83873 5.12134 9.77344C5.03743 9.33005 5.02965 8.88473 5.0979 8.4375C5.14149 8.32336 5.21963 8.25305 5.33228 8.22656Z" fill="#656E79"/>
        <path fill-rule="evenodd" clip-rule="evenodd" d="M5.61353 8.78906C7.92601 8.78906 10.2385 8.78906 12.551 8.78906C12.551 8.97656 12.551 9.16406 12.551 9.35156C10.2385 9.35156 7.92601 9.35156 5.61353 9.35156C5.61353 9.16406 5.61353 8.97656 5.61353 8.78906Z" fill="#656E79"/>
        <path fill-rule="evenodd" clip-rule="evenodd" d="M2.61353 11.4141C3.17603 11.4141 3.73853 11.4141 4.30103 11.4141C4.30103 11.9766 4.30103 12.5391 4.30103 13.1016C3.73853 13.1016 3.17603 13.1016 2.61353 13.1016C2.61353 12.5391 2.61353 11.9766 2.61353 11.4141Z" fill="#656E79"/>
        <path fill-rule="evenodd" clip-rule="evenodd" d="M4.86353 11.4141C5.42603 11.4141 5.98853 11.4141 6.55103 11.4141C6.55103 11.9766 6.55103 12.5391 6.55103 13.1016C5.98853 13.1016 5.42603 13.1016 4.86353 13.1016C4.86353 12.5391 4.86353 11.9766 4.86353 11.4141Z" fill="#656E79"/>
        <path fill-rule="evenodd" clip-rule="evenodd" d="M7.11353 11.4141C7.67603 11.4141 8.23853 11.4141 8.80103 11.4141C8.80103 11.9766 8.80103 12.5391 8.80103 13.1016C8.23853 13.1016 7.67603 13.1016 7.11353 13.1016C7.11353 12.5391 7.11353 11.9766 7.11353 11.4141Z" fill="#656E79"/>
        <path fill-rule="evenodd" clip-rule="evenodd" d="M9.36353 11.4141C9.92603 11.4141 10.4885 11.4141 11.051 11.4141C11.051 11.9766 11.051 12.5391 11.051 13.1016C10.4885 13.1016 9.92603 13.1016 9.36353 13.1016C9.36353 12.5391 9.36353 11.9766 9.36353 11.4141Z" fill="#656E79"/>
        <path fill-rule="evenodd" clip-rule="evenodd" d="M11.6135 11.4141C12.176 11.4141 12.7385 11.4141 13.301 11.4141C13.301 11.9766 13.301 12.5391 13.301 13.1016C12.7385 13.1016 12.176 13.1016 11.6135 13.1016C11.6135 12.5391 11.6135 11.9766 11.6135 11.4141Z" fill="#656E79"/>
        <path fill-rule="evenodd" clip-rule="evenodd" d="M13.8635 11.4141C14.426 11.4141 14.9885 11.4141 15.551 11.4141C15.551 11.9766 15.551 12.5391 15.551 13.1016C14.9885 13.1016 14.426 13.1016 13.8635 13.1016C13.8635 12.5391 13.8635 11.9766 13.8635 11.4141Z" fill="#656E79"/>
        <path fill-rule="evenodd" clip-rule="evenodd" d="M2.61353 13.6641C3.17603 13.6641 3.73853 13.6641 4.30103 13.6641C4.30103 14.2266 4.30103 14.7891 4.30103 15.3516C3.73853 15.3516 3.17603 15.3516 2.61353 15.3516C2.61353 14.7891 2.61353 14.2266 2.61353 13.6641Z" fill="#656E79"/>
        <path fill-rule="evenodd" clip-rule="evenodd" d="M4.86353 13.6641C5.42603 13.6641 5.98853 13.6641 6.55103 13.6641C6.55103 14.2266 6.55103 14.7891 6.55103 15.3516C5.98853 15.3516 5.42603 15.3516 4.86353 15.3516C4.86353 14.7891 4.86353 14.2266 4.86353 13.6641Z" fill="#656E79"/>
        <path fill-rule="evenodd" clip-rule="evenodd" d="M7.11353 13.6641C7.67603 13.6641 8.23853 13.6641 8.80103 13.6641C8.80103 14.2266 8.80103 14.7891 8.80103 15.3516C8.23853 15.3516 7.67603 15.3516 7.11353 15.3516C7.11353 14.7891 7.11353 14.2266 7.11353 13.6641Z" fill="#656E79"/>
        <path fill-rule="evenodd" clip-rule="evenodd" d="M9.36353 13.6641C9.92603 13.6641 10.4885 13.6641 11.051 13.6641C11.051 14.2266 11.051 14.7891 11.051 15.3516C10.4885 15.3516 9.92603 15.3516 9.36353 15.3516C9.36353 14.7891 9.36353 14.2266 9.36353 13.6641Z" fill="#656E79"/>
        <path fill-rule="evenodd" clip-rule="evenodd" d="M11.6135 13.6641C12.176 13.6641 12.7385 13.6641 13.301 13.6641C13.301 14.2266 13.301 14.7891 13.301 15.3516C12.7385 15.3516 12.176 15.3516 11.6135 15.3516C11.6135 14.7891 11.6135 14.2266 11.6135 13.6641Z" fill="#656E79"/>
        <path opacity="0.979" fill-rule="evenodd" clip-rule="evenodd" d="M13.8635 13.6641C14.426 13.6641 14.9885 13.6641 15.551 13.6641C15.558 13.7134 15.5502 13.7603 15.5276 13.8047C15.0574 14.0034 14.8465 14.3628 14.8948 14.8828C14.9053 15.0401 14.9209 15.1963 14.9417 15.3516C14.5823 15.3516 14.2229 15.3516 13.8635 15.3516C13.8635 14.7891 13.8635 14.2266 13.8635 13.6641Z" fill="#656E79"/>
        <path opacity="0.995" fill-rule="evenodd" clip-rule="evenodd" d="M15.551 14.3203C17.9573 14.3125 20.3636 14.3203 22.7698 14.3438C22.7932 14.3672 22.8167 14.3906 22.8401 14.4141C22.8714 14.7266 22.8714 15.0391 22.8401 15.3516C22.8167 15.375 22.7932 15.3984 22.7698 15.4219C20.3636 15.4531 17.9573 15.4531 15.551 15.4219C15.5276 15.3984 15.5042 15.375 15.4807 15.3516C15.4495 15.0391 15.4495 14.7266 15.4807 14.4141C15.5143 14.3886 15.5378 14.3573 15.551 14.3203Z" fill="#656E79"/>
        <path opacity="0.976" fill-rule="evenodd" clip-rule="evenodd" d="M15.2229 15.8203C15.3855 15.9006 15.5574 15.9631 15.7385 16.0078C15.6135 16.3828 15.6135 16.7578 15.7385 17.1328C15.4363 17.1778 15.2019 17.3262 15.0354 17.5781C14.6451 17.6016 14.2545 17.6093 13.8635 17.6016C13.8635 17.0391 13.8635 16.4766 13.8635 15.9141C14.2701 15.9218 14.6763 15.9141 15.0823 15.8906C15.1403 15.8797 15.1871 15.8563 15.2229 15.8203Z" fill="#656E79"/>
        <path fill-rule="evenodd" clip-rule="evenodd" d="M2.61353 15.9141C3.17603 15.9141 3.73853 15.9141 4.30103 15.9141C4.30103 16.4766 4.30103 17.0391 4.30103 17.6016C3.73853 17.6016 3.17603 17.6016 2.61353 17.6016C2.61353 17.0391 2.61353 16.4766 2.61353 15.9141Z" fill="#656E79"/>
        <path fill-rule="evenodd" clip-rule="evenodd" d="M4.86353 15.9141C5.42603 15.9141 5.98853 15.9141 6.55103 15.9141C6.55103 16.4766 6.55103 17.0391 6.55103 17.6016C5.98853 17.6016 5.42603 17.6016 4.86353 17.6016C4.86353 17.0391 4.86353 16.4766 4.86353 15.9141Z" fill="#656E79"/>
        <path fill-rule="evenodd" clip-rule="evenodd" d="M7.11353 15.9141C7.67603 15.9141 8.23853 15.9141 8.80103 15.9141C8.80103 16.4766 8.80103 17.0391 8.80103 17.6016C8.23853 17.6016 7.67603 17.6016 7.11353 17.6016C7.11353 17.0391 7.11353 16.4766 7.11353 15.9141Z" fill="#656E79"/>
        <path fill-rule="evenodd" clip-rule="evenodd" d="M9.36353 15.9141C9.92603 15.9141 10.4885 15.9141 11.051 15.9141C11.051 16.4766 11.051 17.0391 11.051 17.6016C10.4885 17.6016 9.92603 17.6016 9.36353 17.6016C9.36353 17.0391 9.36353 16.4766 9.36353 15.9141Z" fill="#656E79"/>
        <path fill-rule="evenodd" clip-rule="evenodd" d="M11.6135 15.9141C12.176 15.9141 12.7385 15.9141 13.301 15.9141C13.301 16.4766 13.301 17.0391 13.301 17.6016C12.7385 17.6016 12.176 17.6016 11.6135 17.6016C11.6135 17.0391 11.6135 16.4766 11.6135 15.9141Z" fill="#656E79"/>
        <path opacity="0.995" fill-rule="evenodd" clip-rule="evenodd" d="M16.301 16.0078C18.7073 16 21.1136 16.0078 23.5198 16.0313C23.5432 16.0547 23.5667 16.0781 23.5901 16.1016C23.6214 16.4141 23.6214 16.7266 23.5901 17.0391C23.5667 17.0625 23.5432 17.0859 23.5198 17.1094C21.1136 17.1406 18.7073 17.1406 16.301 17.1094C16.2776 17.0859 16.2542 17.0625 16.2307 17.0391C16.1995 16.7266 16.1995 16.4141 16.2307 16.1016C16.2643 16.0761 16.2878 16.0448 16.301 16.0078Z" fill="#656E79"/>
        <path opacity="0.995" fill-rule="evenodd" clip-rule="evenodd" d="M15.551 17.6953C17.9573 17.6875 20.3636 17.6953 22.7698 17.7187C22.7932 17.7422 22.8167 17.7656 22.8401 17.7891C22.8714 18.1016 22.8714 18.414 22.8401 18.7266C22.8167 18.75 22.7932 18.7734 22.7698 18.7969C20.3636 18.8281 17.9573 18.8281 15.551 18.7969C15.5276 18.7734 15.5042 18.75 15.4807 18.7266C15.4495 18.414 15.4495 18.1016 15.4807 17.7891C15.5143 17.7636 15.5378 17.7323 15.551 17.6953Z" fill="#656E79"/>
        <path fill-rule="evenodd" clip-rule="evenodd" d="M2.61353 18.1641C3.17603 18.1641 3.73853 18.1641 4.30103 18.1641C4.30103 18.7266 4.30103 19.2891 4.30103 19.8516C3.73853 19.8516 3.17603 19.8516 2.61353 19.8516C2.61353 19.2891 2.61353 18.7266 2.61353 18.1641Z" fill="#656E79"/>
        <path fill-rule="evenodd" clip-rule="evenodd" d="M4.86353 18.1641C5.42603 18.1641 5.98853 18.1641 6.55103 18.1641C6.55103 18.7266 6.55103 19.2891 6.55103 19.8516C5.98853 19.8516 5.42603 19.8516 4.86353 19.8516C4.86353 19.2891 4.86353 18.7266 4.86353 18.1641Z" fill="#656E79"/>
        <path fill-rule="evenodd" clip-rule="evenodd" d="M7.11353 18.1641C7.67603 18.1641 8.23853 18.1641 8.80103 18.1641C8.80103 18.7266 8.80103 19.2891 8.80103 19.8516C8.23853 19.8516 7.67603 19.8516 7.11353 19.8516C7.11353 19.2891 7.11353 18.7266 7.11353 18.1641Z" fill="#656E79"/>
        <path fill-rule="evenodd" clip-rule="evenodd" d="M9.36353 18.1641C9.92603 18.1641 10.4885 18.1641 11.051 18.1641C11.051 18.7266 11.051 19.2891 11.051 19.8516C10.4885 19.8516 9.92603 19.8516 9.36353 19.8516C9.36353 19.2891 9.36353 18.7266 9.36353 18.1641Z" fill="#656E79"/>
        <path fill-rule="evenodd" clip-rule="evenodd" d="M11.6135 18.1641C12.176 18.1641 12.7385 18.1641 13.301 18.1641C13.301 18.7266 13.301 19.2891 13.301 19.8516C12.7385 19.8516 12.176 19.8516 11.6135 19.8516C11.6135 19.2891 11.6135 18.7266 11.6135 18.1641Z" fill="#656E79"/>
        <path opacity="0.977" fill-rule="evenodd" clip-rule="evenodd" d="M13.8635 18.1641C14.2073 18.1641 14.551 18.1641 14.8948 18.1641C14.8384 18.6295 14.9947 18.9967 15.3635 19.2656C15.4896 19.3018 15.6146 19.3408 15.7385 19.3828C15.6893 19.5355 15.658 19.6917 15.6448 19.8516C15.051 19.8516 14.4573 19.8516 13.8635 19.8516C13.8635 19.2891 13.8635 18.7266 13.8635 18.1641Z" fill="#656E79"/>
        <path opacity="0.995" fill-rule="evenodd" clip-rule="evenodd" d="M16.301 19.3828C18.7073 19.375 21.1136 19.3828 23.5198 19.4062C23.5432 19.4297 23.5667 19.4531 23.5901 19.4766C23.6214 19.7891 23.6214 20.1015 23.5901 20.4141C23.5667 20.4375 23.5432 20.4609 23.5198 20.4844C21.1136 20.5156 18.7073 20.5156 16.301 20.4844C16.2776 20.4609 16.2542 20.4375 16.2307 20.4141C16.1995 20.1015 16.1995 19.7891 16.2307 19.4766C16.2643 19.4511 16.2878 19.4198 16.301 19.3828Z" fill="#656E79"/>
        <path fill-rule="evenodd" clip-rule="evenodd" d="M2.61353 20.4141C3.17603 20.4141 3.73853 20.4141 4.30103 20.4141C4.30103 20.9766 4.30103 21.5391 4.30103 22.1016C3.73853 22.1016 3.17603 22.1016 2.61353 22.1016C2.61353 21.5391 2.61353 20.9766 2.61353 20.4141Z" fill="#656E79"/>
        <path fill-rule="evenodd" clip-rule="evenodd" d="M4.86353 20.4141C5.42603 20.4141 5.98853 20.4141 6.55103 20.4141C6.55103 20.9766 6.55103 21.5391 6.55103 22.1016C5.98853 22.1016 5.42603 22.1016 4.86353 22.1016C4.86353 21.5391 4.86353 20.9766 4.86353 20.4141Z" fill="#656E79"/>
        <path fill-rule="evenodd" clip-rule="evenodd" d="M7.11353 20.4141C7.67603 20.4141 8.23853 20.4141 8.80103 20.4141C8.80103 20.9766 8.80103 21.5391 8.80103 22.1016C8.23853 22.1016 7.67603 22.1016 7.11353 22.1016C7.11353 21.5391 7.11353 20.9766 7.11353 20.4141Z" fill="#656E79"/>
        <path fill-rule="evenodd" clip-rule="evenodd" d="M9.36353 20.4141C9.92603 20.4141 10.4885 20.4141 11.051 20.4141C11.051 20.9766 11.051 21.5391 11.051 22.1016C10.4885 22.1016 9.92603 22.1016 9.36353 22.1016C9.36353 21.5391 9.36353 20.9766 9.36353 20.4141Z" fill="#656E79"/>
        <path fill-rule="evenodd" clip-rule="evenodd" d="M11.6135 20.4141C12.176 20.4141 12.7385 20.4141 13.301 20.4141C13.301 20.9766 13.301 21.5391 13.301 22.1016C12.7385 22.1016 12.176 22.1016 11.6135 22.1016C11.6135 21.5391 11.6135 20.9766 11.6135 20.4141Z" fill="#656E79"/>
        <path opacity="0.974" fill-rule="evenodd" clip-rule="evenodd" d="M13.8635 20.4141C14.4844 20.3989 15.1016 20.4146 15.7151 20.4609C15.1488 20.6188 14.8754 21.0094 14.8948 21.6328C14.9053 21.7901 14.9209 21.9463 14.9417 22.1016C14.5823 22.1016 14.2229 22.1016 13.8635 22.1016C13.8635 21.5391 13.8635 20.9766 13.8635 20.4141Z" fill="#656E79"/>
        <path opacity="0.995" fill-rule="evenodd" clip-rule="evenodd" d="M15.551 21.0703C17.9573 21.0625 20.3636 21.0703 22.7698 21.0937C22.7932 21.1172 22.8167 21.1406 22.8401 21.1641C22.8714 21.4766 22.8714 21.789 22.8401 22.1016C22.8167 22.125 22.7932 22.1484 22.7698 22.1719C20.3636 22.2031 17.9573 22.2031 15.551 22.1719C15.5276 22.1484 15.5042 22.125 15.4807 22.1016C15.4495 21.789 15.4495 21.4766 15.4807 21.1641C15.5143 21.1386 15.5378 21.1073 15.551 21.0703Z" fill="#656E79"/>
        <path opacity="0.995" fill-rule="evenodd" clip-rule="evenodd" d="M16.301 22.7578C18.7073 22.75 21.1136 22.7578 23.5198 22.7812C23.5432 22.8047 23.5667 22.8281 23.5901 22.8516C23.6214 23.1641 23.6214 23.4765 23.5901 23.7891C23.5667 23.8125 23.5432 23.8359 23.5198 23.8594C21.1136 23.8906 18.7073 23.8906 16.301 23.8594C16.2776 23.8359 16.2542 23.8125 16.2307 23.7891C16.1995 23.4765 16.1995 23.1641 16.2307 22.8516C16.2643 22.8261 16.2878 22.7948 16.301 22.7578Z" fill="#656E79"/>
    </g>
    <defs>
        <clipPath id="clip0_3488_129073">
            <rect width="24" height="24" fill="white" transform="translate(0.105713)"/>
        </clipPath>
    </defs>
</svg>
