<svg width="25" height="24" viewBox="0 0 25 24" fill="none" xmlns="http://www.w3.org/2000/svg">
    <path d="M1 2H3.47321V20.8235H1V2Z" fill="#656E79"/>
    <path d="M20.5268 2H23V20.8235H20.5268V2Z" fill="#656E79"/>
    <path d="M2.27679 8.27451V5.27201H21.7232V8.27451H2.27679Z" fill="#656E79"/>
    <path d="M2.27679 13.413V10.4105H21.7232V13.413H2.27679Z" fill="#656E79"/>
    <path d="M17.9128 14.9844C18.1217 15.1294 18.2262 15.3334 18.2262 15.5965C18.2262 15.8381 18.1182 16.0341 17.9023 16.1844C17.6864 16.3294 17.4113 16.4019 17.0769 16.4019C16.7426 16.4019 16.4674 16.3294 16.2515 16.1844C16.0426 16.0394 15.9381 15.8462 15.9381 15.6045C15.9381 15.3361 16.0391 15.1294 16.2411 14.9844C16.45 14.8394 16.7286 14.767 17.0769 14.767C17.4321 14.767 17.7108 14.8394 17.9128 14.9844Z" fill="#656E79"/>
    <path d="M16.1052 17.4569C16.356 17.3012 16.6799 17.2234 17.0769 17.2234C17.4739 17.2234 17.7943 17.3039 18.0381 17.465C18.2819 17.6207 18.4038 17.8408 18.4038 18.1254C18.4038 18.3885 18.2854 18.6059 18.0486 18.7777C17.8118 18.9495 17.4879 19.0354 17.0769 19.0354C16.666 19.0354 16.3386 18.9522 16.0948 18.7858C15.858 18.614 15.7396 18.3938 15.7396 18.1254C15.7396 17.8354 15.8615 17.6126 16.1052 17.4569Z" fill="#656E79"/>
    <path fill-rule="evenodd" clip-rule="evenodd" d="M16.9674 21.9258C19.6916 21.9258 21.9 19.5721 21.9 16.6688C21.9 13.7654 19.6916 11.4118 16.9674 11.4118C14.2432 11.4118 12.0349 13.7654 12.0349 16.6688C12.0349 19.5721 14.2432 21.9258 16.9674 21.9258ZM14.5067 15.4354C14.5067 16.0207 14.855 16.4529 15.5515 16.7321C15.1684 16.8556 14.8689 17.0435 14.653 17.2958C14.437 17.5428 14.3291 17.8354 14.3291 18.1737C14.3291 18.5388 14.4475 18.8583 14.6843 19.1321C14.9281 19.4005 15.2555 19.6073 15.6664 19.7522C16.0843 19.8972 16.5545 19.9697 17.0769 19.9697C17.5993 19.9697 18.0695 19.8972 18.4874 19.7522C18.9053 19.6073 19.2327 19.4005 19.4695 19.1321C19.7133 18.8583 19.8352 18.5388 19.8352 18.1737C19.8352 17.8354 19.7272 17.5428 19.5113 17.2958C19.2954 17.0489 18.9959 16.8609 18.6128 16.7321C18.9262 16.6086 19.177 16.4368 19.365 16.2166C19.5531 15.9911 19.6471 15.7307 19.6471 15.4354C19.6471 15.1455 19.5496 14.8824 19.3546 14.6462C19.1665 14.4045 18.8775 14.2139 18.4874 14.0743C18.1043 13.9294 17.6341 13.8569 17.0769 13.8569C16.5197 13.8569 16.046 13.9294 15.656 14.0743C15.2729 14.2139 14.9838 14.4045 14.7888 14.6462C14.6007 14.8824 14.5067 15.1455 14.5067 15.4354Z" fill="#656E79"/>
    <path d="M8.14336 18.6534C7.861 18.813 7.53451 18.8928 7.16391 18.8928C6.7933 18.8928 6.46388 18.813 6.17563 18.6534C5.89326 18.4881 5.67266 18.2544 5.51383 17.9524C5.355 17.6503 5.27559 17.2998 5.27559 16.9008C5.27559 16.5018 5.355 16.1542 5.51383 15.8578C5.67266 15.5557 5.89326 15.3249 6.17563 15.1653C6.46388 15.0057 6.7933 14.9259 7.16391 14.9259C7.53451 14.9259 7.861 15.0057 8.14336 15.1653C8.42573 15.3249 8.64633 15.5557 8.80516 15.8578C8.96399 16.1542 9.0434 16.5018 9.0434 16.9008C9.0434 17.2998 8.96399 17.6503 8.80516 17.9524C8.64633 18.2544 8.42573 18.4881 8.14336 18.6534Z" fill="#656E79"/>
    <path fill-rule="evenodd" clip-rule="evenodd" d="M7.0674 22C9.81081 22 12.0348 19.6297 12.0348 16.7059C12.0348 13.782 9.81081 11.4118 7.0674 11.4118C4.32398 11.4118 2.1 13.782 2.1 16.7059C2.1 19.6297 4.32398 22 7.0674 22ZM5.5756 19.5682C6.05798 19.8304 6.58741 19.9615 7.16391 19.9615C7.7404 19.9615 8.26984 19.8304 8.75221 19.5682C9.23459 19.306 9.61402 18.9441 9.8905 18.4824C10.1729 18.0151 10.314 17.4879 10.314 16.9008C10.314 16.3194 10.1729 15.7979 9.8905 15.3363C9.61402 14.8689 9.23459 14.5041 8.75221 14.2419C8.27572 13.9798 7.74629 13.8487 7.16391 13.8487C6.58741 13.8487 6.05798 13.9798 5.5756 14.2419C5.09323 14.5041 4.71086 14.8689 4.42849 15.3363C4.14613 15.7979 4.00494 16.3194 4.00494 16.9008C4.00494 17.4879 4.14613 18.0151 4.42849 18.4824C4.71086 18.9441 5.09323 19.306 5.5756 19.5682Z" fill="#656E79"/>
</svg>
