<svg width="21" height="25" viewBox="0 0 21 25" fill="none" xmlns="http://www.w3.org/2000/svg">
<g clip-path="url(#clip0_2823_130805)">
<path d="M18.007 7.93057C17.0783 7.09723 16.0842 6.40055 14.9282 5.8813C14.848 6.26038 14.8085 6.62676 14.5853 6.93901C14.1959 6.6976 13.8153 6.44967 13.4215 6.22062C13.1015 6.03501 12.7666 5.87161 12.4364 5.7017C12.3178 5.64056 12.1985 5.61182 12.0518 5.63605C10.9077 5.82517 9.83954 6.17919 8.91404 6.85749C8.89118 6.87419 8.87064 6.89374 8.84796 6.91061C8.82885 6.92481 8.80813 6.93701 8.7742 6.95906L9.29482 7.38191C8.60328 7.60495 8.05784 7.9989 7.58027 8.5275C7.86603 8.56927 8.12178 8.6087 8.37843 8.64278C8.45951 8.65364 8.50166 8.67202 8.51077 8.76391C8.609 9.773 9.63755 10.3831 10.3732 10.4979C10.8599 10.5738 11.348 10.5512 11.8377 10.534C12.613 10.5068 13.3885 10.4937 14.1332 10.7532C14.1397 10.7554 14.1495 10.7495 14.1763 10.7427C13.9546 10.5178 13.7476 10.2902 13.521 10.0821C13.1995 9.78687 12.8655 9.50285 12.5298 9.22167C12.4636 9.17038 12.3822 9.13945 12.2965 9.13313C11.9156 9.10807 11.5337 9.08435 11.1521 9.0815C10.7468 9.0785 10.3662 8.99931 10.0072 8.82739C9.79686 8.72715 9.59343 8.61271 9.37411 8.4981C9.82811 8.10683 10.3335 7.83918 10.9127 7.68865C11.1105 7.6372 11.2878 7.66994 11.4726 7.7346C11.9727 7.90935 12.4494 8.12621 12.8893 8.41707C13.1715 8.18167 13.481 8.00792 13.8811 7.98269C13.7953 8.11084 13.7071 8.22194 13.6423 8.3439C13.549 8.51965 13.4855 8.7061 13.5442 8.90608C13.5576 8.95216 13.5825 8.9946 13.6169 9.02988C14.0991 9.50218 14.5856 9.97081 15.0653 10.4453C15.1261 10.5053 15.1632 10.5166 15.2439 10.4809C15.5626 10.3397 15.9065 10.2812 16.2537 10.2615C16.762 10.2328 17.2718 10.2373 17.7636 10.3881C17.8683 10.4201 17.9694 10.4623 18.0915 10.4856C17.9554 10.3509 17.829 10.206 17.6807 10.0836C17.3291 9.79171 16.9663 9.51204 16.6113 9.22301C16.5479 9.17139 16.4997 9.10122 16.4529 9.03456C16.2407 8.73233 16.0314 8.4281 15.8201 8.12303C16.1691 8.23196 16.48 8.42376 16.7697 8.64395C16.9092 8.54137 17.0323 8.41958 17.1823 8.34674C17.5779 8.15494 17.5622 8.12687 17.8195 8.5138C17.891 8.6224 17.9233 8.75572 17.9651 8.88035C17.9935 8.96506 17.9651 9.0399 17.8885 9.09754C17.8118 9.15518 17.7402 9.21299 17.6563 9.27915L18.5355 10.1703C18.5693 9.94776 18.5982 9.75746 18.632 9.5366C19.6627 10.9183 20.4419 12.3768 20.7969 14.014C21.194 15.8448 20.9889 17.6326 20.3515 19.4069L19.4228 18.4467C19.1117 21.1922 17.7209 23.2884 15.2884 24.8104C15.2213 24.5699 15.1564 24.3416 15.0937 24.1127C15.0311 23.8838 14.9701 23.6521 14.9066 23.415C14.6485 23.5654 14.4065 23.7157 14.1565 23.8494C13.1874 24.369 12.1264 24.7216 11.024 24.8902C10.3018 25.0047 9.56657 25.0287 8.8376 24.9617C7.87404 24.8725 6.93907 24.6049 6.08718 24.1743C6.00771 24.1344 5.98842 24.0874 6.00235 24.0129C6.09343 23.5284 6.1922 23.0454 6.27203 22.5594C6.40353 21.775 6.44246 20.9794 6.38812 20.1871C6.33847 19.4944 6.20166 18.8183 5.97734 18.1179C5.0422 19.4306 4.03062 20.647 2.70398 21.6217C2.48252 21.282 2.33518 20.9263 2.21534 20.5605C2.01513 19.9497 1.90047 19.3242 1.82992 18.6881C1.75195 18.007 1.72808 17.3213 1.75848 16.6369C1.78456 16.0905 1.82474 15.5444 1.98173 14.985L0 15.5573C0.25236 13.5473 1.04534 11.7835 2.34482 10.1878L1.15143 10.0041C1.99709 8.4159 3.16388 7.11076 4.68768 6.05923C4.04187 7.46729 4.8461 8.69892 5.56746 8.96071C5.48191 8.76457 5.3869 8.57345 5.31421 8.37514C5.15168 7.93107 5.09167 7.47297 5.19758 7.01119C5.39565 6.14995 6.14719 5.76001 7.0584 6.04386C7.29397 6.1172 7.51347 6.23599 7.73297 6.33072C7.7235 5.91305 7.04661 5.3674 6.25542 5.13902C6.68138 4.97195 7.10198 4.79185 7.5349 4.64249C8.3386 4.36549 9.16712 4.18572 10.0174 4.08665C10.815 3.99393 11.6127 3.98741 12.4106 4.04405C12.5276 4.0524 12.646 4.12274 12.7511 4.18355C13.2377 4.46506 13.6462 4.83194 14.0263 5.2284C14.0798 5.28437 14.1322 5.34117 14.2061 5.41986C14.1936 4.99835 14.0966 4.63079 13.9064 4.23367C14.3406 4.36733 14.7406 4.47742 15.1318 4.61125C15.8412 4.85383 16.4959 5.19081 17.0748 5.64924C17.2057 5.75283 17.335 5.84973 17.3532 6.03701C17.4068 6.58316 17.6222 7.08687 17.8509 7.5854C17.9017 7.69199 17.9486 7.79975 18.007 7.93057ZM16.4913 12.819C16.4913 12.6185 16.4875 12.4195 16.4929 12.2199C16.4952 12.1364 16.4695 12.0958 16.3791 12.0632C15.9528 11.9098 15.5618 11.6956 15.1888 11.4489C15.1268 11.4079 15.028 11.3937 14.95 11.4013C14.8317 11.4129 14.7149 11.449 14.601 11.4848C13.6187 11.7882 12.7698 12.3108 11.9606 12.8969C11.9325 12.9172 11.9224 12.9971 11.9413 13.0305C12.319 13.7071 12.7009 14.3816 13.087 15.054C13.1015 15.0753 13.1205 15.0936 13.1428 15.1078C13.1652 15.122 13.1903 15.1318 13.2168 15.1366C13.4964 15.1722 13.7648 15.1082 14.0216 15.0176C14.9369 14.6952 15.6945 14.1402 16.4327 13.5601C16.4684 13.5317 16.4863 13.4667 16.4884 13.4183C16.4948 13.2185 16.4913 13.0186 16.4913 12.819ZM13.7682 16.2354C13.7819 16.2688 13.7882 16.29 13.7989 16.3091C14.0268 16.7127 14.2533 17.1172 14.4869 17.518C14.5047 17.5487 14.581 17.5756 14.6188 17.5659C15.1598 17.4279 15.6603 17.2089 16.1062 16.8876C16.1725 16.84 16.2312 16.7827 16.2929 16.7297L16.3464 16.7374C16.4074 17.2457 16.4682 17.7542 16.529 18.2631C16.5445 18.258 16.5593 18.2513 16.5731 18.2429C16.6322 18.2035 16.6924 18.165 16.7474 18.1211C17.3755 17.6199 17.7313 16.9683 17.9154 16.228C17.9401 16.1291 17.9294 16.0129 17.8999 15.9138C17.8043 15.5925 17.6357 15.3021 17.4137 15.042C17.3681 14.9937 17.3039 14.9642 17.2351 14.96C16.9249 14.9551 16.6143 14.96 16.3039 14.9693C16.2474 14.9737 16.1934 14.993 16.1482 15.025C15.9339 15.1727 15.7303 15.3349 15.5109 15.4761C14.9803 15.815 14.4442 16.1482 13.7682 16.2354ZM18.4814 14.9697C18.8743 14.2777 18.914 13.5534 18.8182 12.8157C18.7568 12.3432 18.6275 11.8846 18.4185 11.4574C18.0887 11.6704 17.777 11.8771 17.4582 12.0737C17.3819 12.1208 17.3577 12.1674 17.3586 12.2483C17.3625 12.6341 17.3641 13.02 17.3586 13.4057C17.356 13.4548 17.3648 13.5037 17.3842 13.5493C17.4037 13.5949 17.4333 13.6361 17.4712 13.67C17.7977 13.9875 18.1105 14.3148 18.3346 14.7059C18.3816 14.7894 18.4275 14.8731 18.4814 14.9697Z" fill="white"/>
<path d="M14.6112 3.7395C11.4704 2.98084 8.47599 3.30512 5.6202 4.76898C5.27104 3.82788 4.87008 2.91585 4.19141 2.09588C4.9492 2.41916 5.60234 2.83098 6.24065 3.31865C6.09777 2.47178 5.96025 1.65799 5.81773 0.812622L8.62869 2.63367C8.94856 1.75606 9.26307 0.892648 9.58741 0.00233895L11.158 2.36703L13.4525 0C13.5148 0.848375 13.5753 1.67069 13.6389 2.53376C14.1497 1.91762 14.6905 1.37681 15.3535 0.901336C14.8988 1.81821 14.7293 2.76298 14.6112 3.7395Z" fill="white"/>
</g>
<defs>
<clipPath id="clip0_2823_130805">
<rect width="21" height="25" fill="white"/>
</clipPath>
</defs>
</svg>
