<svg width="25" height="24" viewBox="0 0 25 24" fill="none" xmlns="http://www.w3.org/2000/svg">
    <g clip-path="url(#clip0_3488_129074)">
        <path opacity="0.975" fill-rule="evenodd" clip-rule="evenodd" d="M11.0042 -0.0234375C11.7229 -0.0234375 12.4417 -0.0234375 13.1604 -0.0234375C13.8012 0.0560902 14.4419 0.173278 15.0823 0.328125C15.0697 1.46164 14.5697 2.32101 13.5823 2.90625C12.0868 3.58882 10.7821 3.33101 9.66821 2.13281C9.32003 1.66676 9.10909 1.14333 9.0354 0.5625C9.03746 0.479803 9.05312 0.401677 9.08228 0.328125C9.72212 0.169508 10.3628 0.05232 11.0042 -0.0234375Z" fill="#656E79"/>
        <path opacity="0.984" fill-rule="evenodd" clip-rule="evenodd" d="M7.62915 0.773438C8.16634 3.14498 9.65073 4.44186 12.0823 4.66406C14.51 4.44678 15.9866 3.1499 16.512 0.773438C19.676 2.125 21.9339 4.38281 23.2854 7.54688C20.6281 8.17336 19.3547 9.85303 19.4651 12.5859C19.8948 14.7031 21.1682 15.9765 23.2854 16.4062C21.9339 19.5703 19.676 21.8281 16.512 23.1797C15.9866 20.8032 14.51 19.5063 12.0823 19.2891C9.65476 19.5063 8.1782 20.8032 7.65259 23.1797C4.48853 21.8281 2.23071 19.5703 0.87915 16.4062C3.26703 15.8875 4.54828 14.4109 4.7229 11.9766C4.54828 9.5422 3.26703 8.06564 0.87915 7.54688C2.23165 4.3897 4.48165 2.13188 7.62915 0.773438ZM12.0354 6.11719C14.5461 6.24295 16.3508 7.43044 17.4495 9.67969C18.2894 11.8946 17.9769 13.9259 16.512 15.7734C14.613 17.7618 12.3708 18.2853 9.7854 17.3438C7.15773 16.0186 6.00929 13.8858 6.34009 10.9453C6.77542 8.93198 7.92385 7.48669 9.7854 6.60938C10.5137 6.31542 11.2636 6.15136 12.0354 6.11719Z" fill="#656E79"/>
        <path opacity="0.975" fill-rule="evenodd" clip-rule="evenodd" d="M0.0822754 13.0547C0.0822754 12.3359 0.0822754 11.6172 0.0822754 10.8984C0.158033 10.257 0.27522 9.6164 0.433838 8.97656C1.10728 8.93536 1.70884 9.13068 2.23853 9.5625C3.26018 10.4687 3.59612 11.5859 3.24634 12.9141C2.80833 14.1334 1.94896 14.8365 0.668213 15.0234C0.585516 15.0214 0.50739 15.0057 0.433838 14.9766C0.27522 14.3367 0.158033 13.6961 0.0822754 13.0547Z" fill="#656E79"/>
        <path opacity="0.975" fill-rule="evenodd" clip-rule="evenodd" d="M24.0823 10.8984C24.0823 11.6172 24.0823 12.336 24.0823 13.0547C24.0066 13.6961 23.8894 14.3367 23.7308 14.9766C22.7139 14.968 21.9014 14.5461 21.2933 13.7109C20.7862 12.877 20.6613 11.9864 20.9183 11.0391C21.3563 9.8197 22.2157 9.11658 23.4964 8.92969C23.5791 8.93175 23.6572 8.94741 23.7308 8.97656C23.8894 9.61641 24.0066 10.257 24.0823 10.8984Z" fill="#656E79"/>
        <path opacity="0.976" fill-rule="evenodd" clip-rule="evenodd" d="M13.1135 23.9766C12.426 23.9766 11.7385 23.9766 11.051 23.9766C10.395 23.8958 9.73876 23.7786 9.08228 23.625C9.09085 22.6081 9.51273 21.7956 10.3479 21.1875C11.1818 20.6805 12.0724 20.5555 13.0198 20.8125C14.2391 21.2505 14.9423 22.1099 15.1292 23.3906C15.1271 23.4733 15.1114 23.5515 15.0823 23.625C14.4258 23.7786 13.7695 23.8958 13.1135 23.9766Z" fill="#656E79"/>
        <path fill-rule="evenodd" clip-rule="evenodd" d="M12 7C9.23858 7 7 9.23858 7 12C7 14.7614 9.23858 17 12 17C14.7614 17 17 14.7614 17 12C17 9.23858 14.7614 7 12 7ZM10.129 10.5494C10.129 11.1238 10.382 11.5481 10.888 11.8221C10.6097 11.9433 10.3922 12.1278 10.2353 12.3755C10.0784 12.6179 10 12.9051 10 13.2372C10 13.5955 10.086 13.9091 10.2581 14.1779C10.4352 14.4414 10.673 14.6443 10.9715 14.7866C11.2751 14.9289 11.6167 15 11.9962 15C12.3757 15 12.7173 14.9289 13.0209 14.7866C13.3245 14.6443 13.5623 14.4414 13.7343 14.1779C13.9114 13.9091 14 13.5955 14 13.2372C14 12.9051 13.9216 12.6179 13.7647 12.3755C13.6078 12.1331 13.3903 11.9486 13.112 11.8221C13.3397 11.7009 13.5218 11.5323 13.6584 11.3162C13.7951 11.0949 13.8634 10.8393 13.8634 10.5494C13.8634 10.2648 13.7925 10.0066 13.6509 9.7747C13.5142 9.53755 13.3042 9.35046 13.0209 9.21344C12.7426 9.07115 12.401 9 11.9962 9C11.5914 9 11.2473 9.07115 10.9639 9.21344C10.6856 9.35046 10.4756 9.53755 10.334 9.7747C10.1973 10.0066 10.129 10.2648 10.129 10.5494ZM12.6034 10.1067C12.7552 10.249 12.8311 10.4493 12.8311 10.7075C12.8311 10.9447 12.7527 11.137 12.5958 11.2846C12.439 11.4269 12.2391 11.498 11.9962 11.498C11.7533 11.498 11.5534 11.4269 11.3966 11.2846C11.2448 11.1423 11.1689 10.9526 11.1689 10.7154C11.1689 10.4519 11.2423 10.249 11.389 10.1067C11.5408 9.96443 11.7432 9.89328 11.9962 9.89328C12.2543 9.89328 12.4567 9.96443 12.6034 10.1067ZM11.2903 12.5336C11.4725 12.3808 11.7078 12.3043 11.9962 12.3043C12.2846 12.3043 12.5174 12.3834 12.6945 12.5415C12.8716 12.6943 12.9602 12.9104 12.9602 13.1897C12.9602 13.448 12.8741 13.6614 12.7021 13.83C12.53 13.9987 12.2948 14.083 11.9962 14.083C11.6977 14.083 11.4598 14.0013 11.2827 13.8379C11.1107 13.6693 11.0247 13.4532 11.0247 13.1897C11.0247 12.9051 11.1132 12.6864 11.2903 12.5336Z" fill="#656E79"/>
    </g>
    <defs>
        <clipPath id="clip0_3488_129074">
            <rect width="24" height="24" fill="white" transform="translate(0.105713)"/>
        </clipPath>
    </defs>
</svg>
