<svg width="25" height="24" viewBox="0 0 25 24" fill="none" xmlns="http://www.w3.org/2000/svg">
<g clip-path="url(#clip0_4474_5111)">
<path opacity="0.999" fill-rule="evenodd" clip-rule="evenodd" d="M11.0042 -0.0234375C11.3635 -0.0234375 11.7229 -0.0234375 12.0823 -0.0234375C12.0823 2.63281 12.0823 5.28905 12.0823 7.94531C11.3084 7.92984 10.5428 7.9455 9.7854 7.99219C9.76979 7.99219 9.75413 7.99219 9.73853 7.99219C9.00184 6.65977 8.25184 5.33166 7.48853 4.00781C7.48853 3.99219 7.48853 3.97656 7.48853 3.96094C8.19165 2.71094 8.89478 1.46094 9.5979 0.210938C10.0698 0.117022 10.5386 0.0388974 11.0042 -0.0234375Z" fill="#E2E2EB"/>
<path fill-rule="evenodd" clip-rule="evenodd" d="M12.0823 -0.0234375C12.4417 -0.0234375 12.801 -0.0234375 13.1604 -0.0234375C13.626 0.0388974 14.0947 0.117022 14.5667 0.210938C15.2568 1.45037 15.9599 2.68475 16.676 3.91406C18.1288 3.96093 19.5819 3.97656 21.0354 3.96094C19.5902 3.99996 18.1371 4.02339 16.676 4.03125C15.9071 5.34272 15.1571 6.663 14.426 7.99219C13.6448 7.99219 12.8635 7.99219 12.0823 7.99219C11.3167 7.99219 10.551 7.99219 9.7854 7.99219C10.5428 7.9455 11.3084 7.92984 12.0823 7.94531C12.0823 5.28905 12.0823 2.63281 12.0823 -0.0234375Z" fill="#CFCFDE"/>
<path opacity="0.992" fill-rule="evenodd" clip-rule="evenodd" d="M9.5979 0.210938C8.89478 1.46094 8.19165 2.71094 7.48853 3.96094C6.0354 3.96094 4.58228 3.96094 3.12915 3.96094C4.89615 2.06109 7.0524 0.811087 9.5979 0.210938Z" fill="#3B4B51"/>
<path fill-rule="evenodd" clip-rule="evenodd" d="M14.5667 0.210938C17.0711 0.884236 19.2273 2.13424 21.0354 3.96094C19.5819 3.97656 18.1288 3.96093 16.676 3.91406C15.9599 2.68475 15.2568 1.45037 14.5667 0.210938Z" fill="#292929"/>
<path opacity="0.999" fill-rule="evenodd" clip-rule="evenodd" d="M3.12915 3.96094C4.58228 3.96094 6.0354 3.96094 7.48853 3.96094C7.48853 3.97656 7.48853 3.99219 7.48853 4.00781C6.03531 4 4.58219 4.00781 3.12915 4.03125C3.08821 4.08023 3.04133 4.1193 2.98853 4.14844C2.99966 4.05917 3.04654 3.99667 3.12915 3.96094Z" fill="#B6BBBF"/>
<path opacity="0.999" fill-rule="evenodd" clip-rule="evenodd" d="M7.48853 4.00781C8.25184 5.33165 9.00184 6.65976 9.73853 7.99219C9.00859 9.31594 8.25859 10.6284 7.48853 11.9297C5.94507 11.9762 4.39821 11.9918 2.8479 11.9766C2.13647 10.7095 1.40209 9.45947 0.644775 8.22656C1.15039 6.69858 1.93164 5.3392 2.98853 4.14844C3.04133 4.11929 3.08821 4.08023 3.12915 4.03125C4.58219 4.00781 6.03531 4 7.48853 4.00781Z" fill="#F4F4F7"/>
<path opacity="0.999" fill-rule="evenodd" clip-rule="evenodd" d="M21.0354 3.96094C22.1597 5.17706 22.9722 6.58331 23.4729 8.17969C22.7903 9.46688 22.0715 10.7325 21.3167 11.9766C19.7664 11.9918 18.2195 11.9762 16.676 11.9297C15.906 10.6284 15.156 9.31594 14.426 7.99219C15.1571 6.663 15.9071 5.34272 16.676 4.03125C18.1371 4.02339 19.5902 3.99996 21.0354 3.96094Z" fill="#E2E2EB"/>
<path fill-rule="evenodd" clip-rule="evenodd" d="M9.73856 7.99219C9.75417 7.99219 9.76983 7.99219 9.78544 7.99219C10.551 7.99219 11.3167 7.99219 12.0823 7.99219C12.0823 10.6485 12.0823 13.3047 12.0823 15.9609C11.301 15.9609 10.5198 15.9609 9.73856 15.9609C9.02119 14.6513 8.27901 13.3545 7.512 12.0703C7.48936 12.0259 7.48158 11.979 7.48856 11.9297C8.25862 10.6284 9.00862 9.31594 9.73856 7.99219Z" fill="#3B4B51"/>
<path fill-rule="evenodd" clip-rule="evenodd" d="M12.0823 7.99219C12.8635 7.99219 13.6448 7.99219 14.426 7.99219C15.156 9.31594 15.906 10.6284 16.676 11.9297C15.9637 13.276 15.2137 14.6041 14.426 15.9141C13.6454 15.9609 12.8642 15.9765 12.0823 15.9609C12.0823 13.3047 12.0823 10.6485 12.0823 7.99219Z" fill="#292929"/>
<path opacity="0.994" fill-rule="evenodd" clip-rule="evenodd" d="M0.644775 8.22656C1.40209 9.45947 2.13647 10.7095 2.8479 11.9766C2.11283 13.2282 1.37845 14.4782 0.644775 15.7266C0.384123 14.8138 0.196623 13.892 0.0822754 12.9609C0.0822754 12.2891 0.0822754 11.6172 0.0822754 10.9453C0.202681 10.031 0.390181 9.12473 0.644775 8.22656Z" fill="#3B4B51"/>
<path fill-rule="evenodd" clip-rule="evenodd" d="M23.4729 8.17969C23.772 9.09713 23.9751 10.0346 24.0823 10.9922C24.0823 11.6328 24.0823 12.2734 24.0823 12.9141C23.962 13.8591 23.7745 14.7966 23.5198 15.7266C22.7861 14.4782 22.0517 13.2282 21.3167 11.9766C22.0715 10.7325 22.7903 9.46687 23.4729 8.17969Z" fill="#29292A"/>
<path opacity="0.999" fill-rule="evenodd" clip-rule="evenodd" d="M7.48853 11.9297C7.48154 11.979 7.48932 12.0259 7.51196 12.0703C8.27898 13.3545 9.02115 14.6513 9.73853 15.9609C9.73853 15.9765 9.73853 15.9922 9.73853 16.0078C8.9761 17.3296 8.2261 18.6578 7.48853 19.9922C6.0354 19.9922 4.58228 19.9922 3.12915 19.9922C2.00216 18.7551 1.17404 17.3333 0.644775 15.7266C1.37845 14.4782 2.11283 13.2282 2.8479 11.9766C4.39821 11.9918 5.94507 11.9762 7.48853 11.9297Z" fill="#E2E2EB"/>
<path opacity="0.999" fill-rule="evenodd" clip-rule="evenodd" d="M16.676 11.9297C18.2195 11.9762 19.7664 11.9918 21.3167 11.9766C22.0517 13.2282 22.7861 14.4782 23.5198 15.7266C22.9905 17.3333 22.1624 18.7551 21.0354 19.9922C19.5823 19.9922 18.1292 19.9922 16.676 19.9922C15.9449 18.663 15.1949 17.3427 14.426 16.0312C13.6449 16.0078 12.8637 16 12.0823 16.0078C11.301 16.0078 10.5198 16.0078 9.73853 16.0078C9.73853 15.9922 9.73853 15.9765 9.73853 15.9609C10.5198 15.9609 11.301 15.9609 12.0823 15.9609C12.8642 15.9765 13.6454 15.9609 14.426 15.9141C15.2137 14.6041 15.9637 13.276 16.676 11.9297Z" fill="#CFCFDE"/>
<path opacity="0.999" fill-rule="evenodd" clip-rule="evenodd" d="M9.73853 16.0078C10.5198 16.0078 11.301 16.0078 12.0823 16.0078C12.0823 18.6641 12.0823 21.3203 12.0823 23.9766C11.7229 23.9766 11.3635 23.9766 11.0042 23.9766C10.5396 23.9078 10.0709 23.8297 9.5979 23.7422C8.89609 22.493 8.19296 21.243 7.48853 19.9922C8.2261 18.6577 8.9761 17.3296 9.73853 16.0078Z" fill="#F4F4F7"/>
<path fill-rule="evenodd" clip-rule="evenodd" d="M12.0823 16.0078C12.8637 16 13.6449 16.0078 14.426 16.0313C15.1949 17.3427 15.9449 18.663 16.676 19.9922C15.9729 21.2422 15.2698 22.4922 14.5667 23.7422C14.0937 23.8297 13.6249 23.9079 13.1604 23.9766C12.801 23.9766 12.4417 23.9766 12.0823 23.9766C12.0823 21.3203 12.0823 18.6641 12.0823 16.0078Z" fill="#E2E2EB"/>
<path opacity="0.993" fill-rule="evenodd" clip-rule="evenodd" d="M3.12915 19.9922C4.58228 19.9922 6.0354 19.9922 7.48853 19.9922C8.19296 21.243 8.89609 22.493 9.5979 23.7422C7.0524 23.142 4.89615 21.892 3.12915 19.9922Z" fill="#3B4B51"/>
<path fill-rule="evenodd" clip-rule="evenodd" d="M16.676 19.9922C18.1292 19.9922 19.5823 19.9922 21.0354 19.9922C19.253 21.8684 17.0967 23.1184 14.5667 23.7422C15.2698 22.4922 15.9729 21.2422 16.676 19.9922Z" fill="#292929"/>
</g>
<defs>
<clipPath id="clip0_4474_5111">
<rect width="24" height="24" fill="white" transform="translate(0.105713)"/>
</clipPath>
</defs>
</svg>
