<svg width="25" height="24" viewBox="0 0 25 24" fill="none" xmlns="http://www.w3.org/2000/svg">
<g clip-path="url(#clip0_4474_5097)">
<path fill-rule="evenodd" clip-rule="evenodd" d="M11.0979 -0.0234375C11.5667 -0.0234375 12.0354 -0.0234375 12.5042 -0.0234375C12.425 1.02879 12.4719 2.07567 12.6448 3.11719C13.0678 3.01534 13.4897 2.90596 13.9104 2.78906C13.9546 2.79413 13.9936 2.80976 14.0276 2.83594C14.1497 3.25671 14.2668 3.67859 14.3792 4.10156C13.9748 4.22331 13.5685 4.34049 13.1604 4.45312C13.1169 4.47131 13.0856 4.50256 13.0667 4.54688C13.1983 4.95867 13.3624 5.35711 13.5588 5.74219C13.938 5.50387 14.3286 5.28516 14.7307 5.08594C14.9138 5.3422 15.0857 5.60784 15.2463 5.88281C15.3361 6.01397 15.3829 6.15459 15.387 6.30469C15.0065 6.51398 14.6394 6.74053 14.2854 6.98438C14.5168 7.3253 14.7668 7.65342 15.0354 7.96875C15.0667 8.00002 15.0979 8.00002 15.1292 7.96875C15.4345 7.65558 15.747 7.35089 16.0667 7.05469C16.1927 7.21191 16.3333 7.35253 16.4885 7.47656C16.4885 7.49217 16.4885 7.50783 16.4885 7.52344C15.5198 8.52342 14.5354 9.5078 13.5354 10.4766C13.373 10.3377 13.2168 10.1893 13.0667 10.0312C13.3869 9.71095 13.7073 9.39061 14.0276 9.07031C14.0424 9.00431 14.0267 8.94183 13.9807 8.88281C13.6336 8.49675 13.3133 8.09053 13.0198 7.66406C12.6175 7.89253 12.2191 8.12691 11.8245 8.36719C11.5764 7.97264 11.3342 7.5742 11.0979 7.17188C11.5055 6.92133 11.9117 6.67134 12.3167 6.42188C12.0717 5.91337 11.8686 5.38992 11.7073 4.85156C11.2408 4.95839 10.7799 5.08341 10.3245 5.22656C10.1734 4.76583 10.0562 4.29706 9.9729 3.82031C10.3999 3.73309 10.8218 3.62372 11.2385 3.49219C11.2541 3.4375 11.2698 3.38281 11.2854 3.32812C11.0773 2.219 11.0148 1.10182 11.0979 -0.0234375Z" fill="#F03902"/>
<path opacity="0.996" fill-rule="evenodd" clip-rule="evenodd" d="M12.5041 -0.0234375C12.7229 -0.0234375 12.9416 -0.0234375 13.1604 -0.0234375C16.0475 0.286873 18.5163 1.45875 20.5666 3.49219C19.2649 4.81744 17.9524 6.13772 16.6291 7.45312C16.5847 7.47577 16.5378 7.48355 16.4885 7.47656C16.3332 7.35253 16.1926 7.21191 16.0666 7.05469C15.747 7.35089 15.4345 7.65558 15.1291 7.96875C15.0979 8.00002 15.0666 8.00002 15.0354 7.96875C14.7667 7.65342 14.5167 7.3253 14.2854 6.98438C14.6393 6.74053 15.0065 6.51398 15.3869 6.30469C15.3829 6.15459 15.336 6.01397 15.2463 5.88281C15.0856 5.60784 14.9137 5.3422 14.7307 5.08594C14.3285 5.28516 13.9379 5.50387 13.5588 5.74219C13.3624 5.35711 13.1983 4.95867 13.0666 4.54688C13.0856 4.50256 13.1169 4.47131 13.1604 4.45312C13.5685 4.34049 13.9748 4.22331 14.3791 4.10156C14.2668 3.67859 14.1496 3.25671 14.0276 2.83594C13.9936 2.80976 13.9545 2.79413 13.9104 2.78906C13.4896 2.90596 13.0677 3.01534 12.6447 3.11719C12.4719 2.07567 12.425 1.02879 12.5041 -0.0234375Z" fill="#EFE1DC"/>
<path opacity="0.998" fill-rule="evenodd" clip-rule="evenodd" d="M11.051 -0.0234375C11.0666 -0.0234375 11.0823 -0.0234375 11.0979 -0.0234375C11.0148 1.10182 11.0773 2.219 11.2854 3.32812C11.2698 3.38281 11.2541 3.4375 11.2385 3.49219C10.8218 3.62372 10.3999 3.73309 9.9729 3.82031C10.0562 4.29706 10.1734 4.76583 10.3245 5.22656C10.7799 5.08341 11.2408 4.95839 11.7073 4.85156C11.8686 5.38992 12.0717 5.91337 12.3167 6.42188C11.9117 6.67134 11.5055 6.92133 11.0979 7.17188C11.3342 7.5742 11.5764 7.97264 11.8245 8.36719C12.2191 8.12691 12.6175 7.89253 13.0198 7.66406C13.3133 8.09053 13.6336 8.49675 13.9807 8.88281C14.0267 8.94183 14.0424 9.00431 14.0276 9.07031C13.7073 9.39061 13.3869 9.71095 13.0667 10.0312C13.2168 10.1893 13.373 10.3377 13.5354 10.4766C13.5354 10.4922 13.5354 10.5078 13.5354 10.5234C12.5666 11.5234 11.5823 12.5078 10.5823 13.4766C10.5667 13.4766 10.551 13.4766 10.5354 13.4766C10.3966 13.3142 10.2481 13.158 10.0901 13.0078C9.76979 13.3281 9.44945 13.6485 9.12915 13.9688C9.06315 13.9835 9.00067 13.9679 8.94165 13.9219C8.55559 13.5748 8.14937 13.2545 7.7229 12.9609C7.95137 12.5587 8.18574 12.1602 8.42603 11.7656C8.03148 11.5176 7.63304 11.2754 7.23071 11.0391C6.98017 11.4467 6.73018 11.8529 6.48071 12.2578C5.97924 11.9953 5.45579 11.7921 4.9104 11.6484C5.01742 11.1812 5.14243 10.7203 5.2854 10.2656C4.82467 10.1146 4.3559 9.99741 3.87915 9.91406C3.79175 10.3418 3.68237 10.7637 3.55103 11.1797C3.49634 11.1953 3.44165 11.211 3.38696 11.2266C2.29479 11.0027 1.19323 10.9403 0.0822754 11.0391C0.0822754 10.9922 0.0822754 10.9453 0.0822754 10.8984C0.683414 6.26527 3.08966 2.94496 7.30103 0.9375C8.50773 0.424915 9.75774 0.104603 11.051 -0.0234375Z" fill="#EFE1DC"/>
<path fill-rule="evenodd" clip-rule="evenodd" d="M20.5667 3.49219C22.6001 5.54255 23.772 8.01131 24.0823 10.8984C24.0823 11.1172 24.0823 11.3359 24.0823 11.5547C23.0476 11.6354 22.0163 11.6041 20.9885 11.4609C21.0691 11.0318 21.1784 10.61 21.3167 10.1953C21.2734 10.0952 21.1953 10.0405 21.0823 10.0312C20.7206 9.93694 20.3612 9.83536 20.0042 9.72656C19.8501 10.1553 19.7251 10.5928 19.6292 11.0391C19.1887 10.926 18.7668 10.762 18.3635 10.5469C18.5979 10.1563 18.8323 9.76561 19.0667 9.375C18.6682 9.12103 18.2619 8.87883 17.8479 8.64844C17.6253 9.04683 17.391 9.43744 17.1448 9.82031C16.789 9.59742 16.4531 9.34739 16.137 9.07031C16.1057 9.03905 16.1057 9.00783 16.137 8.97656C16.4501 8.67122 16.7548 8.3587 17.051 8.03906C16.891 7.83187 16.7035 7.66003 16.4885 7.52344C16.4885 7.50783 16.4885 7.49217 16.4885 7.47656C16.5378 7.48355 16.5847 7.47577 16.6292 7.45312C17.9524 6.13772 19.2649 4.81744 20.5667 3.49219Z" fill="#CDBEB9"/>
<path fill-rule="evenodd" clip-rule="evenodd" d="M16.4885 7.52344C16.7034 7.66003 16.8909 7.83187 17.051 8.03906C16.7548 8.3587 16.4501 8.67122 16.137 8.97656C16.1057 9.00783 16.1057 9.03905 16.137 9.07031C16.453 9.34739 16.789 9.59742 17.1448 9.82031C17.391 9.43744 17.6253 9.04683 17.8479 8.64844C18.2619 8.87883 18.6682 9.12103 19.0667 9.375C18.8323 9.76561 18.5979 10.1563 18.3635 10.5469C18.7668 10.762 19.1887 10.926 19.6292 11.0391C19.7251 10.5928 19.8501 10.1553 20.0042 9.72656C20.3612 9.83536 20.7205 9.93694 21.0823 10.0312C21.1953 10.0405 21.2734 10.0952 21.3167 10.1953C21.1784 10.61 21.0691 11.0318 20.9885 11.4609C22.0163 11.6041 23.0476 11.6354 24.0823 11.5547C24.0823 12.039 24.0823 12.5235 24.0823 13.0078C22.9482 13.1057 21.8232 13.0432 20.7073 12.8203C20.6204 12.8526 20.5658 12.9151 20.5432 13.0078C20.4422 13.3652 20.3484 13.7245 20.262 14.0859C20.1811 14.1364 20.0951 14.1442 20.0042 14.1094C19.6097 14.0325 19.2347 13.9153 18.8792 13.7578C19.0246 13.3092 19.134 12.8639 19.2073 12.4219C18.6835 12.2474 18.1757 12.0364 17.6838 11.7891C17.4339 12.1953 17.1838 12.6015 16.9338 13.0078C16.5315 12.7715 16.1331 12.5293 15.7385 12.2812C15.9788 11.8867 16.2132 11.4882 16.4417 11.0859C15.9957 10.7614 15.5582 10.4254 15.1292 10.0781C15.0979 10.0469 15.0667 10.0469 15.0354 10.0781C14.7151 10.3984 14.3948 10.7188 14.0745 11.0391C13.9009 10.8577 13.7212 10.6858 13.5354 10.5234C13.5354 10.5078 13.5354 10.4922 13.5354 10.4766C14.5354 9.5078 15.5198 8.52342 16.4885 7.52344Z" fill="#CD0401"/>
<path fill-rule="evenodd" clip-rule="evenodd" d="M10.5354 13.4766C9.56664 14.4765 8.58226 15.4609 7.58228 16.4297C7.56667 16.4297 7.55101 16.4297 7.5354 16.4297C7.40434 16.2751 7.26371 16.1267 7.11353 15.9844C7.41821 15.6797 7.7229 15.375 8.02759 15.0703C8.03523 14.9819 7.99613 14.9115 7.9104 14.8594C7.63299 14.631 7.34392 14.4201 7.04321 14.2266C6.78971 14.5612 6.57095 14.9205 6.38696 15.3047C6.26288 15.3499 6.1457 15.3264 6.0354 15.2344C5.72926 15.0581 5.43235 14.8706 5.14478 14.6719C5.34399 14.2697 5.56271 13.8791 5.80103 13.5C5.41595 13.3035 5.01751 13.1395 4.60571 13.0078C4.56953 13.0146 4.53827 13.0302 4.51196 13.0547C4.40885 13.4811 4.29166 13.903 4.1604 14.3203C3.73742 14.208 3.31555 14.0908 2.89478 13.9688C2.8686 13.9348 2.85297 13.8957 2.8479 13.8516C2.9648 13.4308 3.07418 13.0089 3.17603 12.5859C2.69147 12.5364 2.2071 12.4817 1.7229 12.4219C1.17526 12.3907 0.628388 12.3985 0.0822754 12.4453C0.0822754 11.9766 0.0822754 11.5078 0.0822754 11.0391C1.19323 10.9403 2.29479 11.0027 3.38696 11.2266C3.44165 11.211 3.49634 11.1953 3.55103 11.1797C3.68237 10.7637 3.79175 10.3418 3.87915 9.91406C4.3559 9.99741 4.82467 10.1146 5.2854 10.2656C5.14243 10.7203 5.01742 11.1812 4.9104 11.6484C5.45579 11.7921 5.97924 11.9953 6.48071 12.2578C6.73018 11.8529 6.98017 11.4467 7.23071 11.0391C7.63304 11.2754 8.03148 11.5176 8.42603 11.7656C8.18574 12.1602 7.95137 12.5587 7.7229 12.9609C8.14937 13.2545 8.55559 13.5748 8.94165 13.9219C9.00067 13.9679 9.06315 13.9835 9.12915 13.9688C9.44945 13.6485 9.76979 13.3281 10.0901 13.0078C10.2481 13.158 10.3966 13.3142 10.5354 13.4766Z" fill="#F03902"/>
<path fill-rule="evenodd" clip-rule="evenodd" d="M24.0823 13.0078C24.0823 13.0234 24.0823 13.0391 24.0823 13.0547C23.4812 17.6879 21.0749 21.0082 16.8635 23.0156C15.6568 23.5282 14.4068 23.8485 13.1135 23.9766C13.0979 23.9766 13.0823 23.9766 13.0667 23.9766C13.1116 23.3834 13.1194 22.7897 13.0901 22.1953C13.0388 21.6445 12.9763 21.0977 12.9026 20.5547C13.355 20.4319 13.8003 20.2913 14.2385 20.1328C14.1141 19.7133 13.9969 19.2914 13.887 18.8672C13.8676 18.8458 13.8441 18.8301 13.8167 18.8203C13.3848 18.9419 12.9551 19.0669 12.5276 19.1953C12.3208 18.6644 12.0942 18.141 11.8479 17.625C12.2542 17.375 12.6604 17.125 13.0667 16.875C12.8304 16.4727 12.5882 16.0742 12.3401 15.6797C11.9455 15.92 11.5471 16.1544 11.1448 16.3828C10.8202 15.9369 10.4843 15.4994 10.137 15.0703C10.1057 15.0391 10.1057 15.0078 10.137 14.9766C10.4573 14.6563 10.7776 14.3359 11.0979 14.0156C10.9165 13.8421 10.7446 13.6624 10.5823 13.4766C11.5823 12.5078 12.5666 11.5234 13.5354 10.5234C13.7212 10.6858 13.9009 10.8577 14.0745 11.0391C14.3948 10.7188 14.7151 10.3984 15.0354 10.0781C15.0667 10.0469 15.0979 10.0469 15.1292 10.0781C15.5582 10.4254 15.9957 10.7614 16.4417 11.0859C16.2132 11.4882 15.9788 11.8867 15.7385 12.2813C16.1331 12.5293 16.5315 12.7715 16.9338 13.0078C17.1838 12.6016 17.4339 12.1953 17.6838 11.7891C18.1757 12.0364 18.6835 12.2474 19.2073 12.4219C19.134 12.8639 19.0246 13.3092 18.8792 13.7578C19.2348 13.9153 19.6098 14.0325 20.0042 14.1094C20.0951 14.1442 20.1811 14.1364 20.262 14.0859C20.3484 13.7245 20.4422 13.3652 20.5432 13.0078C20.5658 12.9151 20.6204 12.8526 20.7073 12.8203C21.8232 13.0432 22.9482 13.1057 24.0823 13.0078Z" fill="#CDBEB9"/>
<path opacity="0.996" fill-rule="evenodd" clip-rule="evenodd" d="M7.5354 16.4297C7.54238 16.479 7.5346 16.5259 7.51196 16.5703C6.21221 17.8779 4.90749 19.1748 3.5979 20.4609C1.57141 18.4076 0.399528 15.9388 0.0822754 13.0547C0.0822754 12.8516 0.0822754 12.6484 0.0822754 12.4453C0.628388 12.3985 1.17526 12.3906 1.7229 12.4219C2.2071 12.4817 2.69147 12.5364 3.17603 12.5859C3.07418 13.0089 2.9648 13.4308 2.8479 13.8515C2.85297 13.8957 2.8686 13.9348 2.89478 13.9687C3.31555 14.0908 3.73742 14.208 4.1604 14.3203C4.29166 13.903 4.40885 13.4811 4.51196 13.0547C4.53827 13.0302 4.56953 13.0146 4.60571 13.0078C5.01751 13.1395 5.41595 13.3035 5.80103 13.5C5.56271 13.8791 5.34399 14.2697 5.14478 14.6719C5.43235 14.8706 5.72926 15.0581 6.0354 15.2344C6.1457 15.3264 6.26288 15.3499 6.38696 15.3047C6.57095 14.9205 6.78971 14.5611 7.04321 14.2265C7.34392 14.42 7.63299 14.631 7.9104 14.8594C7.99613 14.9115 8.03523 14.9818 8.02759 15.0703C7.7229 15.375 7.41821 15.6797 7.11353 15.9844C7.26371 16.1267 7.40434 16.2751 7.5354 16.4297Z" fill="#EFE1DC"/>
<path fill-rule="evenodd" clip-rule="evenodd" d="M10.5354 13.4766C10.551 13.4766 10.5667 13.4766 10.5823 13.4766C10.7446 13.6624 10.9165 13.8421 11.0979 14.0156C10.7776 14.3359 10.4573 14.6563 10.137 14.9766C10.1057 15.0078 10.1057 15.039 10.137 15.0703C10.4843 15.4994 10.8202 15.9368 11.1448 16.3828C11.5471 16.1543 11.9455 15.92 12.3401 15.6797C12.5882 16.0742 12.8304 16.4727 13.0667 16.875C12.6604 17.125 12.2542 17.375 11.8479 17.625C12.0942 18.141 12.3208 18.6644 12.5276 19.1953C12.9551 19.0669 13.3848 18.9419 13.8167 18.8203C13.8441 18.8301 13.8676 18.8458 13.887 18.8672C13.9969 19.2914 14.1141 19.7133 14.2385 20.1328C13.8003 20.2913 13.355 20.4319 12.9026 20.5547C12.9763 21.0977 13.0388 21.6445 13.0901 22.1953C13.1194 22.7896 13.1116 23.3834 13.0667 23.9766C12.5979 23.9766 12.1292 23.9766 11.6604 23.9766C11.6994 22.9861 11.6447 22.0017 11.4963 21.0234C11.4782 20.9799 11.4469 20.9487 11.4026 20.9297C11.012 21.039 10.6213 21.1485 10.2307 21.2578C10.1864 21.2388 10.1552 21.2076 10.137 21.1641C10.0343 20.7533 9.91712 20.3471 9.7854 19.9453C10.2229 19.8047 10.6604 19.6641 11.0979 19.5234C10.9673 19.1062 10.7876 18.7156 10.5588 18.3516C10.1769 18.5581 9.8019 18.7769 9.43384 19.0078C9.17987 18.6093 8.93767 18.2031 8.70728 17.7891C9.10567 17.5665 9.49628 17.3321 9.87915 17.0859C9.64796 16.7143 9.38232 16.3705 9.08228 16.0547C8.75415 16.3672 8.42603 16.6797 8.0979 16.9922C7.89071 16.8321 7.71887 16.6446 7.58228 16.4297C8.58226 15.4609 9.56663 14.4765 10.5354 13.4766Z" fill="#CD0401"/>
<path fill-rule="evenodd" clip-rule="evenodd" d="M11.6604 23.9766C11.4416 23.9766 11.2229 23.9766 11.0042 23.9766C8.11988 23.6593 5.65117 22.4874 3.5979 20.4609C4.90749 19.1748 6.21221 17.8779 7.51196 16.5703C7.5346 16.5259 7.54238 16.479 7.5354 16.4297C7.55101 16.4297 7.56667 16.4297 7.58228 16.4297C7.71887 16.6446 7.89071 16.8321 8.0979 16.9922C8.42603 16.6797 8.75415 16.3672 9.08228 16.0547C9.38232 16.3705 9.64796 16.7143 9.87915 17.0859C9.49628 17.3321 9.10567 17.5665 8.70728 17.7891C8.93767 18.2031 9.17987 18.6093 9.43384 19.0078C9.8019 18.7769 10.1769 18.5581 10.5588 18.3516C10.7876 18.7156 10.9673 19.1063 11.0979 19.5234C10.6604 19.6641 10.2229 19.8047 9.7854 19.9453C9.91712 20.3471 10.0343 20.7533 10.137 21.1641C10.1552 21.2076 10.1864 21.2388 10.2307 21.2578C10.6213 21.1485 11.012 21.039 11.4026 20.9297C11.4469 20.9487 11.4782 20.9799 11.4963 21.0234C11.6447 22.0017 11.6994 22.9861 11.6604 23.9766Z" fill="#CDBEB9"/>
</g>
<defs>
<clipPath id="clip0_4474_5097">
<rect width="24" height="24" fill="white" transform="translate(0.105713)"/>
</clipPath>
</defs>
</svg>
