<svg width="25" height="24" viewBox="0 0 25 24" fill="none" xmlns="http://www.w3.org/2000/svg">
<g clip-path="url(#clip0_4474_5098)">
<path opacity="0.996" fill-rule="evenodd" clip-rule="evenodd" d="M11.0042 -0.0234375C11.2229 -0.0234375 11.4416 -0.0234375 11.6604 -0.0234375C11.8832 2.99427 11.0239 5.6505 9.08228 7.94531C7.4094 6.3037 5.75317 4.64745 4.11353 2.97656C6.08518 1.24899 8.38206 0.24899 11.0042 -0.0234375Z" fill="#FEB649"/>
<path opacity="0.999" fill-rule="evenodd" clip-rule="evenodd" d="M11.6604 -0.0234375C12.1292 -0.0234375 12.5979 -0.0234375 13.0667 -0.0234375C13.2938 3.39205 12.2938 6.38423 10.0667 8.95312C10.7314 9.62564 11.4032 10.2897 12.0823 10.9453C14.7551 8.30372 17.4114 5.64745 20.051 2.97656C20.2385 3.13281 20.4104 3.30469 20.5667 3.49219C14.8973 9.13027 9.24104 14.7865 3.5979 20.4609C3.4104 20.3047 3.23852 20.1328 3.08228 19.9453C5.75317 17.3057 8.40943 14.6494 11.051 11.9766C10.3954 11.2975 9.73135 10.6257 9.05884 9.96094C6.48967 12.1881 3.49747 13.1881 0.0822754 12.9609C0.0822754 12.4922 0.0822754 12.0234 0.0822754 11.5547C3.10377 11.7818 5.76001 10.9224 8.05103 8.97656C6.40942 7.30369 4.75317 5.64745 3.08228 4.00781C3.4104 3.64844 3.75415 3.30469 4.11353 2.97656C5.75317 4.64745 7.4094 6.3037 9.08228 7.94531C11.0239 5.6505 11.8832 2.99427 11.6604 -0.0234375Z" fill="#644C8D"/>
<path opacity="0.997" fill-rule="evenodd" clip-rule="evenodd" d="M13.0667 -0.0234375C13.0979 -0.0234375 13.1291 -0.0234375 13.1604 -0.0234375C15.7824 0.248928 18.0793 1.24893 20.051 2.97656C17.4114 5.64745 14.7551 8.30372 12.0823 10.9453C11.4032 10.2897 10.7314 9.62564 10.0667 8.95312C12.2938 6.38423 13.2938 3.39205 13.0667 -0.0234375Z" fill="#FEB649"/>
<path fill-rule="evenodd" clip-rule="evenodd" d="M20.5667 3.49219C20.7385 3.63281 20.8948 3.78906 21.0354 3.96094C21.0415 3.99557 21.0337 4.02683 21.012 4.05469C18.3707 6.68813 15.7379 9.32878 13.1135 11.9766C13.7691 12.6556 14.4332 13.3275 15.1057 13.9922C17.669 11.7445 20.6611 10.7445 24.0823 10.9922C24.0823 11.4609 24.0823 11.9297 24.0823 12.3984C21.0559 12.1699 18.3997 13.0371 16.1135 15C17.7816 16.6446 19.4222 18.3086 21.0354 19.9922C20.7385 20.3203 20.426 20.6328 20.0979 20.9297C18.4143 19.3165 16.7503 17.6759 15.1057 16.0078C13.1384 18.2927 12.2712 20.949 12.5042 23.9766C12.0354 23.9766 11.5667 23.9766 11.0979 23.9766C10.8503 20.5552 11.8503 17.563 14.0979 15C13.4332 14.3275 12.7613 13.6634 12.0823 13.0078C9.43449 15.6322 6.79384 18.265 4.1604 20.9062C4.13254 20.928 4.10129 20.9358 4.06665 20.9297C3.89477 20.7891 3.73853 20.6328 3.5979 20.4609C9.24104 14.7865 14.8973 9.13027 20.5667 3.49219Z" fill="#4A3175"/>
<path fill-rule="evenodd" clip-rule="evenodd" d="M21.0354 3.96094C22.7903 5.94019 23.8059 8.25272 24.0823 10.8984C24.0823 10.9297 24.0823 10.9609 24.0823 10.9922C20.6612 10.7445 17.669 11.7445 15.1057 13.9922C14.4332 13.3275 13.7691 12.6556 13.1135 11.9766C15.7379 9.32878 18.3707 6.68813 21.012 4.05469C21.0337 4.02683 21.0415 3.99557 21.0354 3.96094Z" fill="#EC8D56"/>
<path opacity="0.996" fill-rule="evenodd" clip-rule="evenodd" d="M3.08228 4.00781C4.75317 5.64745 6.40942 7.30369 8.05103 8.97656C5.76001 10.9224 3.10377 11.7818 0.0822754 11.5547C0.0822754 11.3359 0.0822754 11.1172 0.0822754 10.8984C0.354641 8.27644 1.35464 5.97956 3.08228 4.00781Z" fill="#FEB649"/>
<path opacity="0.997" fill-rule="evenodd" clip-rule="evenodd" d="M3.08228 19.9453C1.35464 17.9736 0.354641 15.6767 0.0822754 13.0547C0.0822754 13.0234 0.0822754 12.9922 0.0822754 12.9609C3.49747 13.1881 6.48967 12.1881 9.05884 9.96094C9.73135 10.6257 10.3954 11.2975 11.051 11.9766C8.40943 14.6494 5.75317 17.3057 3.08228 19.9453Z" fill="#FEB649"/>
<path fill-rule="evenodd" clip-rule="evenodd" d="M24.0823 12.3984C24.0823 12.6172 24.0823 12.8359 24.0823 13.0547C23.8059 15.7004 22.7903 18.0129 21.0354 19.9922C19.4222 18.3086 17.7816 16.6446 16.1135 15C18.3997 13.0371 21.0559 12.1699 24.0823 12.3984Z" fill="#EC8D56"/>
<path fill-rule="evenodd" clip-rule="evenodd" d="M11.0979 23.9766C11.0823 23.9766 11.0666 23.9766 11.051 23.9766C8.38604 23.714 6.0579 22.6983 4.06665 20.9297C4.10129 20.9358 4.13254 20.928 4.1604 20.9062C6.79384 18.265 9.43449 15.6322 12.0823 13.0078C12.7613 13.6634 13.4332 14.3275 14.0979 15C11.8503 17.563 10.8503 20.5552 11.0979 23.9766Z" fill="#EC8D56"/>
<path fill-rule="evenodd" clip-rule="evenodd" d="M20.0979 20.9297C18.1066 22.6983 15.7785 23.714 13.1135 23.9766C12.9104 23.9766 12.7073 23.9766 12.5041 23.9766C12.2712 20.949 13.1384 18.2927 15.1057 16.0078C16.7503 17.6759 18.4143 19.3165 20.0979 20.9297Z" fill="#EC8D56"/>
</g>
<defs>
<clipPath id="clip0_4474_5098">
<rect width="24" height="24" fill="white" transform="translate(0.105713)"/>
</clipPath>
</defs>
</svg>
