<svg width="25" height="24" viewBox="0 0 25 24" fill="none" xmlns="http://www.w3.org/2000/svg">
<g clip-path="url(#clip0_4474_5099)">
<path opacity="0.997" fill-rule="evenodd" clip-rule="evenodd" d="M10.8635 -0.0234375C11.2698 -0.0234375 11.676 -0.0234375 12.0822 -0.0234375C12.0822 4.8203 12.0822 9.66408 12.0822 14.5078C12.0822 14.5234 12.0822 14.5391 12.0822 14.5547C11.5889 15.0826 10.9795 15.3873 10.2541 15.4688C9.69186 15.4922 9.12936 15.5 8.56662 15.4922C8.56662 16.8984 8.56662 18.3047 8.56662 19.7109C8.09787 19.7109 7.62912 19.7109 7.16037 19.7109C6.26478 19.0268 5.37415 18.3315 4.4885 17.625C2.94302 16.1693 2.54458 14.4427 3.29318 12.4453C3.76059 11.4232 4.50277 10.6732 5.51975 10.1953C4.53666 9.1552 4.15385 7.9208 4.37131 6.49219C4.82234 3.52579 6.43953 1.48673 9.22287 0.375C9.76643 0.202476 10.3133 0.0696637 10.8635 -0.0234375Z" fill="#FF8855"/>
<path fill-rule="evenodd" clip-rule="evenodd" d="M12.0823 -0.0234375C12.9416 -0.0234375 13.801 -0.0234375 14.6604 -0.0234375C15.7527 0.134973 16.784 0.486534 17.7542 1.03125C17.9954 1.18687 18.2142 1.36655 18.4104 1.57031C18.4182 3.80474 18.4104 6.03909 18.387 8.27344C17.967 10.7247 16.5373 12.1856 14.0979 12.6562C13.6607 12.6797 13.2232 12.6875 12.7854 12.6797C12.7973 13.3892 12.5629 13.9986 12.0823 14.5078C12.0823 9.66408 12.0823 4.8203 12.0823 -0.0234375Z" fill="#FE4949"/>
<path fill-rule="evenodd" clip-rule="evenodd" d="M18.4104 1.57031C20.016 2.81317 20.9457 4.4538 21.1995 6.49219C21.2424 8.19623 21.2268 9.89934 21.1526 11.6016C20.9605 13.2715 20.5386 14.8809 19.887 16.4297C19.4164 17.538 18.9242 18.6318 18.4104 19.7109C16.6448 19.7109 14.8792 19.7109 13.1135 19.7109C12.7698 19.7109 12.426 19.7109 12.0823 19.7109C12.0823 17.9922 12.0823 16.2735 12.0823 14.5547C12.0823 14.5391 12.0823 14.5234 12.0823 14.5078C12.5629 13.9986 12.7973 13.3892 12.7854 12.6797C13.2232 12.6875 13.6607 12.6797 14.0979 12.6562C16.5373 12.1856 17.967 10.7247 18.387 8.27344C18.4104 6.03909 18.4182 3.80474 18.4104 1.57031Z" fill="#CC2E43"/>
<path fill-rule="evenodd" clip-rule="evenodd" d="M12.0823 14.5547C12.0823 16.2735 12.0823 17.9922 12.0823 19.7109C10.9104 19.7109 9.73853 19.7109 8.56665 19.7109C8.56665 18.3047 8.56665 16.8984 8.56665 15.4922C9.12938 15.5 9.69188 15.4922 10.2542 15.4688C10.9795 15.3873 11.5889 15.0826 12.0823 14.5547Z" fill="#FF4949"/>
<path fill-rule="evenodd" clip-rule="evenodd" d="M7.1604 19.7109C7.62915 19.7109 8.0979 19.7109 8.56665 19.7109C9.73853 19.7109 10.9104 19.7109 12.0823 19.7109C12.426 19.7109 12.7698 19.7109 13.1135 19.7109C11.7996 20.1438 11.2449 21.0501 11.4495 22.4297C11.7286 23.248 12.2833 23.7637 13.1135 23.9766C11.1292 23.9766 9.14476 23.9766 7.1604 23.9766C7.1604 22.5547 7.1604 21.1328 7.1604 19.7109Z" fill="#463F3F"/>
<path fill-rule="evenodd" clip-rule="evenodd" d="M13.1135 19.7109C14.8792 19.7109 16.6448 19.7109 18.4104 19.7109C18.4104 21.1328 18.4104 22.5547 18.4104 23.9766C16.6448 23.9766 14.8792 23.9766 13.1135 23.9766C12.2833 23.7637 11.7286 23.248 11.4495 22.4297C11.2449 21.0501 11.7996 20.1438 13.1135 19.7109Z" fill="#5A5454"/>
</g>
<defs>
<clipPath id="clip0_4474_5099">
<rect width="24" height="24" fill="white" transform="translate(0.105713)"/>
</clipPath>
</defs>
</svg>
