<svg width="25" height="24" viewBox="0 0 25 24" fill="none" xmlns="http://www.w3.org/2000/svg">
<g clip-path="url(#clip0_4474_5114)">
<path opacity="0.998" fill-rule="evenodd" clip-rule="evenodd" d="M11.051 -0.0234375C11.7385 -0.0234375 12.426 -0.0234375 13.1135 -0.0234375C14.7337 0.152028 16.265 0.62078 17.7073 1.38281C16.8176 2.2412 15.9426 3.1162 15.0823 4.00781C15.3959 4.37664 15.7396 4.69697 16.1135 4.96875C17.0605 4.02962 17.998 3.08431 18.926 2.13281C19.3292 2.39543 19.7042 2.6923 20.051 3.02344C14.3948 8.64844 8.75415 14.289 3.12915 19.9453C2.79801 19.5984 2.50114 19.2234 2.23853 18.8203C3.19002 17.8923 4.13534 16.9548 5.07446 16.0078C4.80268 15.6339 4.48235 15.2902 4.11353 14.9766C3.22192 15.8369 2.34691 16.7119 1.48853 17.6016C0.726493 16.1593 0.257741 14.628 0.0822754 13.0078C0.0822754 12.3203 0.0822754 11.6328 0.0822754 10.9453C0.750516 6.1478 3.29739 2.765 7.7229 0.796875C8.80384 0.382092 9.91318 0.108654 11.051 -0.0234375Z" fill="#FF6325"/>
<path opacity="0.996" fill-rule="evenodd" clip-rule="evenodd" d="M17.7073 1.38281C18.1466 1.58646 18.5529 1.83646 18.926 2.13281C17.998 3.08431 17.0605 4.02962 16.1135 4.96875C15.7396 4.69697 15.3959 4.37664 15.0823 4.00781C15.9426 3.1162 16.8176 2.2412 17.7073 1.38281Z" fill="#FFD82C"/>
<path opacity="0.999" fill-rule="evenodd" clip-rule="evenodd" d="M20.051 3.02344C20.2241 3.18102 20.396 3.33727 20.5667 3.49219C14.9589 9.13903 9.32607 14.764 3.66821 20.3672C3.64558 20.4116 3.63777 20.4585 3.64478 20.5078C3.47423 20.3215 3.30235 20.134 3.12915 19.9453C8.75415 14.289 14.3948 8.64844 20.051 3.02344Z" fill="#FFD72C"/>
<path opacity="0.998" fill-rule="evenodd" clip-rule="evenodd" d="M20.5666 3.49219C20.7216 3.66285 20.8778 3.83473 21.0354 4.00781C15.4104 9.66408 9.76977 15.3047 4.11351 20.9297C3.95605 20.7877 3.7998 20.6471 3.64476 20.5078C3.63775 20.4585 3.64556 20.4116 3.6682 20.3672C9.32605 14.764 14.9589 9.13903 20.5666 3.49219Z" fill="#FDBD00"/>
<path opacity="0.997" fill-rule="evenodd" clip-rule="evenodd" d="M21.0354 4.00781C21.3665 4.3547 21.6634 4.72969 21.926 5.13281C20.9745 6.06084 20.0292 6.99834 19.0901 7.94531C19.3619 8.31923 19.6822 8.66297 20.051 8.97656C20.9426 8.11622 21.8176 7.2412 22.676 6.35156C23.4381 7.79386 23.9068 9.32513 24.0823 10.9453C24.0823 11.6328 24.0823 12.3203 24.0823 13.0078C23.482 17.3807 21.2476 20.6229 17.3792 22.7344C16.0227 23.3925 14.6008 23.8065 13.1135 23.9766C12.4417 23.9766 11.7698 23.9766 11.0979 23.9766C9.47204 23.82 7.94078 23.3513 6.50415 22.5703C7.36253 21.6963 8.22188 20.8213 9.08228 19.9453C8.76868 19.5765 8.42495 19.2562 8.05103 18.9844C7.10406 19.9235 6.16656 20.8688 5.23853 21.8203C4.8354 21.5577 4.46041 21.2608 4.11353 20.9297C9.76979 15.3047 15.4104 9.66408 21.0354 4.00781Z" fill="#FF3837"/>
<path fill-rule="evenodd" clip-rule="evenodd" d="M14.0042 5.03904C14.0535 5.03205 14.1003 5.03983 14.1448 5.06247C14.4594 5.36135 14.7563 5.67386 15.0354 5.99997C14.5758 6.51429 14.0914 7.00647 13.5823 7.47654C13.2385 7.16402 12.9104 6.8359 12.5979 6.49216C13.0676 6.00682 13.5364 5.52246 14.0042 5.03904Z" fill="#FFD72C"/>
<path opacity="0.994" fill-rule="evenodd" clip-rule="evenodd" d="M21.926 5.13281C22.2224 5.50598 22.4724 5.91225 22.676 6.35156C21.8177 7.2412 20.9426 8.11622 20.051 8.97656C19.6822 8.66297 19.3619 8.31923 19.0901 7.94531C20.0292 6.99834 20.9745 6.06084 21.926 5.13281Z" fill="#FDBD00"/>
<path fill-rule="evenodd" clip-rule="evenodd" d="M11.5198 7.52344C11.8912 7.81664 12.235 8.14477 12.551 8.50781C12.0823 9.00783 11.5979 9.49219 11.0979 9.96094C10.7542 9.64842 10.426 9.3203 10.1135 8.97656C10.5833 8.49122 11.052 8.00686 11.5198 7.52344Z" fill="#FFD82C"/>
<path fill-rule="evenodd" clip-rule="evenodd" d="M17.9885 9.02341C18.0378 9.01643 18.0847 9.02421 18.1292 9.04685C18.4437 9.34572 18.7406 9.65824 19.0198 9.98435C18.5602 10.4987 18.0758 10.9908 17.5667 11.4609C17.2229 11.1484 16.8948 10.8203 16.5823 10.4765C17.052 9.99119 17.5208 9.50683 17.9885 9.02341Z" fill="#FDBC01"/>
<path fill-rule="evenodd" clip-rule="evenodd" d="M9.0354 10.0078C9.40684 10.301 9.75062 10.6291 10.0667 10.9922C9.5979 11.4922 9.11354 11.9766 8.61353 12.4453C8.26979 12.1328 7.94167 11.8047 7.62915 11.4609C8.09888 10.9756 8.56763 10.4912 9.0354 10.0078Z" fill="#FFD82C"/>
<path fill-rule="evenodd" clip-rule="evenodd" d="M15.5042 11.5078C15.8756 11.801 16.2194 12.1291 16.5354 12.4922C16.0667 12.9922 15.5823 13.4766 15.0823 13.9453C14.7385 13.6328 14.4104 13.3047 14.0979 12.9609C14.5676 12.4756 15.0364 11.9912 15.5042 11.5078Z" fill="#FDBD00"/>
<path fill-rule="evenodd" clip-rule="evenodd" d="M6.55103 12.4922C6.92246 12.7854 7.26624 13.1135 7.58228 13.4766C7.11221 13.9857 6.62003 14.4701 6.10571 14.9297C5.75415 14.6406 5.43385 14.3203 5.14478 13.9688C5.60537 13.4691 6.07412 12.9769 6.55103 12.4922Z" fill="#FFD72C"/>
<path fill-rule="evenodd" clip-rule="evenodd" d="M13.0198 13.9922C13.3912 14.2854 13.735 14.6135 14.051 14.9766C13.5823 15.4766 13.0979 15.9609 12.5979 16.4297C12.2542 16.1172 11.926 15.789 11.6135 15.4453C12.0833 14.96 12.552 14.4756 13.0198 13.9922Z" fill="#FDBD00"/>
<path opacity="0.997" fill-rule="evenodd" clip-rule="evenodd" d="M2.23853 18.8203C1.94218 18.4471 1.69217 18.0409 1.48853 17.6016C2.34691 16.7119 3.22192 15.8369 4.11353 14.9766C4.48235 15.2902 4.80268 15.6339 5.07446 16.0078C4.13534 16.9548 3.19002 17.8923 2.23853 18.8203Z" fill="#FFD82C"/>
<path fill-rule="evenodd" clip-rule="evenodd" d="M10.5354 16.4766C10.9068 16.7698 11.2506 17.0979 11.5667 17.4609C11.0966 17.97 10.6044 18.4545 10.0901 18.9141C9.74054 18.6114 9.40459 18.2911 9.08228 17.9531C9.5761 17.4671 10.0605 16.9749 10.5354 16.4766Z" fill="#FDBC01"/>
<path opacity="0.994" fill-rule="evenodd" clip-rule="evenodd" d="M6.50415 22.5703C6.04323 22.3792 5.62135 22.1292 5.23853 21.8203C6.16656 20.8688 7.10406 19.9235 8.05103 18.9844C8.42495 19.2562 8.76868 19.5765 9.08228 19.9453C8.22188 20.8213 7.36253 21.6963 6.50415 22.5703Z" fill="#FDBD00"/>
</g>
<defs>
<clipPath id="clip0_4474_5114">
<rect width="24" height="24" fill="white" transform="translate(0.105713)"/>
</clipPath>
</defs>
</svg>
