<svg width="25" height="24" viewBox="0 0 25 24" fill="none" xmlns="http://www.w3.org/2000/svg">
<g clip-path="url(#clip0_4474_5113)">
<path opacity="0.996" fill-rule="evenodd" clip-rule="evenodd" d="M19.5823 -0.0234375C19.6135 -0.0234375 19.6448 -0.0234375 19.676 -0.0234375C19.881 1.27084 20.0685 2.56771 20.2385 3.86719C21.5259 4.0245 22.8072 4.212 24.0823 4.42969C24.0823 4.47656 24.0823 4.52344 24.0823 4.57031C23.1448 5.4922 22.2073 6.41405 21.2698 7.33594C20.8948 7.67967 20.5354 8.03906 20.1917 8.41406C19.8261 8.75616 19.4667 9.10772 19.1135 9.46875C18.7676 9.46059 18.4239 9.4215 18.0823 9.35156C17.4663 9.22542 16.8413 9.11606 16.2073 9.02344C16.176 9.00783 16.1448 8.99217 16.1135 8.97656C15.8291 8.94708 15.5478 8.9002 15.2698 8.83594C15.2591 8.54822 15.2122 8.26697 15.1292 7.99219C15.1292 7.97658 15.1292 7.96092 15.1292 7.94531C15.0249 7.29511 14.8999 6.65452 14.7542 6.02344C14.6992 5.67966 14.6601 5.33588 14.637 4.99219C14.998 4.63898 15.3496 4.27961 15.6917 3.91406C16.0667 3.57031 16.426 3.21094 16.7698 2.83594C17.7073 1.88281 18.6448 0.929686 19.5823 -0.0234375Z" fill="#183158"/>
<path opacity="0.985" fill-rule="evenodd" clip-rule="evenodd" d="M12.0354 1.52341C11.8166 1.52341 11.5979 1.52341 11.3791 1.52341C11.3791 1.97653 11.3791 2.42966 11.3791 2.88278C11.1667 2.86787 10.9635 2.88349 10.7697 2.92966C6.65154 3.34373 3.78436 5.45313 2.16818 9.25778C1.15086 12.1749 1.38524 14.9874 2.87131 17.6953C4.83012 20.8277 7.66606 22.4527 11.3791 22.5703C11.3791 23.039 11.3791 23.5078 11.3791 23.9765C11.0354 23.9765 10.6916 23.9765 10.3479 23.9765C6.49137 23.5062 3.56168 21.6156 1.55881 18.3047C0.0476417 15.501 -0.280483 12.5635 0.574434 9.49216C1.7134 6.025 3.97121 3.59531 7.34787 2.2031C8.86906 1.63429 10.4315 1.40772 12.0354 1.52341Z" fill="#FFF0F0"/>
<path fill-rule="evenodd" clip-rule="evenodd" d="M12.0354 1.52344C13.7151 1.59901 15.2932 2.03651 16.7698 2.83594C16.426 3.21094 16.0667 3.57031 15.6917 3.91406C14.3304 3.26128 12.8928 2.93316 11.3792 2.92969C11.176 2.92969 10.9729 2.92969 10.7698 2.92969C10.9636 2.88352 11.1667 2.8679 11.3792 2.88281C11.3792 2.42969 11.3792 1.97656 11.3792 1.52344C11.5979 1.52344 11.8166 1.52344 12.0354 1.52344Z" fill="#EBDDD8"/>
<path fill-rule="evenodd" clip-rule="evenodd" d="M10.7698 2.92969C10.9729 2.92969 11.176 2.92969 11.3792 2.92969C11.3792 3.69531 11.3792 4.46094 11.3792 5.22656C8.17666 5.35472 5.87196 6.85472 4.4651 9.72656C3.51902 12.0723 3.65965 14.3535 4.88697 16.5703C6.25708 18.7586 8.23366 19.9773 10.8167 20.2266C10.9947 20.2726 11.1822 20.2883 11.3792 20.2734C11.3792 21.039 11.3792 21.8047 11.3792 22.5703C7.6661 22.4527 4.83016 20.8277 2.87135 17.6953C1.38527 14.9874 1.1509 12.1749 2.16822 9.25781C3.7844 5.45316 6.65158 3.34376 10.7698 2.92969Z" fill="#FF4F1A"/>
<path fill-rule="evenodd" clip-rule="evenodd" d="M11.3792 2.92969C12.8928 2.93316 14.3304 3.26128 15.6917 3.91406C15.3496 4.27961 14.998 4.63898 14.637 4.99219C14.6601 5.33588 14.6992 5.67966 14.7542 6.02344C13.6934 5.49262 12.5684 5.22703 11.3792 5.22656C11.3792 4.46094 11.3792 3.69531 11.3792 2.92969Z" fill="#E50120"/>
<path fill-rule="evenodd" clip-rule="evenodd" d="M11.3791 5.22656C11.3791 5.6797 11.3791 6.1328 11.3791 6.58594C11.3186 6.57483 11.2718 6.59044 11.2385 6.63281C8.71749 6.78712 6.89715 7.99027 5.77759 10.2422C4.96951 12.2315 5.11013 14.1534 6.19946 16.0078C7.31199 17.6699 8.8667 18.6074 10.8635 18.8203C11.0258 18.8663 11.1977 18.882 11.3791 18.8672C11.3791 19.3203 11.3791 19.7734 11.3791 20.2266C11.1916 20.2266 11.0041 20.2266 10.8166 20.2266C8.23365 19.9773 6.25707 18.7586 4.88696 16.5703C3.65964 14.3535 3.51901 12.0723 4.46509 9.72656C5.87194 6.85472 8.17665 5.35472 11.3791 5.22656Z" fill="#FFEFEE"/>
<path fill-rule="evenodd" clip-rule="evenodd" d="M11.3792 5.22656C12.5684 5.22703 13.6934 5.49262 14.7542 6.02344C14.8999 6.65452 15.0249 7.29511 15.1292 7.94531C14.0319 7.08989 12.7819 6.65241 11.3792 6.63281C11.3323 6.63281 11.2854 6.63281 11.2385 6.63281C11.2718 6.59044 11.3186 6.57483 11.3792 6.58594C11.3792 6.1328 11.3792 5.6797 11.3792 5.22656Z" fill="#EADBD7"/>
<path fill-rule="evenodd" clip-rule="evenodd" d="M11.2385 6.63281C11.2854 6.63281 11.3323 6.63281 11.3791 6.63281C11.3791 7.47656 11.3791 8.32031 11.3791 9.16406C9.94931 9.21075 8.87901 9.85139 8.1682 11.0859C7.53187 12.4823 7.6725 13.7948 8.59008 15.0234C9.19922 15.746 9.97265 16.1678 10.9104 16.2891C11.0569 16.335 11.2131 16.3506 11.3791 16.3359C11.3791 17.1641 11.3791 17.9922 11.3791 18.8203C11.2072 18.8203 11.0354 18.8203 10.8635 18.8203C8.86669 18.6074 7.31198 17.6699 6.19945 16.0078C5.11012 14.1534 4.9695 12.2315 5.77758 10.2422C6.89714 7.99027 8.71748 6.78713 11.2385 6.63281Z" fill="#FF4F1A"/>
<path fill-rule="evenodd" clip-rule="evenodd" d="M11.3792 6.63281C12.7819 6.65241 14.0319 7.08989 15.1292 7.94531C15.1292 7.96092 15.1292 7.97658 15.1292 7.99219C14.5354 8.5703 13.9417 9.14845 13.3479 9.72656C12.7505 9.34003 12.0943 9.15253 11.3792 9.16406C11.3792 8.32031 11.3792 7.47656 11.3792 6.63281Z" fill="#E60120"/>
<path fill-rule="evenodd" clip-rule="evenodd" d="M21.2698 7.33594C22.9118 10.5629 23.0602 13.8597 21.7151 17.2266C19.8232 21.173 16.706 23.423 12.3635 23.9766C12.0354 23.9766 11.7073 23.9766 11.3792 23.9766C11.3792 23.5078 11.3792 23.0391 11.3792 22.5703C15.5416 22.3851 18.5337 20.432 20.3557 16.7109C21.4995 13.9185 21.4449 11.1528 20.1917 8.41406C20.5354 8.03906 20.8948 7.67967 21.2698 7.33594Z" fill="#EBDDD8"/>
<path fill-rule="evenodd" clip-rule="evenodd" d="M15.1292 7.99219C15.2122 8.26697 15.2591 8.54822 15.2698 8.83594C15.5478 8.9002 15.8291 8.94708 16.1135 8.97656C15.5354 9.57033 14.9573 10.164 14.3792 10.7578C14.0198 11.0859 13.676 11.4297 13.3479 11.7891C12.873 12.2405 12.4042 12.7014 11.9417 13.1719C11.8948 13.2031 11.8479 13.2031 11.801 13.1719C11.6665 13.0295 11.5259 12.8967 11.3792 12.7734C11.2168 12.5876 11.0449 12.4079 10.8635 12.2344C11.0449 12.0608 11.2168 11.8811 11.3792 11.6953C11.7073 11.3985 12.0198 11.0859 12.3167 10.7578C12.676 10.4297 13.0198 10.086 13.3479 9.72656C13.9417 9.14845 14.5354 8.5703 15.1292 7.99219Z" fill="#FDE48F"/>
<path fill-rule="evenodd" clip-rule="evenodd" d="M20.1916 8.41406C21.4449 11.1528 21.4995 13.9185 20.3557 16.7109C18.5337 20.432 15.5416 22.3851 11.3792 22.5703C11.3792 21.8047 11.3792 21.039 11.3792 20.2734C14.1762 20.1762 16.3246 18.9575 17.8245 16.6172C19.0176 14.502 19.2051 12.2988 18.387 10.0078C18.2976 9.7822 18.196 9.56344 18.0823 9.35156C18.4239 9.4215 18.7676 9.46059 19.1135 9.46875C19.4667 9.10772 19.8261 8.75616 20.1916 8.41406Z" fill="#E60220"/>
<path fill-rule="evenodd" clip-rule="evenodd" d="M16.1135 8.97656C16.1448 8.99217 16.176 9.00783 16.2073 9.02344C17.5886 10.9629 17.8308 13.041 16.9338 15.2578C15.8 17.5483 13.9485 18.7358 11.3792 18.8203C11.3792 17.9922 11.3792 17.1641 11.3792 16.3359C13.2881 16.1977 14.4678 15.1977 14.9182 13.3359C15.0568 12.4064 14.8771 11.547 14.3792 10.7578C14.9573 10.164 15.5354 9.57033 16.1135 8.97656Z" fill="#E60120"/>
<path fill-rule="evenodd" clip-rule="evenodd" d="M16.2073 9.02344C16.8413 9.11606 17.4663 9.22542 18.0823 9.35156C18.196 9.56344 18.2976 9.7822 18.387 10.0078C19.2051 12.2988 19.0176 14.502 17.8245 16.6172C16.3247 18.9575 14.1762 20.1762 11.3792 20.2734C11.1822 20.2883 10.9947 20.2726 10.8167 20.2266C11.0042 20.2266 11.1917 20.2266 11.3792 20.2266C11.3792 19.7734 11.3792 19.3203 11.3792 18.8672C11.1977 18.882 11.0258 18.8663 10.8635 18.8203C11.0354 18.8203 11.2073 18.8203 11.3792 18.8203C13.9485 18.7358 15.8 17.5483 16.9338 15.2578C17.8308 13.041 17.5886 10.9629 16.2073 9.02344Z" fill="#EBDCD7"/>
<path fill-rule="evenodd" clip-rule="evenodd" d="M11.3791 9.16406C11.3791 9.6172 11.3791 10.0703 11.3791 10.5234C11.3186 10.5123 11.2718 10.5279 11.2385 10.5703C10.3485 10.6602 9.71569 11.1133 9.34009 11.9297C8.99082 13.101 9.32677 14.0151 10.3479 14.6719C10.5812 14.8044 10.8312 14.8747 11.0979 14.8828C11.1806 14.9279 11.2744 14.9435 11.3791 14.9297C11.3791 15.3828 11.3791 15.8359 11.3791 16.2891C11.2229 16.2891 11.0666 16.2891 10.9104 16.2891C9.97266 16.1678 9.19923 15.746 8.59009 15.0234C7.67251 13.7948 7.53188 12.4822 8.16821 11.0859C8.87902 9.85139 9.94932 9.21075 11.3791 9.16406Z" fill="#FFEFEF"/>
<path fill-rule="evenodd" clip-rule="evenodd" d="M11.3792 9.16408C12.0943 9.15254 12.7505 9.34004 13.3479 9.72658C13.0198 10.086 12.676 10.4297 12.3167 10.7578C12.013 10.6533 11.7005 10.5909 11.3792 10.5703C11.3323 10.5703 11.2854 10.5703 11.2385 10.5703C11.2718 10.528 11.3186 10.5123 11.3792 10.5235C11.3792 10.0703 11.3792 9.61722 11.3792 9.16408Z" fill="#EBDCD8"/>
<path fill-rule="evenodd" clip-rule="evenodd" d="M11.2385 10.5703C11.2854 10.5703 11.3323 10.5703 11.3791 10.5703C11.3791 10.9453 11.3791 11.3203 11.3791 11.6953C11.2168 11.8811 11.0449 12.0608 10.8635 12.2344C11.0449 12.4079 11.2168 12.5876 11.3791 12.7734C11.3791 13.4766 11.3791 14.1797 11.3791 14.8828C11.2854 14.8828 11.1916 14.8828 11.0979 14.8828C10.8312 14.8747 10.5812 14.8044 10.3479 14.6719C9.32675 14.0151 8.9908 13.101 9.34006 11.9297C9.71567 11.1133 10.3485 10.6602 11.2385 10.5703Z" fill="#FE4F1A"/>
<path fill-rule="evenodd" clip-rule="evenodd" d="M11.3792 10.5703C11.7005 10.5908 12.013 10.6533 12.3167 10.7578C12.0198 11.0859 11.7073 11.3985 11.3792 11.6953C11.3792 11.3203 11.3792 10.9453 11.3792 10.5703Z" fill="#E60321"/>
<path fill-rule="evenodd" clip-rule="evenodd" d="M14.3792 10.7578C14.8771 11.547 15.0568 12.4064 14.9182 13.3359C14.4678 15.1977 13.2881 16.1977 11.3792 16.3359C11.2131 16.3506 11.0569 16.335 10.9104 16.2891C11.0666 16.2891 11.2229 16.2891 11.3792 16.2891C11.3792 15.8359 11.3792 15.3828 11.3792 14.9297C12.7097 14.7788 13.4284 14.0367 13.5354 12.7031C13.5238 12.3872 13.4613 12.0825 13.3479 11.7891C13.676 11.4297 14.0198 11.0859 14.3792 10.7578Z" fill="#EBDCD7"/>
<path fill-rule="evenodd" clip-rule="evenodd" d="M13.3479 11.7891C13.4613 12.0825 13.5238 12.3872 13.5354 12.7031C13.4284 14.0367 12.7097 14.7788 11.3792 14.9297C11.2744 14.9435 11.1806 14.9279 11.0979 14.8828C11.1917 14.8828 11.2854 14.8828 11.3792 14.8828C11.3792 14.1797 11.3792 13.4766 11.3792 12.7734C11.5259 12.8967 11.6665 13.0295 11.801 13.1719C11.8479 13.2031 11.8948 13.2031 11.9417 13.1719C12.4042 12.7014 12.873 12.2405 13.3479 11.7891Z" fill="#E60521"/>
</g>
<defs>
<clipPath id="clip0_4474_5113">
<rect width="24" height="24" fill="white" transform="translate(0.105713)"/>
</clipPath>
</defs>
</svg>
