<svg width="25" height="24" viewBox="0 0 25 24" fill="none" xmlns="http://www.w3.org/2000/svg">
<g clip-path="url(#clip0_4474_5112)">
<path opacity="0.992" fill-rule="evenodd" clip-rule="evenodd" d="M11.0979 -0.0234375C11.426 -0.0234375 11.7541 -0.0234375 12.0823 -0.0234375C12.0823 0.445312 12.0823 0.914062 12.0823 1.38281C9.28449 1.45396 6.97201 2.53209 5.14477 4.61719C3.35056 6.86006 2.66306 9.40692 3.08227 12.2578C2.83775 12.9128 2.5565 13.5534 2.23852 14.1797C1.99028 13.6155 1.76372 13.0373 1.55884 12.4453C1.16776 9.21131 1.96464 6.32067 3.94946 3.77344C5.83379 1.57726 8.21663 0.311636 11.0979 -0.0234375Z" fill="#575E63"/>
<path fill-rule="evenodd" clip-rule="evenodd" d="M12.0823 -0.0234375C12.4104 -0.0234375 12.7385 -0.0234375 13.0667 -0.0234375C16.5039 0.401599 19.1679 2.05785 21.0588 4.94531C22.4194 7.26342 22.935 9.76345 22.6057 12.4453C22.4008 13.0373 22.1743 13.6155 21.926 14.1797C21.6055 13.5545 21.3243 12.9139 21.0823 12.2578C21.4647 9.78745 20.9725 7.50619 19.6057 5.41406C19.4012 5.13966 19.1902 4.87402 18.9729 4.61719C17.1703 2.52095 14.8734 1.44282 12.0823 1.38281C12.0823 0.914062 12.0823 0.445312 12.0823 -0.0234375Z" fill="#474F54"/>
<path opacity="0.993" fill-rule="evenodd" clip-rule="evenodd" d="M12.0823 1.38281C12.0823 2.33594 12.0823 3.28906 12.0823 4.24219C10.9283 4.24927 9.85013 4.53833 8.8479 5.10938C7.93993 5.87316 6.97117 5.96691 5.94165 5.39062C5.6822 5.1233 5.41656 4.86548 5.14478 4.61719C6.97201 2.53209 9.28449 1.45396 12.0823 1.38281Z" fill="#FE9000"/>
<path fill-rule="evenodd" clip-rule="evenodd" d="M12.0823 1.38281C14.8734 1.44282 17.1703 2.52095 18.9729 4.61719C18.6645 4.99598 18.3051 5.31628 17.8948 5.57812C16.9421 5.92186 16.0828 5.76562 15.3167 5.10938C14.3144 4.53833 13.2363 4.24927 12.0823 4.24219C12.0823 3.28906 12.0823 2.33594 12.0823 1.38281Z" fill="#FE641A"/>
<path opacity="0.991" fill-rule="evenodd" clip-rule="evenodd" d="M2.23853 14.1797C2.5565 13.5534 2.83775 12.9128 3.08228 12.2578C3.16507 12.1318 3.2432 11.999 3.31665 11.8594C3.95545 11.6126 4.59608 11.3704 5.23853 11.1328C6.00413 11.5 6.76979 11.8672 7.5354 12.2344C8.27706 14.1701 8.99579 16.1154 9.69165 18.0703C9.35307 18.8569 9.00151 19.6381 8.63696 20.4141C7.99023 20.7028 7.3262 20.9294 6.64478 21.0938C5.89478 20.75 5.14478 20.4062 4.39478 20.0625C3.64348 18.1133 2.92473 16.1523 2.23853 14.1797Z" fill="#FE9100"/>
<path opacity="0.993" fill-rule="evenodd" clip-rule="evenodd" d="M21.0823 12.2578C21.3243 12.9139 21.6055 13.5545 21.926 14.1797C21.2433 16.1502 20.5245 18.1033 19.7698 20.0391C19.1318 20.3112 18.5068 20.6081 17.8948 20.9297C17.7434 21.0011 17.5871 21.0636 17.426 21.1172C16.7962 20.9038 16.1712 20.6773 15.551 20.4375C15.1727 19.6573 14.8133 18.8682 14.4729 18.0703C15.1688 16.1154 15.8875 14.1701 16.6292 12.2344C17.3948 11.8672 18.1604 11.5 18.926 11.1328C19.5685 11.3704 20.2091 11.6126 20.8479 11.8594C20.9214 11.999 20.9995 12.1318 21.0823 12.2578Z" fill="#FE631A"/>
<path opacity="0.991" fill-rule="evenodd" clip-rule="evenodd" d="M19.7698 20.0391C19.4446 21.0381 19.0773 22.0225 18.6682 22.9922C18.3402 23.5113 17.8793 23.8394 17.2854 23.9766C15.3167 23.9766 13.3479 23.9766 11.3792 23.9766C11.3792 23.5078 11.3792 23.0391 11.3792 22.5703C13.2872 22.5924 15.1935 22.569 17.0979 22.5C17.2132 22.4317 17.3148 22.3457 17.4026 22.2422C17.59 21.8127 17.7541 21.3751 17.8948 20.9297C18.5068 20.6081 19.1318 20.3112 19.7698 20.0391Z" fill="#474F53"/>
</g>
<defs>
<clipPath id="clip0_4474_5112">
<rect width="24" height="24" fill="white" transform="translate(0.105713)"/>
</clipPath>
</defs>
</svg>
