<svg width="25" height="24" viewBox="0 0 25 24" fill="none" xmlns="http://www.w3.org/2000/svg">
<g clip-path="url(#clip0_4474_5110)">
<path fill-rule="evenodd" clip-rule="evenodd" d="M9.2229 6.53904C8.85765 6.62642 8.49826 6.72017 8.14478 6.82029C8.11351 6.82029 8.08229 6.82029 8.05103 6.82029C8.03546 6.31292 7.96515 5.8129 7.84009 5.32029C7.8219 5.27679 7.79063 5.24553 7.74634 5.22654C7.64795 5.26343 7.54637 5.27904 7.44165 5.27342C7.65071 5.19078 7.86948 5.12046 8.0979 5.06248C8.29126 5.02245 8.47876 5.03811 8.6604 5.10936C8.73301 5.16626 8.78767 5.23657 8.82446 5.32029C8.96246 5.72646 9.09526 6.13273 9.2229 6.53904Z" fill="#E5B46B"/>
<path fill-rule="evenodd" clip-rule="evenodd" d="M8.05103 6.82031C7.86357 6.86719 7.67607 6.91406 7.48853 6.96094C7.08746 7.03392 6.69685 7.12767 6.31665 7.24219C6.15713 7.25864 6.00085 7.28991 5.8479 7.33594C5.69007 6.82912 5.59632 6.29789 5.56665 5.74219C6.18662 5.58717 6.8116 5.43094 7.44165 5.27344C7.54637 5.27906 7.64795 5.26345 7.74634 5.22656C7.79063 5.24555 7.8219 5.27681 7.84009 5.32031C7.96515 5.81292 8.03546 6.31294 8.05103 6.82031Z" fill="#F7C373"/>
<path opacity="0.998" fill-rule="evenodd" clip-rule="evenodd" d="M5.56665 5.74219C5.59632 6.29789 5.69007 6.82912 5.8479 7.33594C5.82531 7.37888 5.8097 7.42575 5.80103 7.47656C5.97723 8.64736 6.14907 9.81923 6.31665 10.9922C5.9304 11.08 5.53979 11.1425 5.14478 11.1797C5.03303 9.41423 4.92362 7.64859 4.81665 5.88281C5.05651 5.81302 5.30654 5.76614 5.56665 5.74219Z" fill="#675D66"/>
<path fill-rule="evenodd" clip-rule="evenodd" d="M4.81665 5.88281C4.92362 7.64859 5.03303 9.41423 5.14478 11.1797C5.14478 11.1953 5.14478 11.211 5.14478 11.2266C4.9104 11.2266 4.67603 11.2266 4.44165 11.2266C4.32706 9.47639 4.20205 7.72641 4.06665 5.97656C4.31474 5.93222 4.56474 5.90095 4.81665 5.88281Z" fill="#433F43"/>
<path opacity="0.997" fill-rule="evenodd" clip-rule="evenodd" d="M4.06665 5.97656C4.20205 7.72641 4.32706 9.47639 4.44165 11.2266C4.05268 11.2268 3.69331 11.133 3.36353 10.9453C3.31665 9.3203 3.26978 7.69533 3.2229 6.07031C3.49621 6.02742 3.77746 5.99616 4.06665 5.97656Z" fill="#675D66"/>
<path opacity="0.995" fill-rule="evenodd" clip-rule="evenodd" d="M2.4729 6.07029C2.53194 7.57104 2.59444 9.07104 2.6604 10.5703C2.32304 10.3303 2.01054 10.0569 1.7229 9.74998C1.60277 9.6994 1.47777 9.67596 1.3479 9.67967C1.34009 8.58579 1.3479 7.49206 1.37134 6.39842C1.44573 6.24579 1.56291 6.14421 1.7229 6.09373C1.97241 6.07034 2.22241 6.06251 2.4729 6.07029Z" fill="#675D66"/>
<path fill-rule="evenodd" clip-rule="evenodd" d="M2.4729 6.07031C2.7229 6.07031 2.9729 6.07031 3.2229 6.07031C3.26978 7.69533 3.31665 9.3203 3.36353 10.9453C3.10808 10.8567 2.87371 10.7317 2.6604 10.5703C2.59444 9.07106 2.53194 7.57106 2.4729 6.07031Z" fill="#433F43"/>
<path fill-rule="evenodd" clip-rule="evenodd" d="M9.2229 6.53906C9.48113 7.21969 9.73112 7.9072 9.9729 8.60156C9.6016 8.95706 9.2266 9.31641 8.8479 9.67969C8.65276 8.80528 8.45743 7.93031 8.26196 7.05469C8.25732 6.95377 8.21823 6.87567 8.14478 6.82031C8.49826 6.72019 8.85765 6.62644 9.2229 6.53906Z" fill="#554E55"/>
<path fill-rule="evenodd" clip-rule="evenodd" d="M8.05103 6.82031C8.08229 6.82031 8.11351 6.82031 8.14478 6.82031C8.21823 6.87567 8.25732 6.95377 8.26196 7.05469C8.45743 7.93031 8.65276 8.80528 8.8479 9.67969C8.67896 9.84258 8.49146 9.9832 8.2854 10.1016C8.11496 9.61041 7.97434 9.11039 7.86353 8.60156C7.73115 8.05636 7.60613 7.50947 7.48853 6.96094C7.67607 6.91406 7.86357 6.86719 8.05103 6.82031Z" fill="#433F43"/>
<path fill-rule="evenodd" clip-rule="evenodd" d="M7.48853 6.96094C7.60613 7.50947 7.73115 8.05636 7.86353 8.60156C7.76518 9.29822 7.46832 9.89198 6.9729 10.3828C6.81287 9.33708 6.65663 8.29022 6.50415 7.24219C6.44167 7.24219 6.37913 7.24219 6.31665 7.24219C6.69685 7.12767 7.08746 7.03392 7.48853 6.96094Z" fill="#685D66"/>
<path fill-rule="evenodd" clip-rule="evenodd" d="M6.31665 7.24219C6.37913 7.24219 6.44167 7.24219 6.50415 7.24219C6.65663 8.29022 6.81287 9.33708 6.9729 10.3828C6.96826 10.5111 6.98392 10.6361 7.01978 10.7578C6.80621 10.8503 6.58749 10.9284 6.36353 10.9922C6.34792 10.9922 6.33226 10.9922 6.31665 10.9922C6.14907 9.81923 5.97723 8.64736 5.80103 7.47656C5.8097 7.42575 5.82531 7.37888 5.8479 7.33594C6.00085 7.28991 6.15713 7.25864 6.31665 7.24219Z" fill="#443F43"/>
<path opacity="0.999" fill-rule="evenodd" clip-rule="evenodd" d="M9.9729 8.60158C10.1028 8.59787 10.2278 8.62131 10.3479 8.67189C10.5774 8.79414 10.7962 8.92693 11.0042 9.07033C10.77 9.31239 10.5434 9.56237 10.3245 9.82033C10.3189 10.236 10.5142 10.3689 10.9104 10.2188C11.1856 9.95148 11.4512 9.67806 11.7073 9.39845C11.8752 9.45925 12.0315 9.53734 12.176 9.63283C11.9418 9.87489 11.7153 10.1249 11.4963 10.3828C11.4867 10.8102 11.682 10.943 12.0823 10.7813C12.3574 10.4983 12.6386 10.2249 12.926 9.96095C13.1247 10.0217 13.3122 10.0998 13.4885 10.1953C13.4392 10.1883 13.3923 10.1961 13.3479 10.2188C13.1214 10.4453 12.8948 10.6719 12.6682 10.8985C12.6506 11.3966 12.8615 11.5294 13.301 11.2969C13.559 10.9998 13.8247 10.7108 14.0979 10.4297C14.2966 10.4905 14.4841 10.5685 14.6604 10.6641C14.3507 10.8877 14.0773 11.1533 13.8401 11.461C13.8345 11.8766 14.0298 12.0095 14.426 11.8594C14.7508 11.5583 15.0477 11.238 15.3167 10.8985C15.5059 10.9249 15.6777 10.9875 15.8323 11.086C15.6338 11.3551 15.4072 11.6051 15.1526 11.836C15.111 12.2635 15.2906 12.412 15.6917 12.2813C16.0164 11.9802 16.3133 11.6599 16.5823 11.3203C17.0116 11.453 17.4335 11.5937 17.8479 11.7422C17.5481 12.4405 17.0482 12.9482 16.3479 13.2656C15.2388 13.6885 14.0904 13.8838 12.9026 13.8516C12.1272 13.8266 11.3538 13.7876 10.5823 13.7344C10.3135 13.8835 10.2276 14.11 10.3245 14.4141C10.4229 14.5532 10.5557 14.6391 10.7229 14.6719C12.4306 14.9582 14.1493 15.052 15.8792 14.9531C16.7949 14.8794 17.6856 14.6919 18.551 14.3906C19.1528 14.1475 19.6606 13.7803 20.0745 13.2891C20.2572 13.0486 20.39 12.7829 20.4729 12.4922C20.7496 12.5494 21.0152 12.6276 21.2698 12.7266C21.4595 12.9684 21.4985 13.234 21.387 13.5235C21.1737 13.8774 20.8846 14.1508 20.5198 14.3438C19.8154 14.714 19.081 15.0108 18.3167 15.2344C17.1018 15.5615 15.8831 15.874 14.6604 16.1719C13.9422 16.4367 13.3016 16.8195 12.7385 17.3203C12.6186 17.3345 12.5092 17.3188 12.4104 17.2735C11.4639 16.9078 10.4796 16.5562 9.45728 16.2188C8.7977 16.0099 8.12579 15.8615 7.44165 15.7735C8.10142 15.0047 8.23426 14.1453 7.84009 13.1953C7.46363 12.3788 6.97145 11.6444 6.36353 10.9922C6.58749 10.9284 6.80621 10.8503 7.01978 10.7578C7.47737 10.5994 7.89924 10.3807 8.2854 10.1016C8.49146 9.98322 8.67896 9.84259 8.8479 9.6797C9.2266 9.31642 9.6016 8.95708 9.9729 8.60158Z" fill="#FB9084"/>
<path fill-rule="evenodd" clip-rule="evenodd" d="M7.86347 8.60156C7.97428 9.11039 8.1149 9.61041 8.28534 10.1016C7.89919 10.3807 7.47731 10.5994 7.01972 10.7578C6.98386 10.6361 6.9682 10.5111 6.97284 10.3828C7.46826 9.89198 7.76512 9.29822 7.86347 8.60156Z" fill="#564E55"/>
<path fill-rule="evenodd" clip-rule="evenodd" d="M11.0041 9.07031C11.2444 9.16697 11.4788 9.27637 11.7073 9.39844C11.4511 9.67805 11.1856 9.95147 10.9104 10.2188C10.5142 10.3688 10.3189 10.236 10.3245 9.82031C10.5434 9.56236 10.77 9.31238 11.0041 9.07031Z" fill="#FC7C6A"/>
<path opacity="0.996" fill-rule="evenodd" clip-rule="evenodd" d="M1.3479 9.67966C1.47777 9.67596 1.60277 9.6994 1.7229 9.74997C2.01054 10.0569 2.32304 10.3303 2.6604 10.5703C2.87371 10.7317 3.10808 10.8567 3.36353 10.9453C3.69331 11.133 4.05268 11.2268 4.44165 11.2265C4.67603 11.2265 4.9104 11.2265 5.14478 11.2265C5.20674 11.2186 5.26145 11.2342 5.30884 11.2734C5.68384 11.7734 6.05884 12.2734 6.43384 12.7734C7.03023 13.7049 7.13176 14.6892 6.73853 15.7265C6.30076 15.7188 5.86323 15.7265 5.42603 15.75C3.76155 15.9199 2.1053 16.0996 0.457275 16.289C0.257219 15.9544 0.132219 15.5951 0.0822754 15.2109C0.0822754 14.7734 0.0822754 14.3359 0.0822754 13.8984C0.154504 13.5927 0.224816 13.2802 0.293213 12.9609C0.37738 12.2066 0.486755 11.4566 0.621338 10.7109C0.727355 10.3187 0.922664 9.98276 1.20728 9.7031C1.25171 9.68046 1.29859 9.67268 1.3479 9.67966Z" fill="#918290"/>
<path fill-rule="evenodd" clip-rule="evenodd" d="M12.176 9.63281C12.4402 9.71822 12.6902 9.82758 12.926 9.96094C12.6386 10.2248 12.3574 10.4983 12.0823 10.7813C11.682 10.943 11.4867 10.8102 11.4963 10.3828C11.7153 10.1249 11.9418 9.87488 12.176 9.63281Z" fill="#FC7C6A"/>
<path fill-rule="evenodd" clip-rule="evenodd" d="M13.4886 10.1953C13.6971 10.2605 13.9002 10.3387 14.0979 10.4297C13.8247 10.7107 13.5591 10.9998 13.3011 11.2968C12.8616 11.5293 12.6506 11.3966 12.6683 10.8984C12.8948 10.6719 13.1214 10.4453 13.3479 10.2187C13.3924 10.1961 13.4393 10.1883 13.4886 10.1953Z" fill="#FC7C6A"/>
<path fill-rule="evenodd" clip-rule="evenodd" d="M14.6604 10.6641C14.8919 10.7178 15.1106 10.7959 15.3166 10.8984C15.0477 11.238 14.7508 11.5583 14.426 11.8594C14.0298 12.0095 13.8345 11.8766 13.8401 11.4609C14.0773 11.1533 14.3507 10.8877 14.6604 10.6641Z" fill="#FC7C6A"/>
<path fill-rule="evenodd" clip-rule="evenodd" d="M6.31665 10.9922C6.33226 10.9922 6.34792 10.9922 6.36353 10.9922C6.97145 11.6444 7.46363 12.3788 7.84009 13.1953C8.23426 14.1453 8.10142 15.0046 7.44165 15.7734C7.20282 15.7865 6.96845 15.7709 6.73853 15.7266C7.13176 14.6893 7.03023 13.7049 6.43384 12.7734C6.05884 12.2734 5.68384 11.7735 5.30884 11.2734C5.26145 11.2342 5.20674 11.2186 5.14478 11.2266C5.14478 11.211 5.14478 11.1953 5.14478 11.1797C5.53979 11.1425 5.9304 11.08 6.31665 10.9922Z" fill="#7B6E79"/>
<path fill-rule="evenodd" clip-rule="evenodd" d="M15.8323 11.0859C16.0887 11.1454 16.3387 11.2235 16.5823 11.3203C16.3133 11.6599 16.0164 11.9802 15.6917 12.2813C15.2906 12.412 15.111 12.2635 15.1526 11.8359C15.4072 11.6051 15.6338 11.3551 15.8323 11.0859Z" fill="#FC7C6A"/>
<path opacity="0.998" fill-rule="evenodd" clip-rule="evenodd" d="M17.8478 11.7422C18.7263 11.9829 19.6013 12.233 20.4728 12.4922C20.39 12.7829 20.2572 13.0485 20.0744 13.2891C19.6605 13.7803 19.1527 14.1475 18.551 14.3906C17.6855 14.6918 16.7949 14.8793 15.8791 14.9531C14.1493 15.0519 12.4305 14.9582 10.7228 14.6719C10.5557 14.6391 10.4228 14.5531 10.3244 14.4141C10.2275 14.11 10.3134 13.8834 10.5822 13.7344C11.3537 13.7876 12.1272 13.8266 12.9025 13.8516C14.0903 13.8838 15.2387 13.6885 16.3478 13.2656C17.0481 12.9482 17.5481 12.4404 17.8478 11.7422Z" fill="#FAC474"/>
<path fill-rule="evenodd" clip-rule="evenodd" d="M21.2698 12.7266C22.0089 12.884 22.7432 13.0637 23.4729 13.2656C23.7828 13.3801 23.9859 13.591 24.0823 13.8984C24.0823 14.1484 24.0823 14.3985 24.0823 14.6484C23.8884 15.3194 23.4665 15.7959 22.8167 16.0781C22.315 16.2113 21.815 16.3441 21.3167 16.4766C20.6294 16.6075 19.9575 16.7794 19.301 16.9922C18.8209 17.1083 18.3366 17.202 17.8479 17.2734C17.1728 17.378 16.5009 17.4562 15.8323 17.5078C15.2853 17.4939 14.7384 17.4783 14.1917 17.4609C13.7168 17.3863 13.2324 17.3394 12.7385 17.3203C13.3016 16.8195 13.9422 16.4367 14.6604 16.1719C15.8831 15.874 17.1018 15.5615 18.3167 15.2344C19.081 15.0108 19.8154 14.714 20.5198 14.3438C20.8846 14.1508 21.1737 13.8773 21.387 13.5234C21.4985 13.234 21.4595 12.9683 21.2698 12.7266Z" fill="#FB7C6A"/>
<path fill-rule="evenodd" clip-rule="evenodd" d="M2.1917 13.0078C2.97533 13.0335 3.2644 13.4242 3.05889 14.1797C2.79083 14.55 2.43927 14.6516 2.0042 14.4844C1.66606 14.2517 1.54887 13.9314 1.65264 13.5234C1.76571 13.2774 1.9454 13.1056 2.1917 13.0078Z" fill="#F8C474"/>
<path opacity="0.994" fill-rule="evenodd" clip-rule="evenodd" d="M6.73853 15.7265C6.96845 15.7708 7.20282 15.7865 7.44165 15.7734C8.12579 15.8615 8.7977 16.0099 9.45728 16.2187C10.4796 16.5562 11.4639 16.9078 12.4104 17.2734C12.3167 17.2734 12.2229 17.2734 12.1292 17.2734C10.6144 17.1641 9.09882 17.0704 7.58228 16.9922C7.14451 16.9844 6.70698 16.9922 6.26978 17.0156C6.00981 17.0329 5.75978 17.072 5.51978 17.1328C5.0357 17.1828 4.55134 17.2296 4.06665 17.2734C3.50397 17.3151 2.94147 17.362 2.37915 17.414C2.25011 17.4117 2.12511 17.396 2.00415 17.3672C1.3204 17.2455 0.804774 16.8861 0.457275 16.289C2.1053 16.0996 3.76155 15.9199 5.42603 15.75C5.86323 15.7265 6.30076 15.7188 6.73853 15.7265Z" fill="#F9C474"/>
<path fill-rule="evenodd" clip-rule="evenodd" d="M21.3167 16.4766C21.3167 16.6172 21.3167 16.7578 21.3167 16.8984C21.3167 16.9609 21.3167 17.0235 21.3167 17.0859C20.7322 17.2359 20.1541 17.3921 19.5823 17.5547C19.4647 17.3821 19.371 17.1946 19.301 16.9922C19.9575 16.7794 20.6294 16.6075 21.3167 16.4766Z" fill="#6A5E67"/>
<path fill-rule="evenodd" clip-rule="evenodd" d="M7.58228 16.9922C7.55101 17.1953 7.51979 17.3984 7.48853 17.6015C6.97023 17.5907 6.4546 17.622 5.94165 17.6953C5.81917 17.6886 5.70976 17.6573 5.61353 17.6015C5.57631 17.4468 5.54509 17.2905 5.51978 17.1328C5.75978 17.072 6.00981 17.0329 6.26978 17.0156C6.70698 16.9922 7.14451 16.9844 7.58228 16.9922Z" fill="#FC7D6A"/>
<path opacity="0.961" fill-rule="evenodd" clip-rule="evenodd" d="M21.3167 16.8984C21.3708 17.2495 21.3786 17.6088 21.3401 17.9766C21.301 18.1406 21.1995 18.2422 21.0354 18.2812C20.7311 18.4124 20.4186 18.4515 20.0979 18.3984C19.8551 18.1632 19.6832 17.882 19.5823 17.5547C20.1541 17.3921 20.7322 17.2359 21.3167 17.0859C21.3167 17.0235 21.3167 16.9609 21.3167 16.8984Z" fill="#796D78"/>
<path fill-rule="evenodd" clip-rule="evenodd" d="M4.06665 17.2734C4.01981 17.492 3.97294 17.7107 3.92603 17.9297C3.33373 17.983 2.73998 18.0143 2.14478 18.0234C2.06971 17.8162 2.02283 17.5974 2.00415 17.3672C2.12511 17.3961 2.25011 17.4117 2.37915 17.4141C2.94147 17.362 3.50397 17.3151 4.06665 17.2734Z" fill="#FB7C6A"/>
<path fill-rule="evenodd" clip-rule="evenodd" d="M12.1292 17.2734C12.2229 17.2734 12.3167 17.2734 12.4104 17.2734C12.5092 17.3188 12.6186 17.3345 12.7385 17.3203C13.2324 17.3394 13.7168 17.3863 14.1917 17.4609C14.1446 17.6494 14.0978 17.8369 14.051 18.0234C13.4575 17.9887 12.8637 17.9575 12.2698 17.9297C12.2109 17.7138 12.1641 17.495 12.1292 17.2734Z" fill="#695E67"/>
<path fill-rule="evenodd" clip-rule="evenodd" d="M17.8479 17.2734C17.8247 17.4986 17.7779 17.7173 17.7073 17.9297C17.1159 18.0024 16.5221 18.0493 15.926 18.0703C15.8888 17.8839 15.8575 17.6964 15.8323 17.5078C16.5009 17.4562 17.1728 17.378 17.8479 17.2734Z" fill="#695E67"/>
<path opacity="0.978" fill-rule="evenodd" clip-rule="evenodd" d="M5.61353 17.6016C5.70976 17.6574 5.81917 17.6886 5.94165 17.6953C6.4546 17.622 6.97023 17.5907 7.48853 17.6016C7.4177 17.979 7.33178 18.354 7.23071 18.7266C7.04078 18.9013 6.81418 18.9794 6.55103 18.961C6.25543 18.9917 6.01328 18.8979 5.82446 18.6797C5.73901 18.3227 5.6687 17.9633 5.61353 17.6016Z" fill="#FC9085"/>
<path opacity="0.983" fill-rule="evenodd" clip-rule="evenodd" d="M3.92603 17.9297C3.87057 18.1991 3.80026 18.4647 3.71509 18.7266C3.51767 18.9051 3.28329 18.9832 3.01196 18.9609C2.74063 18.9832 2.50626 18.9051 2.30884 18.7266C2.23205 18.4975 2.17736 18.2632 2.14478 18.0234C2.73998 18.0143 3.33373 17.983 3.92603 17.9297Z" fill="#FC9085"/>
<path opacity="0.968" fill-rule="evenodd" clip-rule="evenodd" d="M12.2698 17.9297C12.8637 17.9575 13.4575 17.9887 14.051 18.0234C14.0245 18.2859 13.9542 18.5359 13.8401 18.7734C13.647 18.9156 13.4282 18.978 13.1838 18.9609C12.9125 18.9832 12.6782 18.9051 12.4807 18.7266C12.3884 18.4665 12.3181 18.2009 12.2698 17.9297Z" fill="#796D78"/>
<path opacity="0.97" fill-rule="evenodd" clip-rule="evenodd" d="M17.7073 17.9297C17.6676 18.1822 17.6129 18.4322 17.5432 18.6797C17.3544 18.8979 17.1122 18.9916 16.8167 18.9609C16.5191 18.9915 16.2769 18.8978 16.0901 18.6797C16.0277 18.4768 15.973 18.2737 15.926 18.0703C16.5221 18.0493 17.1159 18.0024 17.7073 17.9297Z" fill="#796D78"/>
</g>
<defs>
<clipPath id="clip0_4474_5110">
<rect width="24" height="24" fill="white" transform="translate(0.105713)"/>
</clipPath>
</defs>
</svg>
