<svg width="25" height="24" viewBox="0 0 25 24" fill="none" xmlns="http://www.w3.org/2000/svg">
<g clip-path="url(#clip0_4474_5109)">
<path opacity="0.991" fill-rule="evenodd" clip-rule="evenodd" d="M18.5979 -0.0234375C18.6604 -0.0234375 18.7229 -0.0234375 18.7854 -0.0234375C18.6233 1.28705 18.4905 2.59955 18.387 3.91406C18.5215 4.10661 18.709 4.21598 18.9495 4.24219C19.308 4.19081 19.6596 4.11269 20.0042 4.00781C17.7698 6.25781 15.5354 8.50781 13.301 10.7578C11.452 9.05287 9.26448 8.31853 6.73853 8.55469C6.77607 6.33923 7.52607 4.40953 8.98853 2.76562C10.0224 1.7883 11.2568 1.28829 12.6917 1.26562C13.3485 1.22659 14.0047 1.2344 14.6604 1.28906C14.1142 1.85872 13.5595 2.42122 12.9963 2.97656C12.6442 3.52794 12.7457 3.97325 13.301 4.3125C13.7035 4.43882 14.0394 4.33726 14.3088 4.00781C14.5781 2.92956 15.1172 2.0155 15.926 1.26562C16.3265 0.944152 16.764 0.678525 17.2385 0.46875C17.698 0.307896 18.1512 0.143833 18.5979 -0.0234375Z" fill="#FDBF00"/>
<path opacity="0.903" fill-rule="evenodd" clip-rule="evenodd" d="M23.1448 0.867188C22.83 1.21319 22.5019 1.54132 22.1604 1.85156C22.3668 1.27141 22.5777 0.693286 22.7932 0.117188C22.9238 0.362556 23.0409 0.612558 23.1448 0.867188Z" fill="#FDBE00"/>
<path fill-rule="evenodd" clip-rule="evenodd" d="M23.1448 0.867188C23.615 1.62191 23.9275 2.43441 24.0823 3.30469C24.0823 3.77344 24.0823 4.24219 24.0823 4.71094C23.8413 6.12239 23.1694 7.28648 22.0667 8.20313C21.5427 8.55117 20.9958 8.86369 20.426 9.14063C19.9758 9.53588 19.9445 9.95775 20.3323 10.4063C20.6917 10.6875 21.051 10.6875 21.4104 10.4063C22.0119 9.8047 22.6135 9.20311 23.2151 8.60156C24.6818 12.4558 23.5958 15.3386 19.9573 17.25C18.4911 17.958 16.9442 18.2626 15.3167 18.1641C15.948 15.3412 15.2761 12.888 13.301 10.8047C13.301 10.7891 13.301 10.7734 13.301 10.7578C15.5354 8.50781 17.7698 6.25781 20.0042 4.00781C21.051 3.61719 21.7698 2.89844 22.1604 1.85156C22.5019 1.54132 22.83 1.21319 23.1448 0.867188Z" fill="#FE9100"/>
<path opacity="0.998" fill-rule="evenodd" clip-rule="evenodd" d="M13.301 10.7578C13.301 10.7734 13.301 10.7891 13.301 10.8047C11.2323 12.8499 9.16984 14.9046 7.11353 16.9688C7.06904 16.9977 7.02999 16.9899 6.99634 16.9453C6.55243 15.938 5.77899 15.4771 4.67603 15.5625C3.56654 15.8202 2.97279 16.5156 2.89478 17.6484C3.36353 17.6484 3.83228 17.6484 4.30103 17.6484C4.3311 17.2121 4.56547 16.9778 5.00415 16.9453C5.43638 16.9816 5.67076 17.216 5.70728 17.6484C5.94217 17.6407 6.17654 17.6485 6.4104 17.6719C5.03921 19.0196 3.69546 20.3867 2.37915 21.7734C1.08889 20.4741 0.323261 18.9116 0.0822754 17.0859C0.0822754 16.5234 0.0822754 15.9609 0.0822754 15.3984C0.553607 12.2943 2.24111 10.1459 5.14478 8.95313C5.66579 8.77599 6.19707 8.6432 6.73853 8.5547C9.26448 8.31854 11.452 9.05288 13.301 10.7578Z" fill="#DFF3FE"/>
<path fill-rule="evenodd" clip-rule="evenodd" d="M13.301 10.8047C15.2761 12.888 15.948 15.3412 15.3167 18.1641C14.5006 21.0661 12.6412 22.9333 9.73853 23.7656C9.37463 23.8469 9.01529 23.9172 8.6604 23.9766C8.0979 23.9766 7.5354 23.9766 6.9729 23.9766C5.19507 23.7438 3.66383 23.0094 2.37915 21.7734C3.69546 20.3867 5.03921 19.0196 6.4104 17.6719C6.17654 17.6485 5.94217 17.6407 5.70728 17.6484C5.67076 17.216 5.43638 16.9816 5.00415 16.9453C4.56547 16.9777 4.3311 17.2121 4.30103 17.6484C3.83228 17.6484 3.36353 17.6484 2.89478 17.6484C2.97279 16.5156 3.56654 15.8202 4.67603 15.5625C5.77899 15.477 6.55243 15.938 6.99634 16.9453C7.02999 16.9899 7.06904 16.9977 7.11353 16.9688C9.16984 14.9046 11.2323 12.8499 13.301 10.8047Z" fill="#BBDCFE"/>
<path fill-rule="evenodd" clip-rule="evenodd" d="M7.5354 11.3203C8.69823 11.2882 9.47167 11.8195 9.85571 12.9141C9.90765 13.0822 9.93109 13.2541 9.92602 13.4297C9.45728 13.4297 8.98853 13.4297 8.51978 13.4297C8.40474 12.8487 8.06101 12.6378 7.48853 12.7969C7.25485 12.9444 7.12984 13.1553 7.11353 13.4297C6.64478 13.4297 6.17603 13.4297 5.70728 13.4297C5.79985 12.2749 6.40923 11.5717 7.5354 11.3203Z" fill="#BBDCFF"/>
<path fill-rule="evenodd" clip-rule="evenodd" d="M10.2073 15.5391C11.7021 15.4727 12.5459 16.1758 12.7385 17.6485C12.2698 17.6485 11.801 17.6485 11.3323 17.6485C11.2193 17.0683 10.8755 16.8574 10.301 17.0157C10.0682 17.1625 9.94328 17.3734 9.92603 17.6485C9.45728 17.6485 8.98853 17.6485 8.51978 17.6485C8.59618 16.5564 9.15868 15.8533 10.2073 15.5391Z" fill="#9ABADB"/>
</g>
<defs>
<clipPath id="clip0_4474_5109">
<rect width="24" height="24" fill="white" transform="translate(0.105713)"/>
</clipPath>
</defs>
</svg>
