<svg width="25" height="24" viewBox="0 0 25 24" fill="none" xmlns="http://www.w3.org/2000/svg">
<g clip-path="url(#clip0_4474_5108)">
<path opacity="0.996" fill-rule="evenodd" clip-rule="evenodd" d="M8.42602 -0.0234375C8.70727 -0.0234375 8.98852 -0.0234375 9.26977 -0.0234375C9.26977 4.67969 9.26977 9.38283 9.26977 14.0859C8.78639 13.3073 8.32547 12.5105 7.88696 11.6953C7.25761 10.9454 6.45296 10.6563 5.47289 10.8281C5.01788 10.9456 4.64286 11.18 4.34789 11.5312C5.01028 12.6451 5.66653 13.7623 6.31664 14.8828C3.79724 13.7925 2.24255 11.9018 1.65258 9.21094C1.14721 5.77795 2.31127 3.08264 5.14477 1.125C6.16341 0.512086 7.25719 0.129275 8.42602 -0.0234375Z" fill="#FF7559"/>
<path fill-rule="evenodd" clip-rule="evenodd" d="M9.26978 -0.0234375C9.55103 -0.0234375 9.83228 -0.0234375 10.1135 -0.0234375C12.1986 0.25329 13.9174 1.19079 15.2698 2.78906C14.676 2.78906 14.0823 2.78906 13.4885 2.78906C13.4885 3.25781 13.4885 3.72656 13.4885 4.19531C13.0198 4.19531 12.551 4.19531 12.0823 4.19531C11.3792 4.19531 10.676 4.19531 9.9729 4.19531C9.98073 7.91409 9.9729 11.6328 9.94946 15.3516C9.69788 14.9421 9.47129 14.5202 9.26978 14.0859C9.26978 9.38283 9.26978 4.67969 9.26978 -0.0234375Z" fill="#E6483A"/>
<path opacity="0.998" fill-rule="evenodd" clip-rule="evenodd" d="M15.2698 2.78906C15.3791 2.78906 15.4885 2.78906 15.5979 2.78906C15.5979 6.53906 15.5979 10.2891 15.5979 14.0391C15.8323 14.0391 16.0667 14.0391 16.301 14.0391C16.2854 17.3438 16.3011 20.6407 16.3479 23.9297C16.3479 23.9453 16.3479 23.961 16.3479 23.9766C15.8948 23.9766 15.4417 23.9766 14.9885 23.9766C12.7349 23.7135 10.9927 22.6354 9.76196 20.7422C8.61245 18.7865 7.46401 16.8334 6.31665 14.8828C5.66654 13.7623 5.01029 12.6451 4.3479 11.5312C4.64287 11.18 5.01788 10.9456 5.4729 10.8281C6.45296 10.6563 7.25762 10.9454 7.88696 11.6953C8.32548 12.5105 8.7864 13.3073 9.26978 14.0859C9.47129 14.5202 9.69788 14.9421 9.94946 15.3516C9.9729 11.6328 9.98073 7.91409 9.9729 4.19531C10.676 4.19531 11.3792 4.19531 12.0823 4.19531C12.0823 7.47656 12.0823 10.7578 12.0823 14.0391C12.551 14.0391 13.0198 14.0391 13.4885 14.0391C13.4885 10.7578 13.4885 7.47656 13.4885 4.19531C13.4885 3.72656 13.4885 3.25781 13.4885 2.78906C14.0823 2.78906 14.676 2.78906 15.2698 2.78906Z" fill="#FFD8B2"/>
<path fill-rule="evenodd" clip-rule="evenodd" d="M15.5979 2.78906C15.8323 2.78906 16.0667 2.78906 16.301 2.78906C16.301 6.53906 16.301 10.2891 16.301 14.0391C16.0667 14.0391 15.8323 14.0391 15.5979 14.0391C15.5979 10.2891 15.5979 6.53906 15.5979 2.78906Z" fill="#FEBB98"/>
<path fill-rule="evenodd" clip-rule="evenodd" d="M16.301 2.78906C16.5354 2.78906 16.7698 2.78906 17.0042 2.78906C17.0042 3.25781 17.0042 3.72656 17.0042 4.19531C17.0042 7.47656 17.0042 10.7578 17.0042 14.0391C16.7698 14.0391 16.5354 14.0391 16.301 14.0391C16.301 10.2891 16.301 6.53906 16.301 2.78906Z" fill="#FE957F"/>
<path fill-rule="evenodd" clip-rule="evenodd" d="M12.0823 4.19531C12.551 4.19531 13.0198 4.19531 13.4885 4.19531C13.4885 7.47656 13.4885 10.7578 13.4885 14.0391C13.0198 14.0391 12.551 14.0391 12.0823 14.0391C12.0823 10.7578 12.0823 7.47656 12.0823 4.19531Z" fill="#FEBB98"/>
<path fill-rule="evenodd" clip-rule="evenodd" d="M17.0041 4.19531C17.7073 4.19531 18.4104 4.19531 19.1135 4.19531C19.1135 4.66406 19.1135 5.13281 19.1135 5.60156C19.1135 8.41406 19.1135 11.2266 19.1135 14.0391C19.5823 14.0391 20.051 14.0391 20.5198 14.0391C20.5198 11.2266 20.5198 8.41406 20.5198 5.60156C21.2229 5.60156 21.926 5.60156 22.6291 5.60156C22.637 9.52345 22.6291 13.4453 22.6057 17.3672C22.2926 19.8474 21.0973 21.7615 19.0198 23.1094C18.1886 23.5788 17.298 23.8523 16.3479 23.9297C16.3011 20.6407 16.2854 17.3438 16.301 14.0391C16.5354 14.0391 16.7698 14.0391 17.0041 14.0391C17.0041 10.7578 17.0041 7.47656 17.0041 4.19531Z" fill="#FFBB99"/>
<path fill-rule="evenodd" clip-rule="evenodd" d="M19.1135 5.60156C19.5823 5.60156 20.051 5.60156 20.5198 5.60156C20.5198 8.41406 20.5198 11.2266 20.5198 14.0391C20.051 14.0391 19.5823 14.0391 19.1135 14.0391C19.1135 11.2266 19.1135 8.41406 19.1135 5.60156Z" fill="#FE957F"/>
</g>
<defs>
<clipPath id="clip0_4474_5108">
<rect width="24" height="24" fill="white" transform="translate(0.105713)"/>
</clipPath>
</defs>
</svg>
