<svg width="25" height="24" viewBox="0 0 25 24" fill="none" xmlns="http://www.w3.org/2000/svg">
<g clip-path="url(#clip0_4474_5107)">
<path opacity="0.996" fill-rule="evenodd" clip-rule="evenodd" d="M11.2855 -0.0234375C11.5511 -0.0234375 11.8167 -0.0234375 12.0823 -0.0234375C12.0823 1.38281 12.0823 2.78906 12.0823 4.19531C10.962 4.23588 9.96199 3.91557 9.08233 3.23438C8.82977 2.97109 8.65793 2.6664 8.56671 2.32031C8.51763 1.64492 8.76762 1.10586 9.31671 0.703125C9.92299 0.316246 10.5792 0.0740583 11.2855 -0.0234375Z" fill="#756D6D"/>
<path fill-rule="evenodd" clip-rule="evenodd" d="M12.0823 -0.0234375C12.3479 -0.0234375 12.6135 -0.0234375 12.8792 -0.0234375C13.5854 0.0740583 14.2416 0.316246 14.8479 0.703125C15.4253 1.13121 15.6753 1.70152 15.5979 2.41406C15.3046 3.15239 14.7733 3.64458 14.0042 3.89062C13.3837 4.11858 12.7431 4.22014 12.0823 4.19531C12.0823 2.78906 12.0823 1.38281 12.0823 -0.0234375Z" fill="#5B5555"/>
<path opacity="0.988" fill-rule="evenodd" clip-rule="evenodd" d="M6.50415 4.75781C5.36354 5.60156 4.2229 6.44531 3.08228 7.28906C2.09896 5.8687 1.09897 4.46243 0.0822754 3.07031C0.0822754 3.02344 0.0822754 2.97656 0.0822754 2.92969C1.17463 2.10198 2.26838 1.27386 3.36353 0.445312C4.44748 1.85715 5.49437 3.29466 6.50415 4.75781Z" fill="#FABD00"/>
<path fill-rule="evenodd" clip-rule="evenodd" d="M24.0823 2.88281C24.0823 2.94531 24.0823 3.00781 24.0823 3.07031C23.0656 4.46243 22.0656 5.8687 21.0823 7.28906C19.9417 6.44531 18.801 5.60156 17.6604 4.75781C18.6714 3.2938 19.7182 1.8563 20.801 0.445312C21.8833 1.27817 22.977 2.09067 24.0823 2.88281Z" fill="#FABE03"/>
<path opacity="0.992" fill-rule="evenodd" clip-rule="evenodd" d="M8.56666 2.32031C8.65788 2.6664 8.82972 2.97109 9.08228 3.23438C9.96194 3.91557 10.9619 4.23588 12.0823 4.19531C12.0823 5.13281 12.0823 6.07031 12.0823 7.00781C11.082 7.05075 10.1601 6.80855 9.31666 6.28125C8.96411 6.02283 8.72195 5.68687 8.59009 5.27344C8.56666 4.28918 8.55883 3.30481 8.56666 2.32031Z" fill="#5B5555"/>
<path fill-rule="evenodd" clip-rule="evenodd" d="M15.5979 2.41406C15.6057 3.36732 15.5979 4.32044 15.5745 5.27344C15.2794 5.97469 14.7716 6.45127 14.051 6.70312C13.4143 6.93164 12.758 7.03322 12.0823 7.00781C12.0823 6.07031 12.0823 5.13281 12.0823 4.19531C12.7431 4.22014 13.3837 4.11858 14.0042 3.89062C14.7733 3.64458 15.3046 3.15239 15.5979 2.41406Z" fill="#463F3F"/>
<path opacity="0.993" fill-rule="evenodd" clip-rule="evenodd" d="M6.50415 4.75781C6.80195 5.11842 7.0832 5.49342 7.3479 5.88281C6.20729 6.72656 5.06663 7.57031 3.92603 8.41406C3.62821 8.05345 3.34696 7.67845 3.08228 7.28906C4.2229 6.44531 5.36354 5.60156 6.50415 4.75781Z" fill="#766E6D"/>
<path opacity="0.992" fill-rule="evenodd" clip-rule="evenodd" d="M17.6604 4.75781C18.801 5.60156 19.9417 6.44531 21.0823 7.28906C20.8176 7.67845 20.5363 8.05345 20.2385 8.41406C19.0949 7.57687 17.9699 6.71752 16.8635 5.83594C17.1126 5.46225 17.3782 5.10286 17.6604 4.75781Z" fill="#5C5554"/>
<path opacity="0.991" fill-rule="evenodd" clip-rule="evenodd" d="M7.3479 5.88281C7.63703 6.24272 7.90262 6.61772 8.14478 7.00781C7.01978 7.86717 5.89478 8.72658 4.76978 9.58594C4.47761 9.20536 4.19636 8.81475 3.92603 8.41406C5.06663 7.57031 6.20729 6.72656 7.3479 5.88281Z" fill="#F9BD02"/>
<path fill-rule="evenodd" clip-rule="evenodd" d="M16.8635 5.83594C17.9699 6.71752 19.0949 7.57687 20.2385 8.41406C19.9682 8.81475 19.6869 9.20536 19.3948 9.58594C18.2698 8.72658 17.1448 7.86717 16.0198 7.00781C16.2671 6.59058 16.5484 6.19997 16.8635 5.83594Z" fill="#F9BD03"/>
<path opacity="0.993" fill-rule="evenodd" clip-rule="evenodd" d="M8.14478 7.00781C8.44257 7.36842 8.72382 7.74342 8.98853 8.13281C7.85485 8.98842 6.71424 9.83217 5.56665 10.6641C5.28442 10.319 5.01882 9.95963 4.76978 9.58594C5.89478 8.72658 7.01978 7.86717 8.14478 7.00781Z" fill="#766E6D"/>
<path opacity="0.992" fill-rule="evenodd" clip-rule="evenodd" d="M16.0198 7.00781C17.1448 7.86717 18.2698 8.72658 19.3948 9.58594C19.1457 9.95963 18.8801 10.319 18.5979 10.6641C17.4503 9.83217 16.3097 8.98842 15.176 8.13281C15.4407 7.74342 15.722 7.36842 16.0198 7.00781Z" fill="#5B5554"/>
<path opacity="0.991" fill-rule="evenodd" clip-rule="evenodd" d="M8.98853 8.13281C9.2807 8.51339 9.56195 8.904 9.83228 9.30469C8.69251 10.1473 7.5519 10.991 6.4104 11.8359C6.11823 11.4554 5.83698 11.0647 5.56665 10.6641C6.71424 9.83217 7.85485 8.98842 8.98853 8.13281Z" fill="#F9BC03"/>
<path fill-rule="evenodd" clip-rule="evenodd" d="M15.176 8.13281C16.3097 8.98842 17.4503 9.83217 18.5979 10.6641C18.3276 11.0647 18.0463 11.4554 17.7542 11.8359C16.6205 10.9803 15.4799 10.1366 14.3323 9.30469C14.6026 8.904 14.8839 8.51339 15.176 8.13281Z" fill="#F9BD03"/>
<path opacity="0.994" fill-rule="evenodd" clip-rule="evenodd" d="M9.83228 9.30469C10.1208 9.66281 10.3864 10.0378 10.6292 10.4297C9.48854 11.2734 8.34788 12.1172 7.20728 12.9609C6.94163 12.5859 6.67604 12.2109 6.4104 11.8359C7.5519 10.991 8.69251 10.1473 9.83228 9.30469Z" fill="#766E6D"/>
<path opacity="0.992" fill-rule="evenodd" clip-rule="evenodd" d="M14.3323 9.30469C15.4799 10.1366 16.6205 10.9803 17.7542 11.8359C17.4894 12.2253 17.2082 12.6003 16.9104 12.9609C15.7987 12.0991 14.6737 11.2554 13.5354 10.4297C13.7781 10.0378 14.0438 9.66281 14.3323 9.30469Z" fill="#5C5554"/>
<path fill-rule="evenodd" clip-rule="evenodd" d="M10.6292 10.4297C11.1245 11.0605 11.6089 11.7011 12.0823 12.3516C12.5557 11.7011 13.0401 11.0605 13.5354 10.4297C14.6737 11.2554 15.7987 12.0991 16.9104 12.9609C16.1772 13.9913 15.4428 15.0226 14.7073 16.0547C13.8323 17.2266 12.9573 18.3984 12.0823 19.5703C12.0901 17.2109 12.0823 14.8515 12.0588 12.4922C11.1981 13.6726 10.3309 14.8445 9.45728 16.0078C8.6964 15.0023 7.9464 13.9867 7.20728 12.9609C8.34788 12.1172 9.48854 11.2734 10.6292 10.4297Z" fill="#FABE01"/>
<path opacity="0.998" fill-rule="evenodd" clip-rule="evenodd" d="M12.0823 19.5703C12.0823 19.6016 12.0823 19.6328 12.0823 19.6641C11.0343 21.0874 10.0031 22.5249 8.98853 23.9766C6.01979 23.9766 3.05102 23.9766 0.0822754 23.9766C0.0822754 22.6328 0.0822754 21.2891 0.0822754 19.9453C0.323759 19.1023 0.870633 18.5633 1.7229 18.3281C3.75433 18.3203 5.7856 18.2969 7.81665 18.2578C8.36467 17.507 8.91156 16.757 9.45728 16.0078C10.3309 14.8445 11.1981 13.6726 12.0588 12.4922C12.0823 14.8515 12.0901 17.2109 12.0823 19.5703Z" fill="#FFF388"/>
<path opacity="0.997" fill-rule="evenodd" clip-rule="evenodd" d="M14.7073 16.0547C15.2696 16.7738 15.8165 17.5082 16.3479 18.2578C18.3789 18.2969 20.4102 18.3203 22.4417 18.3281C23.2939 18.5633 23.8408 19.1023 24.0823 19.9453C24.0823 21.2891 24.0823 22.6328 24.0823 23.9766C21.1135 23.9766 18.1448 23.9766 15.176 23.9766C14.163 22.526 13.1317 21.0885 12.0823 19.6641C12.0823 19.6328 12.0823 19.6016 12.0823 19.5703C12.9573 18.3984 13.8323 17.2266 14.7073 16.0547Z" fill="#FF8759"/>
</g>
<defs>
<clipPath id="clip0_4474_5107">
<rect width="24" height="24" fill="white" transform="translate(0.105713)"/>
</clipPath>
</defs>
</svg>
