<svg width="25" height="24" viewBox="0 0 25 24" fill="none" xmlns="http://www.w3.org/2000/svg">
<g clip-path="url(#clip0_4474_5106)">
<path fill-rule="evenodd" clip-rule="evenodd" d="M21.0823 7.71094C20.8111 7.50253 20.5923 7.25255 20.426 6.96094C20.6274 6.73603 20.8384 6.51727 21.0588 6.30469C21.0979 5.63227 21.0901 4.96041 21.0354 4.28906C20.5979 3.88281 20.176 3.46094 19.7698 3.02344C19.0984 2.96878 18.4266 2.96096 17.7542 3C17.5259 3.23609 17.2915 3.46265 17.051 3.67969C16.7785 3.4701 16.5597 3.2201 16.3948 2.92969C17.2857 1.99973 18.1997 1.09347 19.137 0.210938C20.7132 1.7403 22.2757 3.28717 23.8245 4.85156C23.8557 4.89844 23.8557 4.94531 23.8245 4.99219C22.9166 5.90789 22.0025 6.81413 21.0823 7.71094Z" fill="#B0ADD5"/>
<path fill-rule="evenodd" clip-rule="evenodd" d="M20.426 6.96092C20.1855 7.17795 19.9511 7.4045 19.7229 7.64061C19.0667 7.67187 18.4104 7.67187 17.7542 7.64061C17.3088 7.19529 16.8635 6.74998 16.4182 6.30467C16.387 5.64842 16.387 4.99217 16.4182 4.33592C16.6387 4.12332 16.8496 3.90457 17.051 3.67967C17.2916 3.46263 17.5259 3.23607 17.7542 2.99998C18.4266 2.96094 19.0984 2.96876 19.7698 3.02342C20.1761 3.46092 20.5979 3.88279 21.0354 4.28904C21.0901 4.96039 21.0979 5.63225 21.0588 6.30467C20.8384 6.51725 20.6275 6.73601 20.426 6.96092Z" fill="#FBE582"/>
<path opacity="0.999" fill-rule="evenodd" clip-rule="evenodd" d="M16.3948 2.92969C16.5597 3.2201 16.7785 3.4701 17.051 3.67969C16.8496 3.90459 16.6387 4.12334 16.4182 4.33594C16.3869 4.99219 16.3869 5.64844 16.4182 6.30469C16.8635 6.75 17.3088 7.19531 17.7542 7.64062C18.4104 7.67189 19.0667 7.67189 19.7229 7.64062C19.9511 7.40452 20.1855 7.17797 20.426 6.96094C20.5923 7.25255 20.8111 7.50253 21.0823 7.71094C20.3183 8.49839 19.5449 9.27961 18.762 10.0547C18.7464 11.6328 18.7307 13.2109 18.7151 14.7891C17.4416 16.0625 16.1682 17.3359 14.8948 18.6094C13.3166 18.625 11.7385 18.6406 10.1604 18.6562C9.36971 19.4548 8.57284 20.2438 7.76978 21.0234C7.77676 20.9741 7.76898 20.9272 7.74634 20.8828C7.56667 20.7031 7.38695 20.5234 7.20728 20.3438C7.16284 20.3211 7.11596 20.3133 7.06665 20.3203C7.28368 20.0798 7.51023 19.8454 7.74634 19.6172C7.7776 18.9609 7.7776 18.3047 7.74634 17.6484C7.30103 17.2031 6.85571 16.7578 6.4104 16.3125C5.75415 16.2812 5.0979 16.2812 4.44165 16.3125C4.22905 16.533 4.0103 16.7439 3.7854 16.9453C3.56665 16.6953 3.33227 16.461 3.08228 16.2422C3.84625 15.4547 4.61969 14.6735 5.40259 13.8984C5.4182 12.3203 5.43385 10.7422 5.44946 9.16406C6.72292 7.89061 7.99632 6.6172 9.26978 5.34375C10.8479 5.32814 12.426 5.31248 14.0042 5.29688C14.7948 4.49835 15.5917 3.70929 16.3948 2.92969Z" fill="#C6C2E0"/>
<path fill-rule="evenodd" clip-rule="evenodd" d="M18.2229 4.14843C18.567 4.14063 18.9108 4.14844 19.2542 4.17187C19.4651 4.3828 19.676 4.59374 19.887 4.80468C19.9182 5.14841 19.9182 5.49219 19.887 5.83593C19.676 6.04687 19.4651 6.2578 19.2542 6.46874C18.9104 6.50001 18.5666 6.50001 18.2229 6.46874C18.012 6.2578 17.801 6.04687 17.5901 5.83593C17.5588 5.49219 17.5588 5.14841 17.5901 4.80468C17.8106 4.59208 18.0215 4.37333 18.2229 4.14843Z" fill="#FCCF72"/>
<path fill-rule="evenodd" clip-rule="evenodd" d="M14.051 7.33596C13.6916 7.72657 13.3166 8.10157 12.926 8.46096C12.1446 8.45313 11.3633 8.46096 10.5823 8.48439C9.91819 9.14847 9.25416 9.8125 8.59008 10.4766C8.56665 11.2577 8.55882 12.0389 8.56665 12.8203C8.20726 13.2109 7.83226 13.5859 7.44165 13.9453C7.4026 12.633 7.39477 11.3205 7.41821 10.0078C8.31666 9.10938 9.21507 8.21097 10.1135 7.31252C11.4259 7.30886 12.7384 7.31669 14.051 7.33596Z" fill="#FCCE72"/>
<path fill-rule="evenodd" clip-rule="evenodd" d="M14.051 7.33594C14.9573 8.21095 15.8479 9.10158 16.7229 10.0078C16.3323 10.3672 15.9573 10.7422 15.5979 11.1328C14.1292 12.5703 12.676 14.0235 11.2385 15.4922C10.8479 15.8516 10.4729 16.2266 10.1135 16.6172C9.20729 15.7422 8.31667 14.8515 7.44165 13.9453C7.83226 13.5859 8.20726 13.2109 8.56665 12.8203C10.0354 11.3828 11.4885 9.92967 12.926 8.46094C13.3166 8.10155 13.6916 7.72655 14.051 7.33594Z" fill="#FBE582"/>
<path fill-rule="evenodd" clip-rule="evenodd" d="M12.926 8.46094C11.4885 9.92968 10.0354 11.3828 8.56666 12.8203C8.55883 12.0389 8.56666 11.2576 8.59009 10.4766C9.25417 9.81249 9.9182 9.14846 10.5823 8.48438C11.3634 8.46094 12.1446 8.45312 12.926 8.46094Z" fill="#B1ADD4"/>
<path fill-rule="evenodd" clip-rule="evenodd" d="M16.7229 10.0078C16.7518 11.3203 16.7596 12.6328 16.7463 13.9453C15.8479 14.8438 14.9495 15.7422 14.051 16.6406C12.7384 16.6574 11.4259 16.6495 10.1135 16.6172C10.4729 16.2266 10.8479 15.8516 11.2385 15.4922C12.0199 15.5 12.8012 15.4922 13.5823 15.4688C14.2464 14.8047 14.9104 14.1406 15.5745 13.4766C15.5979 12.6955 15.6057 11.9142 15.5979 11.1328C15.9573 10.7422 16.3323 10.3672 16.7229 10.0078Z" fill="#FCCE72"/>
<path fill-rule="evenodd" clip-rule="evenodd" d="M15.5979 11.1328C15.6057 11.9142 15.5979 12.6955 15.5745 13.4766C14.9104 14.1406 14.2464 14.8047 13.5823 15.4688C12.8012 15.4922 12.0199 15.5 11.2385 15.4922C12.676 14.0235 14.1292 12.5703 15.5979 11.1328Z" fill="#B1ADD4"/>
<path fill-rule="evenodd" clip-rule="evenodd" d="M3.08228 16.2422C3.33227 16.461 3.56665 16.6953 3.7854 16.9453C3.56836 17.1858 3.3418 17.4202 3.10571 17.6484C3.06668 18.3209 3.07449 18.9927 3.12915 19.6641C3.56665 20.0703 3.98852 20.4922 4.39478 20.9297C5.06612 20.9843 5.73798 20.9922 6.4104 20.9531C6.62298 20.7327 6.84174 20.5217 7.06665 20.3203C7.11596 20.3133 7.16284 20.3211 7.20728 20.3438C7.38695 20.5234 7.56667 20.7031 7.74634 20.8828C7.76898 20.9272 7.77676 20.9741 7.76978 21.0234C6.87887 21.9534 5.96481 22.8597 5.02759 23.7422C3.45134 22.2128 1.88884 20.666 0.340088 19.1016C0.308838 19.0547 0.308838 19.0078 0.340088 18.9609C1.24797 18.0452 2.16203 17.139 3.08228 16.2422Z" fill="#B0ADD5"/>
<path fill-rule="evenodd" clip-rule="evenodd" d="M7.06663 20.3203C6.84173 20.5217 6.62296 20.7327 6.41038 20.9531C5.73796 20.9922 5.0661 20.9844 4.39476 20.9297C3.98851 20.4922 3.56663 20.0703 3.12913 19.6641C3.07447 18.9927 3.06666 18.3209 3.10569 17.6484C3.34178 17.4202 3.56834 17.1858 3.78538 16.9453C4.01028 16.7439 4.22903 16.533 4.44163 16.3125C5.09788 16.2812 5.75413 16.2812 6.41038 16.3125C6.85569 16.7578 7.30101 17.2031 7.74632 17.6484C7.77758 18.3047 7.77758 18.9609 7.74632 19.6172C7.51021 19.8454 7.28366 20.0798 7.06663 20.3203Z" fill="#FBE582"/>
<path fill-rule="evenodd" clip-rule="evenodd" d="M4.9104 17.4609C5.25451 17.4531 5.59825 17.4609 5.94165 17.4844C6.15259 17.6953 6.36353 17.9062 6.57446 18.1172C6.60573 18.4609 6.60573 18.8047 6.57446 19.1484C6.36353 19.3594 6.15259 19.5703 5.94165 19.7812C5.59792 19.8125 5.25414 19.8125 4.9104 19.7812C4.69946 19.5703 4.48853 19.3594 4.27759 19.1484C4.24634 18.8047 4.24634 18.4609 4.27759 18.1172C4.49806 17.9046 4.70899 17.6858 4.9104 17.4609Z" fill="#FCCF72"/>
</g>
<defs>
<clipPath id="clip0_4474_5106">
<rect width="24" height="24" fill="white" transform="translate(0.105713)"/>
</clipPath>
</defs>
</svg>
