<svg width="25" height="24" viewBox="0 0 25 24" fill="none" xmlns="http://www.w3.org/2000/svg">
<g clip-path="url(#clip0_4474_5105)">
<path opacity="0.995" fill-rule="evenodd" clip-rule="evenodd" d="M16.0198 -0.0234375C17.1448 -0.0234375 18.2698 -0.0234375 19.3948 -0.0234375C20.7733 0.0828558 22.1483 0.223481 23.5198 0.398438C22.2414 1.70024 20.9524 2.99711 19.6526 4.28906C19.6216 4.35862 19.5825 4.42112 19.5354 4.47656C19.5198 4.47656 19.5041 4.47656 19.4885 4.47656C18.0354 3.00781 16.5823 1.53906 15.1292 0.0703125C15.4335 0.0471525 15.7303 0.0159023 16.0198 -0.0234375Z" fill="#C86E59"/>
<path opacity="0.997" fill-rule="evenodd" clip-rule="evenodd" d="M15.1292 0.0703125C16.5823 1.53906 18.0354 3.00781 19.4885 4.47656C19.176 4.8203 18.8479 5.14842 18.5042 5.46094C16.7854 3.72656 15.0667 1.99219 13.3479 0.257812C13.9389 0.171308 14.5327 0.108808 15.1292 0.0703125Z" fill="#FEF4F4"/>
<path opacity="0.998" fill-rule="evenodd" clip-rule="evenodd" d="M13.3479 0.257812C15.0667 1.99219 16.7854 3.72656 18.5042 5.46094C18.5042 5.47655 18.5042 5.4922 18.5042 5.50781C17.8308 6.13425 17.1902 6.7905 16.5823 7.47656C16.5667 7.47656 16.551 7.47656 16.5354 7.47656C16.3886 7.35333 16.248 7.22053 16.1135 7.07812C16.0667 7.04686 16.0198 7.04686 15.9729 7.07812C15.6682 7.38281 15.3635 7.6875 15.0588 7.99219C14.5823 7.51561 14.1057 7.03908 13.6292 6.5625C13.2552 6.83428 12.9115 7.15462 12.5979 7.52344C13.0738 8.0228 13.5582 8.51498 14.051 9C13.4019 9.65691 12.7457 10.3053 12.0823 10.9453C11.5829 10.4694 11.0907 9.98503 10.6057 9.49219C10.2698 9.82814 9.93385 10.164 9.5979 10.5C10.0907 10.985 10.5752 11.4772 11.051 11.9766C10.4189 12.6322 9.77823 13.2806 9.12915 13.9219C9.09789 13.9531 9.06667 13.9531 9.0354 13.9219C8.55882 13.4453 8.08229 12.9688 7.60571 12.4922C7.2932 12.8047 6.98073 13.1172 6.66821 13.4297C6.63695 13.461 6.63695 13.4922 6.66821 13.5234C7.14479 14 7.62132 14.4765 8.0979 14.9531C7.76129 15.2819 7.43317 15.6179 7.11353 15.9609C7.30201 16.1182 7.4739 16.29 7.62915 16.4766C7.64476 16.5078 7.66042 16.539 7.67603 16.5703C7.00267 17.1968 6.36207 17.853 5.75415 18.5391C5.73854 18.5391 5.72288 18.5391 5.70728 18.5391C3.94165 16.7422 2.1604 14.961 0.363525 13.1953C1.44507 5.62941 5.77318 1.3169 13.3479 0.257812Z" fill="#C86E59"/>
<path fill-rule="evenodd" clip-rule="evenodd" d="M23.5198 0.398438C23.7849 1.83232 23.9724 3.26981 24.0823 4.71094C24.0823 5.82033 24.0823 6.92967 24.0823 8.03906C24.0429 8.32852 24.0117 8.62537 23.9885 8.92969C22.4885 7.46095 21.0041 5.97656 19.5354 4.47656C19.5825 4.42112 19.6216 4.35862 19.6526 4.28906C20.9524 2.99711 22.2414 1.70024 23.5198 0.398438Z" fill="#873F2E"/>
<path fill-rule="evenodd" clip-rule="evenodd" d="M19.4885 4.47656C19.5041 4.47656 19.5198 4.47656 19.5354 4.47656C21.0041 5.97656 22.4885 7.46095 23.9885 8.92969C23.9481 9.53475 23.87 10.1285 23.7542 10.7109C22.0042 8.97656 20.2541 7.24219 18.5042 5.50781C18.5042 5.4922 18.5042 5.47655 18.5042 5.46094C18.8479 5.14842 19.176 4.8203 19.4885 4.47656Z" fill="#D1C4C1"/>
<path fill-rule="evenodd" clip-rule="evenodd" d="M18.5042 5.50781C20.2541 7.24219 22.0042 8.97656 23.7542 10.7109C22.6444 18.2269 18.3319 22.5394 10.8167 23.6484C9.12915 21.9453 7.44165 20.2422 5.75415 18.5391C6.36207 17.853 7.00267 17.1967 7.67603 16.5703C7.81571 16.6943 7.95634 16.8193 8.0979 16.9453C8.44098 16.6257 8.77693 16.2975 9.10571 15.9609C9.60573 16.461 10.1057 16.9609 10.6057 17.4609C10.9437 17.1386 11.264 16.8027 11.5667 16.4531C11.0999 15.9394 10.6155 15.4395 10.1135 14.9531C10.7626 14.2962 11.4189 13.6478 12.0823 13.0078C12.5738 13.4759 13.0582 13.9524 13.5354 14.4375C13.9093 14.1657 14.2531 13.8454 14.5667 13.4766C14.0823 12.9765 13.5979 12.4766 13.1135 11.9766C13.7535 11.3131 14.4019 10.6569 15.0588 10.0078C15.5452 10.5098 16.0451 10.9942 16.5588 11.4609C16.9084 11.1583 17.2443 10.838 17.5667 10.5C17.0666 9.99998 16.5667 9.50002 16.0667 9C16.4033 8.67122 16.7314 8.33527 17.051 7.99219C16.8938 7.81936 16.7375 7.64752 16.5823 7.47656C17.1902 6.7905 17.8308 6.13425 18.5042 5.50781Z" fill="#873F2E"/>
<path fill-rule="evenodd" clip-rule="evenodd" d="M16.5354 7.47656C13.623 10.4749 10.7012 13.4671 7.76979 16.4531C7.72535 16.4758 7.67847 16.4835 7.62916 16.4766C7.47391 16.29 7.30202 16.1182 7.11354 15.9609C7.43318 15.6179 7.7613 15.2819 8.09791 14.9531C7.62133 14.4765 7.1448 14 6.66822 13.5234C6.63696 13.4922 6.63696 13.461 6.66822 13.4297C6.98074 13.1172 7.29321 12.8047 7.60572 12.4922C8.0823 12.9688 8.55883 13.4453 9.03541 13.9219C9.06668 13.9531 9.0979 13.9531 9.12916 13.9219C9.77824 13.2806 10.4189 12.6322 11.051 11.9766C10.5752 11.4772 10.0908 10.985 9.59791 10.5C9.93387 10.164 10.2698 9.82814 10.6057 9.49219C11.0907 9.98503 11.5829 10.4694 12.0823 10.9453C12.7457 10.3053 13.402 9.65691 14.051 9C13.5582 8.51498 13.0738 8.0228 12.5979 7.52344C12.9115 7.15462 13.2552 6.83428 13.6292 6.5625C14.1057 7.03908 14.5823 7.51561 15.0588 7.99219C15.3635 7.6875 15.6682 7.38281 15.9729 7.07812C16.0198 7.04686 16.0667 7.04686 16.1135 7.07812C16.248 7.22053 16.3886 7.35333 16.5354 7.47656Z" fill="#FEF3F2"/>
<path fill-rule="evenodd" clip-rule="evenodd" d="M16.5354 7.47656C16.551 7.47656 16.5667 7.47656 16.5823 7.47656C16.7375 7.64752 16.8938 7.81936 17.051 7.99219C16.7314 8.33527 16.4033 8.67122 16.0667 9C16.5667 9.50002 17.0666 9.99998 17.5667 10.5C17.2443 10.838 16.9084 11.1583 16.5588 11.4609C16.0451 10.9942 15.5452 10.5098 15.0588 10.0078C14.4019 10.6569 13.7535 11.3131 13.1135 11.9766C13.5979 12.4766 14.0823 12.9765 14.5667 13.4766C14.2531 13.8454 13.9093 14.1657 13.5354 14.4375C13.0582 13.9524 12.5738 13.4759 12.0823 13.0078C11.4189 13.6478 10.7626 14.2962 10.1135 14.9531C10.6155 15.4395 11.0999 15.9394 11.5667 16.4531C11.264 16.8027 10.9437 17.1386 10.6057 17.4609C10.1057 16.9609 9.60573 16.461 9.10571 15.9609C8.77693 16.2975 8.44098 16.6257 8.0979 16.9453C7.95634 16.8193 7.81571 16.6943 7.67603 16.5703C7.66042 16.539 7.64476 16.5078 7.62915 16.4766C7.67846 16.4835 7.72534 16.4758 7.76978 16.4531C10.7012 13.4671 13.623 10.4749 16.5354 7.47656Z" fill="#D2C4C1"/>
<path opacity="0.996" fill-rule="evenodd" clip-rule="evenodd" d="M0.363525 13.1953C2.1604 14.961 3.94165 16.7422 5.70728 18.5391C5.39476 18.8828 5.06663 19.2109 4.7229 19.5234C3.22058 17.9742 1.68933 16.4586 0.12915 14.9766C0.186843 14.379 0.264968 13.7852 0.363525 13.1953Z" fill="#FEF4F4"/>
<path opacity="0.995" fill-rule="evenodd" clip-rule="evenodd" d="M0.12915 14.9766C1.68933 16.4586 3.22058 17.9742 4.7229 19.5234C4.7229 19.539 4.7229 19.5547 4.7229 19.5703C3.37906 20.9142 2.05094 22.2735 0.738525 23.6484C0.566236 22.9277 0.433424 22.1934 0.340088 21.4453C0.238193 20.596 0.152255 19.7522 0.0822754 18.9141C0.0822754 17.8047 0.0822754 16.6953 0.0822754 15.5859C0.128442 15.3922 0.144067 15.189 0.12915 14.9766Z" fill="#C86E59"/>
<path fill-rule="evenodd" clip-rule="evenodd" d="M5.70728 18.5391C5.72288 18.5391 5.73854 18.5391 5.75415 18.5391C7.44165 20.2422 9.12915 21.9453 10.8167 23.6484C10.2288 23.7571 9.63507 23.8352 9.0354 23.8828C7.61354 22.4297 6.17603 20.9922 4.7229 19.5703C4.7229 19.5547 4.7229 19.539 4.7229 19.5234C5.06663 19.2109 5.39476 18.8828 5.70728 18.5391Z" fill="#D1C4C1"/>
<path fill-rule="evenodd" clip-rule="evenodd" d="M4.7229 19.5703C6.17603 20.9922 7.61354 22.4297 9.0354 23.8828C8.66795 23.9007 8.3086 23.932 7.95728 23.9766C6.7854 23.9766 5.61353 23.9766 4.44165 23.9766C3.21084 23.9013 1.97647 23.7919 0.738525 23.6484C2.05094 22.2735 3.37906 20.9142 4.7229 19.5703Z" fill="#873F2E"/>
</g>
<defs>
<clipPath id="clip0_4474_5105">
<rect width="24" height="24" fill="white" transform="translate(0.105713)"/>
</clipPath>
</defs>
</svg>
