<svg width="25" height="24" viewBox="0 0 25 24" fill="none" xmlns="http://www.w3.org/2000/svg">
<g clip-path="url(#clip0_4474_5104)">
<path opacity="0.99" fill-rule="evenodd" clip-rule="evenodd" d="M10.7698 1.47656C11.7698 1.47656 12.7698 1.47656 13.7698 1.47656C13.6951 2.05508 13.617 2.6332 13.5354 3.21094C12.6604 3.21094 11.7854 3.21094 10.9104 3.21094C10.8618 2.63293 10.8149 2.05481 10.7698 1.47656Z" fill="#FFD13B"/>
<path opacity="0.992" fill-rule="evenodd" clip-rule="evenodd" d="M14.6135 1.47657C15.9184 1.46104 17.2153 1.47667 18.5042 1.52344C17.551 1.52344 16.5979 1.52344 15.6448 1.52344C15.6448 2.08594 15.6448 2.64844 15.6448 3.21094C15.2698 3.21094 14.8948 3.21094 14.5198 3.21094C14.5736 2.63415 14.6049 2.05602 14.6135 1.47657Z" fill="#FFD23C"/>
<path fill-rule="evenodd" clip-rule="evenodd" d="M10.7698 1.47656C10.8149 2.05481 10.8618 2.63293 10.9104 3.21094C9.59753 3.19532 8.28503 3.21095 6.9729 3.25781C6.83082 3.57441 6.64332 3.85566 6.4104 4.10156C6.34374 4.09178 6.28126 4.06835 6.2229 4.03125C5.83867 3.68595 5.46367 3.33439 5.0979 2.97656C5.44173 2.53922 5.62923 2.03922 5.6604 1.47656C7.36351 1.47656 9.06667 1.47656 10.7698 1.47656Z" fill="#FFEE58"/>
<path fill-rule="evenodd" clip-rule="evenodd" d="M13.7698 1.47656C14.051 1.47656 14.3323 1.47656 14.6135 1.47656C14.6049 2.05601 14.5736 2.63414 14.5198 3.21094C14.1917 3.21094 13.8635 3.21094 13.5354 3.21094C13.617 2.6332 13.6951 2.05508 13.7698 1.47656Z" fill="#FFEE58"/>
<path fill-rule="evenodd" clip-rule="evenodd" d="M18.5042 1.52344C18.5469 2.04237 18.7187 2.51112 19.0198 2.92969C19.0614 3.0345 19.1239 3.12825 19.2073 3.21094C18.8789 3.66391 18.5351 4.10141 18.176 4.52344C17.7609 4.17064 17.4328 3.74877 17.1917 3.25781C16.677 3.21099 16.1613 3.19537 15.6448 3.21094C15.6448 2.64844 15.6448 2.08594 15.6448 1.52344C16.5979 1.52344 17.551 1.52344 18.5042 1.52344Z" fill="#FFEE58"/>
<path opacity="0.987" fill-rule="evenodd" clip-rule="evenodd" d="M5.0979 2.97656C5.46366 3.33439 5.83866 3.68595 6.2229 4.03125C6.28126 4.06835 6.34374 4.09178 6.4104 4.10156C6.05762 4.51666 5.63574 4.84481 5.14477 5.08594C5.0979 6.10106 5.08229 7.1167 5.0979 8.13281C4.51977 8.13281 3.94164 8.13281 3.36352 8.13281C3.3479 6.67936 3.36353 5.22623 3.4104 3.77344C4.07891 3.72294 4.64141 3.45732 5.0979 2.97656Z" fill="#FFD13B"/>
<path opacity="0.985" fill-rule="evenodd" clip-rule="evenodd" d="M19.0198 2.92969C19.4808 3.44322 20.059 3.72447 20.7542 3.77344C20.801 4.81983 20.8166 5.86673 20.801 6.91406C20.2232 6.88852 19.6451 6.87291 19.0667 6.86719C19.0745 6.28884 19.0667 5.71073 19.0432 5.13281C18.7197 4.97259 18.4307 4.76944 18.176 4.52344C18.5351 4.10141 18.8789 3.66391 19.2073 3.21094C19.1239 3.12825 19.0614 3.0345 19.0198 2.92969Z" fill="#FFD13B"/>
<path fill-rule="evenodd" clip-rule="evenodd" d="M10.9104 3.21093C11.7854 3.21093 12.6604 3.21093 13.5354 3.21093C13.8635 3.21093 14.1916 3.21093 14.5198 3.21093C14.8948 3.21093 15.2698 3.21093 15.6448 3.21093C16.1613 3.19536 16.677 3.21099 17.1916 3.25781C17.4328 3.74876 17.7609 4.17064 18.176 4.52343C18.4307 4.76943 18.7197 4.97259 19.0432 5.13281C19.0666 5.71073 19.0745 6.28884 19.0666 6.86718C19.0666 7.10156 19.0666 7.33593 19.0666 7.57031C19.0666 7.91404 19.0666 8.25782 19.0666 8.60156C19.0751 9.44596 19.0595 10.2897 19.0198 11.1328C18.9658 11.6164 18.8877 12.1008 18.7854 12.5859C18.4573 12.5859 18.1291 12.5859 17.801 12.5859C17.8674 12.1327 17.9378 11.6796 18.012 11.2266C18.0432 9.38282 18.0432 7.53904 18.012 5.69531C17.4619 5.27807 16.9853 4.79371 16.5823 4.24218C13.5823 4.17968 10.5823 4.17968 7.58227 4.24218C7.19391 4.78678 6.72516 5.25553 6.17602 5.64843C6.12132 7.50759 6.11353 9.36698 6.15258 11.2266C6.22678 11.6796 6.2971 12.1327 6.36352 12.5859C6.03539 12.5859 5.70727 12.5859 5.37914 12.5859C5.25914 12.0068 5.16539 11.4286 5.09789 10.8516C5.09789 10.3203 5.09789 9.78904 5.09789 9.25781C5.09789 8.88281 5.09789 8.50781 5.09789 8.13281C5.08228 7.1167 5.09789 6.10106 5.14477 5.08593C5.63574 4.84481 6.05761 4.51666 6.41039 4.10156C6.64332 3.85566 6.83082 3.5744 6.97289 3.25781C8.28502 3.21094 9.59752 3.19532 10.9104 3.21093Z" fill="#FF823B"/>
<path fill-rule="evenodd" clip-rule="evenodd" d="M7.58228 4.24219C10.5823 4.17969 13.5823 4.17969 16.5823 4.24219C15.2149 4.22665 13.8555 4.24228 12.5042 4.28906C12.2229 4.28906 11.9417 4.28906 11.6604 4.28906C10.309 4.24228 8.94967 4.22665 7.58228 4.24219Z" fill="#FD903C"/>
<path fill-rule="evenodd" clip-rule="evenodd" d="M7.58227 4.2422C8.94966 4.22666 10.309 4.24229 11.6604 4.28907C10.3105 4.51854 9.16988 5.1279 8.23852 6.1172C8.00855 6.27648 7.79762 6.46398 7.60571 6.6797C7.36693 6.92598 7.15599 7.19157 6.9729 7.47657C6.72291 7.64846 6.72291 7.82031 6.9729 7.9922C7.03159 8.06256 7.07846 8.1407 7.11352 8.22657C7.01007 8.37859 6.90066 8.52704 6.7854 8.67188C7.75173 10.0914 9.01735 11.1539 10.5823 11.8594C11.6872 12.2259 12.7809 12.1946 13.8635 11.7656C15.3541 11.0557 16.5494 10.0166 17.4495 8.64845C17.3377 8.51349 17.2361 8.37287 17.1448 8.22657C17.2361 8.08028 17.3377 7.93965 17.4495 7.8047C17.4738 7.72084 17.4582 7.6427 17.4026 7.57032C17.1817 7.33393 16.9786 7.0839 16.7932 6.82032C16.5546 6.55792 16.2968 6.32354 16.0198 6.1172C15.0539 5.12195 13.882 4.5126 12.5041 4.28907C13.8555 4.24229 15.2149 4.22666 16.5823 4.2422C16.9853 4.79373 17.4619 5.27809 18.012 5.69532C18.0432 7.53906 18.0432 9.38284 18.012 11.2266C17.9378 11.6796 17.8674 12.1328 17.801 12.5859C17.1292 12.5859 16.4573 12.5859 15.7854 12.5859C15.6292 12.5859 15.4729 12.5859 15.3166 12.5859C14.3323 12.5859 13.3479 12.5859 12.3635 12.5859C12.1916 12.5859 12.0198 12.5859 11.8479 12.5859C11.2854 12.5859 10.7229 12.5859 10.1604 12.5859C9.58229 12.5859 9.00413 12.5859 8.42602 12.5859C7.73851 12.5859 7.05104 12.5859 6.36352 12.5859C6.2971 12.1328 6.22679 11.6796 6.15259 11.2266C6.11354 9.36699 6.12132 7.5076 6.17602 5.64845C6.72516 5.25554 7.19391 4.78679 7.58227 4.2422Z" fill="#FEB23B"/>
<path fill-rule="evenodd" clip-rule="evenodd" d="M11.6604 4.28906C11.9417 4.28906 12.2229 4.28906 12.5042 4.28906C13.882 4.51259 15.0539 5.12194 16.0198 6.11719C15.8635 6.28908 15.7073 6.46092 15.551 6.63281C15.2328 6.38695 14.9203 6.12914 14.6135 5.85938C12.9555 4.64333 11.2993 4.64333 9.64478 5.85938C9.32457 6.10941 9.01206 6.36722 8.70728 6.63281C8.55104 6.46092 8.39476 6.28908 8.23853 6.11719C9.16988 5.12789 10.3105 4.51853 11.6604 4.28906Z" fill="#D2575E"/>
<path fill-rule="evenodd" clip-rule="evenodd" d="M15.551 6.6328C15.551 6.64841 15.551 6.66407 15.551 6.67968C15.2684 6.89994 15.034 7.16558 14.8479 7.47655C14.4885 7.47655 14.1292 7.47655 13.7698 7.47655C13.7775 7.3506 13.7696 7.22558 13.7463 7.10155C13.5901 6.91405 13.4338 6.91405 13.2776 7.10155C13.2543 7.22558 13.2465 7.3506 13.2542 7.47655C13.1135 7.47655 12.9729 7.47655 12.8323 7.47655C12.84 7.3506 12.8321 7.22558 12.8088 7.10155C12.6857 6.93411 12.5451 6.9185 12.387 7.05468C12.3265 7.18832 12.3031 7.32894 12.3167 7.47655C12.176 7.47655 12.0354 7.47655 11.8948 7.47655C11.9025 7.3506 11.8946 7.22558 11.8713 7.10155C11.7482 6.93411 11.6076 6.9185 11.4495 7.05468C11.4261 7.19446 11.4183 7.33508 11.426 7.47655C11.2698 7.47655 11.1135 7.47655 10.9573 7.47655C10.965 7.3506 10.9571 7.22558 10.9338 7.10155C10.7955 6.9149 10.6548 6.9149 10.512 7.10155C10.4887 7.22558 10.4808 7.3506 10.4885 7.47655C10.1291 7.47655 9.76979 7.47655 9.4104 7.47655C9.22454 7.16586 8.99017 6.90022 8.70728 6.67968C8.70728 6.66407 8.70728 6.64841 8.70728 6.6328C9.01206 6.36721 9.32457 6.1094 9.64478 5.85936C11.2993 4.64331 12.9555 4.64331 14.6135 5.85936C14.9203 6.12913 15.2328 6.38694 15.551 6.6328Z" fill="#EA795E"/>
<path fill-rule="evenodd" clip-rule="evenodd" d="M8.23853 6.11719C8.39476 6.28908 8.55104 6.46092 8.70728 6.63281C8.70728 6.64842 8.70728 6.66408 8.70728 6.67969C8.45204 6.91894 8.23328 7.18453 8.05103 7.47656C7.69163 7.47656 7.33229 7.47656 6.9729 7.47656C7.15599 7.19156 7.36693 6.92597 7.60571 6.67969C7.79762 6.46397 8.00856 6.27647 8.23853 6.11719Z" fill="#FE5846"/>
<path fill-rule="evenodd" clip-rule="evenodd" d="M16.0198 6.11719C16.2968 6.32353 16.5546 6.55791 16.7932 6.82031C16.9786 7.08389 17.1817 7.33392 17.4026 7.57031C17.4582 7.64269 17.4738 7.72083 17.4495 7.80469C17.3377 7.93964 17.2361 8.08027 17.1448 8.22656C16.7998 8.60283 16.4404 8.96222 16.0667 9.30469C15.8486 9.16472 15.6611 8.99283 15.5042 8.78906C15.5042 8.77345 15.5042 8.7578 15.5042 8.74219C15.7404 8.50608 15.9591 8.25605 16.1604 7.99219C16.4792 7.99411 16.5886 7.84566 16.4885 7.54688C16.402 7.494 16.3083 7.47056 16.2073 7.47656C16.025 7.18453 15.8063 6.91894 15.551 6.67969C15.551 6.66408 15.551 6.64842 15.551 6.63281C15.7073 6.46092 15.8635 6.28908 16.0198 6.11719Z" fill="#FE5846"/>
<path fill-rule="evenodd" clip-rule="evenodd" d="M8.70728 6.67969C8.99017 6.90023 9.22454 7.16588 9.4104 7.47656C8.95726 7.47656 8.50417 7.47656 8.05103 7.47656C8.23328 7.18453 8.45204 6.91894 8.70728 6.67969Z" fill="#FE9C5E"/>
<path fill-rule="evenodd" clip-rule="evenodd" d="M15.551 6.67969C15.8063 6.91894 16.025 7.18453 16.2073 7.47656C15.7541 7.47656 15.301 7.47656 14.8479 7.47656C15.034 7.16559 15.2684 6.89995 15.551 6.67969Z" fill="#FE9C5E"/>
<path fill-rule="evenodd" clip-rule="evenodd" d="M19.0667 6.86719C19.6451 6.87291 20.2232 6.88852 20.801 6.91406C20.801 7.1797 20.801 7.4453 20.801 7.71094C20.225 7.64259 19.6469 7.59572 19.0667 7.57031C19.0667 7.33594 19.0667 7.10156 19.0667 6.86719Z" fill="#FFED57"/>
<path fill-rule="evenodd" clip-rule="evenodd" d="M14.8479 7.47656C15.301 7.47656 15.7541 7.47656 16.2073 7.47656C16.3083 7.47056 16.402 7.494 16.4885 7.54688C16.5885 7.84566 16.4791 7.99411 16.1604 7.99219C15.7229 7.99219 15.2854 7.99219 14.8479 7.99219C14.4885 7.99219 14.1292 7.99219 13.7698 7.99219C13.8337 8.37384 13.6852 8.51447 13.3245 8.41406C13.264 8.28042 13.2406 8.1398 13.2541 7.99219C13.1135 7.99219 12.9729 7.99219 12.8323 7.99219C12.8507 8.15297 12.8195 8.30138 12.7385 8.4375C12.4024 8.48409 12.2617 8.33564 12.3166 7.99219C12.176 7.99219 12.0354 7.99219 11.8948 7.99219C11.9025 8.11814 11.8946 8.24316 11.8713 8.36719C11.5089 8.52961 11.3448 8.40464 11.3791 7.99219C11.2541 7.99219 11.1292 7.99219 11.0041 7.99219C11.0385 8.40464 10.8744 8.52961 10.512 8.36719C10.4887 8.24316 10.4808 8.11814 10.4885 7.99219C10.1291 7.99219 9.76978 7.99219 9.41039 7.99219C8.9729 7.99219 8.53537 7.99219 8.09789 7.99219C7.72289 7.99219 7.34789 7.99219 6.97289 7.99219C6.7229 7.8203 6.7229 7.64845 6.97289 7.47656C7.33228 7.47656 7.69162 7.47656 8.05101 7.47656C8.50415 7.47656 8.95725 7.47656 9.41039 7.47656C9.76978 7.47656 10.1291 7.47656 10.4885 7.47656C10.4808 7.35061 10.4887 7.22559 10.512 7.10156C10.6548 6.91491 10.7955 6.91491 10.9338 7.10156C10.9571 7.22559 10.965 7.35061 10.9573 7.47656C11.1135 7.47656 11.2698 7.47656 11.426 7.47656C11.4183 7.33509 11.4261 7.19447 11.4495 7.05469C11.6076 6.91852 11.7482 6.93412 11.8713 7.10156C11.8946 7.22559 11.9025 7.35061 11.8948 7.47656C12.0354 7.47656 12.176 7.47656 12.3166 7.47656C12.3031 7.32895 12.3265 7.18833 12.387 7.05469C12.5451 6.91852 12.6857 6.93412 12.8088 7.10156C12.8321 7.22559 12.84 7.35061 12.8323 7.47656C12.9729 7.47656 13.1135 7.47656 13.2541 7.47656C13.2465 7.35061 13.2543 7.22559 13.2776 7.10156C13.4338 6.91406 13.5901 6.91406 13.7463 7.10156C13.7696 7.22559 13.7775 7.35061 13.7698 7.47656C14.1292 7.47656 14.4885 7.47656 14.8479 7.47656Z" fill="#B54446"/>
<path opacity="0.988" fill-rule="evenodd" clip-rule="evenodd" d="M19.0667 7.57031C19.6469 7.59572 20.225 7.64259 20.801 7.71094C20.801 8.03906 20.801 8.36719 20.801 8.69531C20.2215 8.68739 19.6434 8.65612 19.0667 8.60156C19.0667 8.25783 19.0667 7.91405 19.0667 7.57031Z" fill="#FFD13B"/>
<path fill-rule="evenodd" clip-rule="evenodd" d="M6.9729 7.99219C7.3479 7.99219 7.7229 7.99219 8.0979 7.99219C8.29918 8.25605 8.51795 8.50608 8.75415 8.74219C8.75415 8.7578 8.75415 8.77345 8.75415 8.78906C8.58362 8.97534 8.41173 9.16284 8.23853 9.35156C7.84665 8.99091 7.47165 8.61591 7.11353 8.22656C7.07846 8.14069 7.03159 8.06255 6.9729 7.99219Z" fill="#FE5746"/>
<path fill-rule="evenodd" clip-rule="evenodd" d="M8.0979 7.99219C8.53538 7.99219 8.97292 7.99219 9.4104 7.99219C9.23537 8.2792 9.01665 8.52919 8.75415 8.74219C8.51795 8.50608 8.29918 8.25605 8.0979 7.99219Z" fill="#FE9B5E"/>
<path fill-rule="evenodd" clip-rule="evenodd" d="M9.4104 7.99219C9.76979 7.99219 10.1291 7.99219 10.4885 7.99219C10.4808 8.11814 10.4887 8.24316 10.512 8.36719C10.8744 8.52961 11.0385 8.40464 11.0042 7.99219C11.1292 7.99219 11.2541 7.99219 11.3792 7.99219C11.3448 8.40464 11.5089 8.52961 11.8713 8.36719C11.8946 8.24316 11.9025 8.11814 11.8948 7.99219C12.0354 7.99219 12.176 7.99219 12.3167 7.99219C12.2618 8.33564 12.4024 8.48409 12.7385 8.4375C12.8195 8.30138 12.8507 8.15297 12.8323 7.99219C12.9729 7.99219 13.1135 7.99219 13.2542 7.99219C13.2406 8.1398 13.264 8.28042 13.3245 8.41406C13.6853 8.51447 13.8337 8.37384 13.7698 7.99219C14.1292 7.99219 14.4885 7.99219 14.8479 7.99219C15.0229 8.2792 15.2417 8.52919 15.5042 8.74219C15.5042 8.7578 15.5042 8.77345 15.5042 8.78906C15.1554 9.05138 14.8117 9.3248 14.4729 9.60938C12.9099 10.7001 11.3474 10.7001 9.7854 9.60938C9.44663 9.3248 9.1029 9.05138 8.75415 8.78906C8.75415 8.77345 8.75415 8.7578 8.75415 8.74219C9.01665 8.52919 9.23537 8.2792 9.4104 7.99219Z" fill="#EA795E"/>
<path fill-rule="evenodd" clip-rule="evenodd" d="M14.8479 7.99219C15.2854 7.99219 15.7229 7.99219 16.1604 7.99219C15.9591 8.25605 15.7404 8.50608 15.5042 8.74219C15.2417 8.52919 15.0229 8.2792 14.8479 7.99219Z" fill="#FE9B5E"/>
<path fill-rule="evenodd" clip-rule="evenodd" d="M3.36353 8.13281C3.94165 8.13281 4.51978 8.13281 5.0979 8.13281C5.0979 8.50781 5.0979 8.88281 5.0979 9.25781C4.51978 9.25781 3.94165 9.25781 3.36353 9.25781C3.36353 8.88281 3.36353 8.50781 3.36353 8.13281Z" fill="#FFEE58"/>
<path fill-rule="evenodd" clip-rule="evenodd" d="M7.11353 8.22656C7.47165 8.61591 7.84665 8.99091 8.23853 9.35156C10.8586 11.7978 13.4679 11.7822 16.0667 9.30469C16.4404 8.96222 16.7998 8.60283 17.1448 8.22656C17.2361 8.37286 17.3377 8.51348 17.4495 8.64844C16.5494 10.0166 15.3541 11.0557 13.8635 11.7656C12.7809 12.1946 11.6872 12.2258 10.5823 11.8594C9.01735 11.1539 7.75173 10.0913 6.7854 8.67188C6.90067 8.52703 7.01007 8.37858 7.11353 8.22656Z" fill="#FE813B"/>
<path fill-rule="evenodd" clip-rule="evenodd" d="M19.0667 8.60156C19.6434 8.65613 20.2215 8.68739 20.801 8.69531C20.8089 9.46111 20.801 10.2267 20.7776 10.9922C20.7693 11.1885 20.7459 11.376 20.7073 11.5547C20.1451 11.4922 19.5826 11.4297 19.0198 11.3672C19.0198 11.289 19.0198 11.211 19.0198 11.1328C19.0595 10.2897 19.0751 9.44597 19.0667 8.60156Z" fill="#FFEE58"/>
<path fill-rule="evenodd" clip-rule="evenodd" d="M8.75415 8.78906C9.1029 9.05138 9.44663 9.3248 9.7854 9.60937C11.3474 10.7001 12.9099 10.7001 14.4729 9.60937C14.8117 9.3248 15.1554 9.05138 15.5042 8.78906C15.6611 8.99283 15.8486 9.16472 16.0667 9.30469C13.4679 11.7822 10.8586 11.7978 8.23853 9.35156C8.41173 9.16284 8.58362 8.97534 8.75415 8.78906Z" fill="#D2575E"/>
<path opacity="0.986" fill-rule="evenodd" clip-rule="evenodd" d="M3.36349 9.25781C3.94161 9.25781 4.51974 9.25781 5.09786 9.25781C5.09786 9.78905 5.09786 10.3203 5.09786 10.8516C4.53825 10.9372 3.97575 10.9996 3.41036 11.0391C3.36443 10.449 3.34881 9.85528 3.36349 9.25781Z" fill="#FFD13B"/>
<path fill-rule="evenodd" clip-rule="evenodd" d="M5.0979 10.8516C5.1654 11.4286 5.25915 12.0068 5.37915 12.5859C5.37915 12.6015 5.37915 12.6172 5.37915 12.6328C5.44899 12.8965 5.51148 13.1622 5.56665 13.4297C5.56665 13.4766 5.56665 13.5234 5.56665 13.5703C5.07062 13.7435 4.57846 13.931 4.09009 14.1328C4.0478 14.1214 4.00874 14.1058 3.9729 14.0859C3.6397 13.103 3.4522 12.0873 3.4104 11.0391C3.97579 10.9996 4.53829 10.9372 5.0979 10.8516Z" fill="#FEED58"/>
<path opacity="0.989" fill-rule="evenodd" clip-rule="evenodd" d="M19.0198 11.1328C19.0198 11.211 19.0198 11.289 19.0198 11.3672C19.5826 11.4297 20.1451 11.4922 20.7073 11.5547C20.673 12.1246 20.5871 12.6871 20.4495 13.2422C20.293 13.8443 20.1133 14.4381 19.9104 15.0234C19.3271 14.8863 18.749 14.73 18.176 14.5547C18.426 13.9297 18.6292 13.289 18.7854 12.6328C18.7854 12.6172 18.7854 12.6015 18.7854 12.5859C18.8877 12.1008 18.9658 11.6164 19.0198 11.1328Z" fill="#FED03B"/>
<path fill-rule="evenodd" clip-rule="evenodd" d="M5.37915 12.6328C5.83229 12.6328 6.28538 12.6328 6.73853 12.6328C6.73853 13.2109 6.73853 13.7891 6.73853 14.3672C6.4922 14.4112 6.24999 14.4737 6.01196 14.5547C5.99401 14.5286 5.97057 14.513 5.94165 14.5078C5.81556 14.145 5.69054 13.7856 5.56665 13.4297C5.51148 13.1622 5.44899 12.8965 5.37915 12.6328Z" fill="#869BEB"/>
<path fill-rule="evenodd" clip-rule="evenodd" d="M5.37915 12.6328C5.37915 12.6172 5.37915 12.6015 5.37915 12.5859C5.70728 12.5859 6.0354 12.5859 6.36353 12.5859C7.05104 12.5859 7.73851 12.5859 8.42603 12.5859C8.42603 12.6015 8.42603 12.6172 8.42603 12.6328C8.01976 12.6328 7.61354 12.6328 7.20728 12.6328C7.17709 13.182 7.20831 13.7132 7.30103 14.2266C7.12004 14.2831 6.93254 14.33 6.73853 14.3672C6.73853 13.7891 6.73853 13.2109 6.73853 12.6328C6.28538 12.6328 5.83229 12.6328 5.37915 12.6328Z" fill="#777DA9"/>
<path fill-rule="evenodd" clip-rule="evenodd" d="M8.42605 12.6328C8.42605 13.1016 8.42605 13.5703 8.42605 14.0391C8.05105 14.1015 7.67605 14.1641 7.30105 14.2266C7.20833 13.7132 7.17711 13.182 7.2073 12.6328C7.61356 12.6328 8.01978 12.6328 8.42605 12.6328Z" fill="#869BED"/>
<path fill-rule="evenodd" clip-rule="evenodd" d="M8.42603 12.5859C9.00413 12.5859 9.58229 12.5859 10.1604 12.5859C10.1604 12.6015 10.1604 12.6172 10.1604 12.6328C9.75413 12.6328 9.34792 12.6328 8.94165 12.6328C8.92632 13.0788 8.94193 13.5163 8.98853 13.9453C8.80965 13.9913 8.62215 14.0226 8.42603 14.0391C8.42603 13.5703 8.42603 13.1016 8.42603 12.6328C8.42603 12.6172 8.42603 12.6015 8.42603 12.5859Z" fill="#717DAD"/>
<path fill-rule="evenodd" clip-rule="evenodd" d="M10.1604 12.6328C10.1604 13.0234 10.1604 13.4141 10.1604 13.8047C9.77828 13.868 9.38767 13.9149 8.98848 13.9453C8.94189 13.5163 8.92628 13.0788 8.94161 12.6328C9.34787 12.6328 9.75409 12.6328 10.1604 12.6328Z" fill="#869BED"/>
<path fill-rule="evenodd" clip-rule="evenodd" d="M10.1604 12.5859C10.7229 12.5859 11.2854 12.5859 11.8479 12.5859C11.8479 12.6015 11.8479 12.6172 11.8479 12.6328C11.4416 12.6328 11.0354 12.6328 10.6292 12.6328C10.6292 13.0234 10.6292 13.4141 10.6292 13.8047C10.4729 13.8047 10.3166 13.8047 10.1604 13.8047C10.1604 13.4141 10.1604 13.0234 10.1604 12.6328C10.1604 12.6172 10.1604 12.6015 10.1604 12.5859Z" fill="#717DAB"/>
<path fill-rule="evenodd" clip-rule="evenodd" d="M11.8479 12.6328C11.8479 13.0078 11.8479 13.3828 11.8479 13.7578C11.4403 13.7497 11.0341 13.7653 10.6292 13.8047C10.6292 13.4141 10.6292 13.0234 10.6292 12.6328C11.0354 12.6328 11.4416 12.6328 11.8479 12.6328Z" fill="#859BEC"/>
<path fill-rule="evenodd" clip-rule="evenodd" d="M11.8479 12.5859C12.0198 12.5859 12.1916 12.5859 12.3635 12.5859C12.3635 12.6015 12.3635 12.6172 12.3635 12.6328C12.3635 13.0078 12.3635 13.3828 12.3635 13.7578C12.1916 13.7578 12.0198 13.7578 11.8479 13.7578C11.8479 13.3828 11.8479 13.0078 11.8479 12.6328C11.8479 12.6172 11.8479 12.6015 11.8479 12.5859Z" fill="#6A7AAF"/>
<path fill-rule="evenodd" clip-rule="evenodd" d="M12.3635 12.6328C12.7698 12.6328 13.176 12.6328 13.5823 12.6328C13.5823 13.0234 13.5823 13.4141 13.5823 13.8047C13.1755 13.8008 12.7692 13.7851 12.3635 13.7578C12.3635 13.3828 12.3635 13.0078 12.3635 12.6328Z" fill="#879BEC"/>
<path fill-rule="evenodd" clip-rule="evenodd" d="M12.3635 12.6328C12.3635 12.6172 12.3635 12.6015 12.3635 12.5859C13.3479 12.5859 14.3323 12.5859 15.3167 12.5859C15.3167 12.6015 15.3167 12.6172 15.3167 12.6328C14.9104 12.6328 14.5042 12.6328 14.0979 12.6328C14.0979 13.0391 14.0979 13.4453 14.0979 13.8516C13.9246 13.8491 13.7527 13.8335 13.5823 13.8047C13.5823 13.4141 13.5823 13.0234 13.5823 12.6328C13.176 12.6328 12.7698 12.6328 12.3635 12.6328Z" fill="#7780AD"/>
<path fill-rule="evenodd" clip-rule="evenodd" d="M15.3167 12.6328C15.332 13.0788 15.3164 13.5163 15.2698 13.9453C14.8777 13.9251 14.4871 13.8939 14.0979 13.8516C14.0979 13.4453 14.0979 13.0391 14.0979 12.6328C14.5042 12.6328 14.9104 12.6328 15.3167 12.6328Z" fill="#869BEC"/>
<path fill-rule="evenodd" clip-rule="evenodd" d="M15.3167 12.5859C15.4729 12.5859 15.6292 12.5859 15.7854 12.5859C15.7854 12.6015 15.7854 12.6172 15.7854 12.6328C15.7854 13.1016 15.7854 13.5703 15.7854 14.0391C15.6032 14.0322 15.4313 14.001 15.2698 13.9453C15.3164 13.5163 15.332 13.0788 15.3167 12.6328C15.3167 12.6172 15.3167 12.6015 15.3167 12.5859Z" fill="#6979AC"/>
<path fill-rule="evenodd" clip-rule="evenodd" d="M15.7854 12.6328C16.1917 12.6328 16.5979 12.6328 17.0042 12.6328C17.0042 13.164 17.0042 13.6953 17.0042 14.2266C16.9417 14.2266 16.8791 14.2266 16.8167 14.2266C16.4635 14.1834 16.1198 14.1209 15.7854 14.0391C15.7854 13.5703 15.7854 13.1016 15.7854 12.6328Z" fill="#869BEC"/>
<path fill-rule="evenodd" clip-rule="evenodd" d="M15.7854 12.6328C15.7854 12.6172 15.7854 12.6015 15.7854 12.5859C16.4573 12.5859 17.1292 12.5859 17.801 12.5859C18.1292 12.5859 18.4573 12.5859 18.7854 12.5859C18.7854 12.6015 18.7854 12.6172 18.7854 12.6328C18.3635 12.6328 17.9417 12.6328 17.5198 12.6328C17.5198 13.2109 17.5198 13.7891 17.5198 14.3672C17.274 14.3493 17.0396 14.3024 16.8167 14.2266C16.8791 14.2266 16.9417 14.2266 17.0042 14.2266C17.0042 13.6953 17.0042 13.164 17.0042 12.6328C16.5979 12.6328 16.1917 12.6328 15.7854 12.6328Z" fill="#737EAE"/>
<path fill-rule="evenodd" clip-rule="evenodd" d="M18.7854 12.6328C18.6292 13.289 18.426 13.9297 18.176 14.5547C17.9499 14.4999 17.7311 14.4374 17.5198 14.3672C17.5198 13.7891 17.5198 13.2109 17.5198 12.6328C17.9417 12.6328 18.3635 12.6328 18.7854 12.6328Z" fill="#879BEC"/>
<path opacity="0.991" fill-rule="evenodd" clip-rule="evenodd" d="M5.56665 13.4297C5.69054 13.7856 5.81556 14.145 5.94165 14.5078C5.39471 14.716 4.83221 14.8879 4.25415 15.0234C4.15111 14.7142 4.05736 14.4017 3.9729 14.0859C4.00874 14.1058 4.0478 14.1214 4.09009 14.1328C4.57846 13.931 5.07062 13.7435 5.56665 13.5703C5.56665 13.5234 5.56665 13.4766 5.56665 13.4297Z" fill="#FED03C"/>
<path opacity="0.999" fill-rule="evenodd" clip-rule="evenodd" d="M11.8479 13.7578C12.0198 13.7578 12.1916 13.7578 12.3635 13.7578C12.7692 13.7851 13.1755 13.8008 13.5823 13.8047C13.7527 13.8335 13.9246 13.8491 14.0979 13.8516C14.4871 13.8939 14.8777 13.9251 15.2698 13.9453C15.4313 14.001 15.6032 14.0322 15.7854 14.0391C16.1198 14.1209 16.4635 14.1834 16.8167 14.2266C17.0396 14.3024 17.274 14.3493 17.5198 14.3672C17.7311 14.4374 17.9499 14.4999 18.176 14.5547C18.749 14.7301 19.3271 14.8863 19.9104 15.0234C20.7139 15.3311 21.5108 15.667 22.301 16.0313C22.1382 16.3647 21.9819 16.7006 21.8323 17.0391C21.6321 17.3257 21.4758 17.6382 21.3635 17.9766C15.1885 15.4783 9.01665 15.4783 2.8479 17.9766C2.70943 17.6996 2.5688 17.4184 2.42603 17.1328C2.38735 17.0913 2.34048 17.0757 2.2854 17.0859C2.29965 17.0555 2.31527 17.0242 2.33228 16.9922C2.17041 16.6695 2.0376 16.3414 1.93384 16.0078C2.69722 15.6454 3.47065 15.3173 4.25415 15.0234C4.83221 14.8879 5.39471 14.716 5.94165 14.5078C5.97057 14.513 5.99401 14.5286 6.01196 14.5547C6.24999 14.4737 6.4922 14.4112 6.73853 14.3672C6.93254 14.33 7.12004 14.2831 7.30103 14.2266C7.67603 14.1641 8.05103 14.1016 8.42603 14.0391C8.62215 14.0226 8.80965 13.9913 8.98853 13.9453C9.38771 13.9149 9.77832 13.868 10.1604 13.8047C10.3166 13.8047 10.4729 13.8047 10.6292 13.8047C11.0341 13.7653 11.4403 13.7497 11.8479 13.7578Z" fill="#FB958A"/>
<path fill-rule="evenodd" clip-rule="evenodd" d="M21.3635 17.9766C21.1454 18.4441 20.9267 18.9128 20.7073 19.3828C20.6639 19.4326 20.617 19.4326 20.5667 19.3828C19.9479 19.0776 19.3073 18.8276 18.6448 18.6328C18.4083 18.5356 18.1661 18.4418 17.9182 18.3516C17.9003 18.3776 17.8768 18.3932 17.8479 18.3984C17.785 18.3378 17.7069 18.2988 17.6135 18.2813C17.0828 18.1393 16.5515 18.0064 16.0198 17.8828C15.7854 17.8516 15.551 17.8203 15.3167 17.7891C14.9132 17.719 14.5069 17.6566 14.0979 17.6016C13.9229 17.6099 13.751 17.5943 13.5823 17.5547C13.1755 17.5508 12.7692 17.5351 12.3635 17.5078C12.2073 17.5078 12.051 17.5078 11.8948 17.5078C11.4726 17.5172 11.0507 17.5328 10.6292 17.5547C10.4697 17.5473 10.3134 17.5629 10.1604 17.6016C9.76721 17.6292 9.3766 17.6761 8.98853 17.7422C8.69659 17.7834 8.41534 17.8459 8.14478 17.9297C7.5039 17.9928 6.89453 18.1491 6.31665 18.3984C6.05963 18.432 5.8096 18.4945 5.56665 18.5859C4.86859 18.8131 4.1967 19.0944 3.55103 19.4297C3.42708 19.2763 3.32551 19.1044 3.24634 18.9141C3.09974 18.6055 2.96692 18.293 2.8479 17.9766C9.01665 15.4783 15.1885 15.4783 21.3635 17.9766Z" fill="#FB696C"/>
<path fill-rule="evenodd" clip-rule="evenodd" d="M2.2854 17.0859C2.34048 17.0757 2.38735 17.0913 2.42603 17.1328C2.5688 17.4184 2.70943 17.6996 2.8479 17.9766C2.96692 18.293 3.09974 18.6055 3.24634 18.9141C3.32551 19.1044 3.42708 19.2763 3.55103 19.4297C4.13333 19.4961 4.71146 19.5821 5.2854 19.6875C4.68144 19.8758 4.08769 20.0867 3.50415 20.3203C3.42596 20.2341 3.35565 20.1403 3.29321 20.0391C2.84136 19.0886 2.38043 18.1511 1.9104 17.2266C2.01782 17.1437 2.14282 17.0969 2.2854 17.0859Z" fill="#E83858"/>
<path fill-rule="evenodd" clip-rule="evenodd" d="M21.8323 17.0391C21.9573 17.0859 22.0823 17.1328 22.2073 17.1797C21.7909 18.1246 21.3612 19.0621 20.9182 19.9922C20.8401 20.1092 20.7542 20.2185 20.6604 20.3203C20.0355 20.1016 19.4105 19.8829 18.7854 19.6641C19.3847 19.5652 19.9784 19.4714 20.5667 19.3828C20.617 19.4326 20.6639 19.4326 20.7073 19.3828C20.9267 18.9128 21.1454 18.4441 21.3635 17.9766C21.4758 17.6382 21.6321 17.3257 21.8323 17.0391Z" fill="#E83758"/>
<path fill-rule="evenodd" clip-rule="evenodd" d="M1.9104 17.2266C2.38043 18.1511 2.84136 19.0886 3.29321 20.0391C3.35565 20.1403 3.42596 20.2341 3.50415 20.3203C3.06304 20.4986 2.62554 20.6861 2.19165 20.8828C2.17175 20.3852 2.15613 19.8852 2.14478 19.3828C1.55256 18.8681 0.943186 18.3759 0.31665 17.9062C0.831699 17.6409 1.36295 17.4143 1.9104 17.2266Z" fill="#FB495A"/>
<path opacity="0.988" fill-rule="evenodd" clip-rule="evenodd" d="M22.2073 17.1797C22.7654 17.3962 23.3123 17.6384 23.8479 17.9062C23.2327 18.3807 22.6312 18.8729 22.0432 19.3828C22.0198 19.8825 22.0119 20.3826 22.0198 20.8828C21.556 20.7128 21.1029 20.5253 20.6604 20.3203C20.7542 20.2185 20.8401 20.1092 20.9182 19.9922C21.3612 19.0621 21.7909 18.1246 22.2073 17.1797Z" fill="#FB4557"/>
<path fill-rule="evenodd" clip-rule="evenodd" d="M11.8948 17.5078C12.051 17.5078 12.2073 17.5078 12.3635 17.5078C12.3635 17.8047 12.3635 18.1016 12.3635 18.3984C12.2073 18.3984 12.051 18.3984 11.8948 18.3984C11.8948 18.1016 11.8948 17.8047 11.8948 17.5078Z" fill="#4E517B"/>
<path fill-rule="evenodd" clip-rule="evenodd" d="M12.3635 17.5078C12.7692 17.5351 13.1755 17.5507 13.5823 17.5547C13.5823 17.8515 13.5823 18.1485 13.5823 18.4453C13.1756 18.438 12.7694 18.4224 12.3635 18.3984C12.3635 18.1016 12.3635 17.8047 12.3635 17.5078Z" fill="#6878AC"/>
<path fill-rule="evenodd" clip-rule="evenodd" d="M10.6292 17.5547C10.6292 17.8672 10.6292 18.1797 10.6292 18.4922C10.4729 18.4922 10.3166 18.4922 10.1604 18.4922C10.1604 18.1953 10.1604 17.8984 10.1604 17.6016C10.3134 17.563 10.4697 17.5473 10.6292 17.5547Z" fill="#51517B"/>
<path fill-rule="evenodd" clip-rule="evenodd" d="M13.5823 17.5547C13.751 17.5943 13.9229 17.6099 14.0979 17.6016C14.0979 17.8984 14.0979 18.1953 14.0979 18.4922C13.926 18.4922 13.7542 18.4922 13.5823 18.4922C13.5823 18.4766 13.5823 18.4609 13.5823 18.4453C13.5823 18.1485 13.5823 17.8515 13.5823 17.5547Z" fill="#50527C"/>
<path fill-rule="evenodd" clip-rule="evenodd" d="M10.1604 17.6016C10.1604 17.8984 10.1604 18.1953 10.1604 18.4922C10.3166 18.4922 10.4729 18.4922 10.6292 18.4922C10.6292 18.9609 10.6292 19.4297 10.6292 19.8984C10.4547 19.8115 10.2985 19.7022 10.1604 19.5703C10.1604 19.2266 10.1604 18.8828 10.1604 18.5391C9.7511 18.5348 9.34488 18.5661 8.94166 18.6328C8.92802 18.3317 8.94363 18.0349 8.98853 17.7422C9.37661 17.6761 9.76722 17.6292 10.1604 17.6016Z" fill="#6978AC"/>
<path fill-rule="evenodd" clip-rule="evenodd" d="M14.0979 17.6016C14.5069 17.6565 14.9132 17.719 15.3167 17.7891C15.3016 18.0481 15.3172 18.2981 15.3635 18.5391C15.3265 18.5813 15.2796 18.6126 15.2229 18.6328C14.8495 18.5864 14.4745 18.5551 14.0979 18.5391C14.0827 18.8603 14.0983 19.1729 14.1448 19.4766C13.9751 19.6242 13.7876 19.7492 13.5823 19.8516C13.5823 19.3984 13.5823 18.9453 13.5823 18.4922C13.7542 18.4922 13.926 18.4922 14.0979 18.4922C14.0979 18.1953 14.0979 17.8984 14.0979 17.6016Z" fill="#6879AC"/>
<path fill-rule="evenodd" clip-rule="evenodd" d="M8.98853 17.7422C8.94362 18.0349 8.92801 18.3317 8.94165 18.6328C8.94165 18.6484 8.94165 18.6641 8.94165 18.6797C8.67601 18.4297 8.41042 18.1797 8.14478 17.9297C8.41534 17.8459 8.69659 17.7834 8.98853 17.7422Z" fill="#575883"/>
<path fill-rule="evenodd" clip-rule="evenodd" d="M15.3167 17.7891C15.5511 17.8203 15.7854 17.8515 16.0198 17.8828C15.8167 18.1172 15.5979 18.336 15.3636 18.5391C15.3173 18.2981 15.3016 18.0481 15.3167 17.7891Z" fill="#555680"/>
<path fill-rule="evenodd" clip-rule="evenodd" d="M8.14478 17.9297C8.41042 18.1797 8.67601 18.4297 8.94165 18.6797C9.26884 18.9133 9.58131 19.1633 9.87915 19.4297C9.50209 19.869 9.11148 20.2909 8.70728 20.6953C8.39579 20.4773 8.09893 20.243 7.81665 19.9922C7.29578 19.4827 6.79581 18.9515 6.31665 18.3984C6.89453 18.1491 7.5039 17.9928 8.14478 17.9297Z" fill="#FE9A3B"/>
<path fill-rule="evenodd" clip-rule="evenodd" d="M16.0198 17.8828C16.5515 18.0064 17.0828 18.1393 17.6135 18.2813C17.7069 18.2988 17.785 18.3378 17.8479 18.3984C17.3968 18.9746 16.8968 19.5059 16.3479 19.9922C16.2986 19.9992 16.2517 19.9914 16.2073 19.9688C15.7756 19.6227 15.3381 19.2868 14.8948 18.9609C15.0132 18.8623 15.1226 18.7529 15.2229 18.6328C15.2796 18.6126 15.3265 18.5813 15.3635 18.5391C15.5979 18.336 15.8167 18.1172 16.0198 17.8828Z" fill="#FE993B"/>
<path fill-rule="evenodd" clip-rule="evenodd" d="M6.31665 18.3984C6.79581 18.9515 7.29578 19.4827 7.81665 19.9922C7.5091 20.0724 7.19659 20.135 6.87915 20.1797C6.82984 20.1867 6.78296 20.1789 6.73853 20.1562C6.27217 19.6822 5.88151 19.1588 5.56665 18.5859C5.8096 18.4945 6.05963 18.432 6.31665 18.3984Z" fill="#A40858"/>
<path fill-rule="evenodd" clip-rule="evenodd" d="M18.6448 18.6328C18.2856 19.1724 17.8794 19.6802 17.426 20.1562C17.3654 20.1792 17.3029 20.187 17.2385 20.1797C16.9426 20.1268 16.6457 20.0799 16.3479 20.0391C16.3479 20.0235 16.3479 20.0078 16.3479 19.9922C16.8968 19.5059 17.3968 18.9746 17.8479 18.3984C17.8768 18.3932 17.9003 18.3776 17.9182 18.3516C18.1661 18.4418 18.4083 18.5355 18.6448 18.6328Z" fill="#A40757"/>
<path fill-rule="evenodd" clip-rule="evenodd" d="M11.7542 20.4609C11.7229 20.4609 11.6917 20.4609 11.6604 20.4609C11.3183 20.2742 10.9745 20.0867 10.6292 19.8984C10.6292 19.4297 10.6292 18.9609 10.6292 18.4922C11.0295 18.4153 11.4357 18.384 11.8479 18.3984C11.8784 19.1033 11.8471 19.7908 11.7542 20.4609Z" fill="#859BEB"/>
<path fill-rule="evenodd" clip-rule="evenodd" d="M11.8948 17.5078C11.8948 17.8047 11.8948 18.1016 11.8948 18.3984C12.051 18.3984 12.2073 18.3984 12.3635 18.3984C12.3481 19.0942 12.3637 19.7817 12.4104 20.4609C12.1916 20.6484 11.9729 20.6484 11.7542 20.4609C11.8471 19.7909 11.8784 19.1033 11.8479 18.3984C11.4357 18.384 11.0295 18.4153 10.6292 18.4922C10.6292 18.1797 10.6292 17.8672 10.6292 17.5547C11.0507 17.5328 11.4726 17.5172 11.8948 17.5078Z" fill="#6979AD"/>
<path fill-rule="evenodd" clip-rule="evenodd" d="M12.3635 18.3984C12.7694 18.4224 13.1756 18.438 13.5823 18.4453C13.5823 18.4609 13.5823 18.4766 13.5823 18.4922C13.5823 18.9453 13.5823 19.3984 13.5823 19.8516C13.3156 20.0095 13.05 20.1657 12.7854 20.3203C12.6604 20.3672 12.5354 20.4141 12.4104 20.4609C12.3637 19.7817 12.3481 19.0942 12.3635 18.3984Z" fill="#869BEC"/>
<path fill-rule="evenodd" clip-rule="evenodd" d="M10.1604 19.5703C10.0659 19.5221 9.9721 19.4752 9.87915 19.4297C9.58131 19.1633 9.26884 18.9133 8.94165 18.6797C8.94165 18.6641 8.94165 18.6484 8.94165 18.6328C9.34487 18.5661 9.75109 18.5348 10.1604 18.5391C10.1604 18.8828 10.1604 19.2266 10.1604 19.5703Z" fill="#869AEA"/>
<path fill-rule="evenodd" clip-rule="evenodd" d="M15.2229 18.6328C15.1226 18.7529 15.0132 18.8623 14.8948 18.9609C14.6448 19.1328 14.3948 19.3047 14.1448 19.4766C14.0983 19.1729 14.0827 18.8603 14.0979 18.5391C14.4745 18.5551 14.8495 18.5864 15.2229 18.6328Z" fill="#889BEA"/>
<path fill-rule="evenodd" clip-rule="evenodd" d="M5.5666 18.5859C5.88146 19.1588 6.27212 19.6822 6.73848 20.1562C6.78292 20.1789 6.82979 20.1867 6.8791 20.1797C5.26857 20.576 3.70607 21.1229 2.1916 21.8203C2.12982 21.5005 2.12982 21.188 2.1916 20.8828C2.62549 20.6861 3.06299 20.4986 3.5041 20.3203C4.08765 20.0867 4.68139 19.8757 5.28535 19.6875C4.71141 19.5821 4.13329 19.4961 3.55098 19.4297C4.19665 19.0944 4.86854 18.8131 5.5666 18.5859Z" fill="#DA1559"/>
<path fill-rule="evenodd" clip-rule="evenodd" d="M18.6448 18.6328C19.3073 18.8276 19.9479 19.0776 20.5667 19.3828C19.9784 19.4714 19.3847 19.5652 18.7854 19.6641C19.4105 19.8829 20.0355 20.1016 20.6604 20.3203C21.1029 20.5253 21.556 20.7128 22.0198 20.8828C22.0352 21.1969 22.0196 21.5093 21.9729 21.8203C20.4456 21.1133 18.8675 20.5665 17.2385 20.1797C17.3029 20.187 17.3654 20.1792 17.426 20.1562C17.8794 19.6802 18.2856 19.1724 18.6448 18.6328Z" fill="#D91158"/>
<path opacity="0.987" fill-rule="evenodd" clip-rule="evenodd" d="M14.8948 18.9609C15.3381 19.2868 15.7756 19.6227 16.2073 19.9688C16.2517 19.9914 16.2986 19.9992 16.3479 19.9922C16.3479 20.0078 16.3479 20.0235 16.3479 20.0391C15.3489 20.8672 14.2552 21.5548 13.0667 22.1016C12.9898 21.5404 12.9195 20.9779 12.8557 20.4141C12.8427 20.3711 12.8192 20.3399 12.7854 20.3203C13.05 20.1657 13.3156 20.0095 13.5823 19.8516C13.7876 19.7492 13.9751 19.6242 14.1448 19.4766C14.3948 19.3047 14.6448 19.1328 14.8948 18.9609Z" fill="#FED03B"/>
<path opacity="0.988" fill-rule="evenodd" clip-rule="evenodd" d="M9.87915 19.4297C9.9721 19.4752 10.0659 19.5221 10.1604 19.5703C10.2985 19.7022 10.4547 19.8115 10.6292 19.8984C10.9745 20.0867 11.3183 20.2742 11.6604 20.4609C11.6315 20.4661 11.608 20.4818 11.5901 20.5078C11.4523 20.9524 11.296 21.39 11.1213 21.8203C11.0896 21.9187 11.0974 22.0124 11.1448 22.1016C10.2706 21.7274 9.45812 21.2587 8.70728 20.6953C9.11148 20.2909 9.50209 19.869 9.87915 19.4297Z" fill="#FED03B"/>
<path fill-rule="evenodd" clip-rule="evenodd" d="M12.7854 20.3203C12.8192 20.3399 12.8426 20.3711 12.8557 20.4141C12.9195 20.9779 12.9898 21.5404 13.0666 22.1016C12.7446 22.239 12.4165 22.364 12.0822 22.4766C11.7582 22.3769 11.4457 22.2519 11.1447 22.1016C11.0973 22.0124 11.0895 21.9187 11.1213 21.8203C11.296 21.39 11.4523 20.9524 11.5901 20.5078C11.608 20.4817 11.6314 20.4661 11.6604 20.4609C11.6916 20.4609 11.7228 20.4609 11.7541 20.4609C11.9729 20.6484 12.1916 20.6484 12.4104 20.4609C12.5354 20.4141 12.6603 20.3672 12.7854 20.3203Z" fill="#FEEE58"/>
</g>
<defs>
<clipPath id="clip0_4474_5104">
<rect width="24" height="24" fill="white" transform="translate(0.105713)"/>
</clipPath>
</defs>
</svg>
