<svg width="25" height="24" viewBox="0 0 25 24" fill="none" xmlns="http://www.w3.org/2000/svg">
<g clip-path="url(#clip0_4474_5103)">
<path fill-rule="evenodd" clip-rule="evenodd" d="M11.0042 -0.0234375C11.3635 -0.0234375 11.7229 -0.0234375 12.0823 -0.0234375C12.0823 2.36719 12.0823 4.75781 12.0823 7.14844C11.3948 7.14844 10.7073 7.14844 10.0198 7.14844C9.3091 5.97745 8.62159 4.78997 7.95728 3.58594C8.58638 2.43692 9.22703 1.2963 9.87915 0.164062C10.2586 0.0934327 10.6336 0.0309324 11.0042 -0.0234375Z" fill="#E8E8E9"/>
<path fill-rule="evenodd" clip-rule="evenodd" d="M12.0823 -0.0234375C12.4417 -0.0234375 12.801 -0.0234375 13.1604 -0.0234375C13.531 0.0309324 13.906 0.0934327 14.2854 0.164062C14.9529 1.29575 15.6092 2.43637 16.2542 3.58594C15.5607 4.77741 14.8732 5.97272 14.1917 7.17188C13.4887 7.19531 12.7856 7.20314 12.0823 7.19531C11.3865 7.21073 10.699 7.19513 10.0198 7.14844C10.7073 7.14844 11.3948 7.14844 12.0823 7.14844C12.0823 4.75781 12.0823 2.36719 12.0823 -0.0234375Z" fill="#D7D7DA"/>
<path opacity="0.991" fill-rule="evenodd" clip-rule="evenodd" d="M9.87915 0.164062C9.22703 1.2963 8.58638 2.43692 7.95728 3.58594C8.62159 4.78997 9.3091 5.97745 10.0198 7.14844C10.699 7.19513 11.3865 7.21073 12.0823 7.19531C12.0823 7.58592 12.0823 7.97658 12.0823 8.36719C11.3709 8.35177 10.6678 8.36738 9.9729 8.41406C9.27709 9.58683 8.60523 10.7743 7.95728 11.9766C8.60523 13.1788 9.27709 14.3663 9.9729 15.5391C10.6678 15.5857 11.3709 15.6014 12.0823 15.5859C12.0823 15.9765 12.0823 16.3672 12.0823 16.7578C11.3784 16.7422 10.6753 16.7579 9.9729 16.8047C9.28539 17.9922 8.59792 19.1797 7.9104 20.3672C8.56796 21.5086 9.22421 22.6493 9.87915 23.7891C7.07828 23.2643 4.76578 21.9206 2.94165 19.7578C4.27014 19.7734 5.59829 19.7578 6.92603 19.7109C7.59231 18.5267 8.26417 17.347 8.94165 16.1719C8.28788 14.9815 7.61603 13.8018 6.92603 12.6328C5.52006 12.5781 4.11379 12.5703 2.70728 12.6094C2.08038 13.6992 1.44757 14.7851 0.808838 15.8672C0.785869 15.9278 0.778055 15.9903 0.7854 16.0547C0.413447 15.0697 0.179072 14.0542 0.0822754 13.0078C0.0822754 12.3203 0.0822754 11.6328 0.0822754 10.9453C0.180482 9.93919 0.399232 8.95481 0.738525 7.99219C1.40536 9.09089 2.06161 10.2002 2.70728 11.3203C4.11353 11.3828 5.51978 11.3828 6.92603 11.3203C7.6224 10.1463 8.29426 8.95875 8.94165 7.75781C8.27157 6.57141 7.59967 5.38392 6.92603 4.19531C5.6139 4.14845 4.3014 4.13282 2.98853 4.14844C4.80428 2.01321 7.10115 0.685083 9.87915 0.164062Z" fill="#7F7F80"/>
<path fill-rule="evenodd" clip-rule="evenodd" d="M14.2854 0.164062C17.0863 0.688786 19.3988 2.03254 21.2229 4.19531C19.8944 4.1797 18.5663 4.19532 17.2385 4.24219C16.5722 5.42644 15.9004 6.60614 15.2229 7.78125C15.8767 8.97164 16.5485 10.1513 17.2385 11.3203C18.6445 11.375 20.0507 11.3828 21.4573 11.3438C22.0884 10.2219 22.7447 9.12037 23.426 8.03906C23.7705 8.98036 23.9893 9.94913 24.0823 10.9453C24.0823 11.6328 24.0823 12.3203 24.0823 13.0078C23.9855 14.0542 23.7511 15.0697 23.3792 16.0547C22.7762 14.8959 22.1356 13.7553 21.4573 12.6328C20.051 12.5703 18.6448 12.5703 17.2385 12.6328C16.5422 13.8068 15.8703 14.9944 15.2229 16.1953C15.893 17.3817 16.5649 18.5692 17.2385 19.7578C18.5507 19.8047 19.8632 19.8203 21.176 19.8047C19.3603 21.9399 17.0634 23.268 14.2854 23.7891C14.8778 22.6982 15.495 21.6201 16.137 20.5547C16.1979 20.4673 16.2136 20.3735 16.1838 20.2734C15.5101 19.1055 14.8304 17.9415 14.1448 16.7812C13.4574 16.7578 12.7699 16.75 12.0823 16.7578C12.0823 16.3672 12.0823 15.9765 12.0823 15.5859C12.7861 15.6015 13.4892 15.5859 14.1917 15.5391C14.8792 14.3516 15.5666 13.164 16.2542 11.9766C15.5666 10.7891 14.8792 9.60155 14.1917 8.41406C13.4892 8.36723 12.7861 8.35158 12.0823 8.36719C12.0823 7.97658 12.0823 7.58592 12.0823 7.19531C12.7856 7.20314 13.4887 7.19531 14.1917 7.17188C14.8732 5.97272 15.5607 4.77741 16.2542 3.58594C15.6092 2.43637 14.9529 1.29575 14.2854 0.164062Z" fill="#5B5D5F"/>
<path fill-rule="evenodd" clip-rule="evenodd" d="M2.98853 4.14843C4.3014 4.13282 5.6139 4.14844 6.92603 4.19531C7.59967 5.38392 8.27157 6.5714 8.94165 7.75781C8.29426 8.95874 7.6224 10.1463 6.92603 11.3203C5.51978 11.3828 4.11353 11.3828 2.70728 11.3203C2.06161 10.2002 1.40536 9.09088 0.738525 7.99218C1.22603 6.54717 1.97603 5.26588 2.98853 4.14843Z" fill="#E8E8E9"/>
<path fill-rule="evenodd" clip-rule="evenodd" d="M21.2229 4.19531C21.6206 4.62432 21.9644 5.09306 22.2542 5.60156C22.2507 5.67313 22.282 5.72001 22.3479 5.74218C22.3872 5.75821 22.4028 5.78943 22.3948 5.83593C22.3914 5.90751 22.4226 5.95438 22.4885 5.97656C22.5436 6.02409 22.5748 6.08657 22.5823 6.16406C22.5789 6.23563 22.6101 6.28251 22.676 6.30468C22.989 6.85279 23.239 7.43095 23.426 8.03906C22.7447 9.12037 22.0884 10.2219 21.4573 11.3437C20.0507 11.3828 18.6445 11.375 17.2385 11.3203C16.5485 10.1513 15.8767 8.97163 15.2229 7.78124C15.9004 6.60613 16.5722 5.42643 17.2385 4.24218C18.5663 4.19532 19.8944 4.17969 21.2229 4.19531Z" fill="#D7D7DA"/>
<path opacity="0.831" fill-rule="evenodd" clip-rule="evenodd" d="M22.2542 5.60156C22.3201 5.62373 22.3513 5.67061 22.3479 5.74219C22.282 5.72002 22.2507 5.67314 22.2542 5.60156Z" fill="#939496"/>
<path opacity="0.831" fill-rule="evenodd" clip-rule="evenodd" d="M22.3948 5.83594C22.4607 5.85811 22.492 5.90498 22.4885 5.97656C22.4226 5.95439 22.3914 5.90752 22.3948 5.83594Z" fill="#97989A"/>
<path opacity="0.776" fill-rule="evenodd" clip-rule="evenodd" d="M22.5823 6.16406C22.6482 6.18623 22.6795 6.23311 22.676 6.30469C22.6101 6.28252 22.5789 6.23564 22.5823 6.16406Z" fill="#8D8E90"/>
<path fill-rule="evenodd" clip-rule="evenodd" d="M9.9729 8.41406C10.676 8.41406 11.3792 8.41406 12.0823 8.41406C12.0823 10.7891 12.0823 13.164 12.0823 15.5391C11.3792 15.5391 10.676 15.5391 9.9729 15.5391C9.27709 14.3663 8.60523 13.1788 7.95728 11.9766C8.60523 10.7743 9.27709 9.58683 9.9729 8.41406Z" fill="#E8E8E9"/>
<path fill-rule="evenodd" clip-rule="evenodd" d="M9.9729 8.41405C10.6678 8.36736 11.3709 8.35175 12.0823 8.36717C12.7861 8.35156 13.4892 8.36722 14.1917 8.41405C14.8792 9.60153 15.5666 10.7891 16.2542 11.9765C15.5666 13.164 14.8792 14.3516 14.1917 15.539C13.4892 15.5859 12.7861 15.6015 12.0823 15.5859C11.3709 15.6013 10.6678 15.5857 9.9729 15.539C10.676 15.539 11.3792 15.539 12.0823 15.539C12.0823 13.164 12.0823 10.7891 12.0823 8.41405C11.3792 8.41405 10.676 8.41405 9.9729 8.41405Z" fill="#D7D7DA"/>
<path fill-rule="evenodd" clip-rule="evenodd" d="M2.94163 19.7578C1.97183 18.6787 1.25308 17.4443 0.785384 16.0547C0.778039 15.9903 0.785853 15.9278 0.808822 15.8672C1.44755 14.7851 2.08036 13.6992 2.70726 12.6094C4.11377 12.5703 5.52004 12.5781 6.92601 12.6328C7.61601 13.8018 8.28787 14.9815 8.94163 16.1719C8.26415 17.347 7.59229 18.5267 6.92601 19.7109C5.59827 19.7578 4.27013 19.7734 2.94163 19.7578Z" fill="#E8E8E9"/>
<path fill-rule="evenodd" clip-rule="evenodd" d="M23.3792 16.0547C23.0802 16.9651 22.6583 17.8088 22.1135 18.5859C22.0476 18.6081 22.0164 18.655 22.0198 18.7266C21.7729 19.1139 21.4916 19.4733 21.176 19.8047C19.8632 19.8203 18.5507 19.8047 17.2385 19.7578C16.5649 18.5692 15.893 17.3817 15.2229 16.1953C15.8703 14.9944 16.5422 13.8068 17.2385 12.6328C18.6448 12.5703 20.051 12.5703 21.4573 12.6328C22.1356 13.7553 22.7762 14.8959 23.3792 16.0547Z" fill="#D7D7DA"/>
<path fill-rule="evenodd" clip-rule="evenodd" d="M12.0823 16.7578C12.7699 16.75 13.4574 16.7578 14.1448 16.7812C14.8304 17.9414 15.5101 19.1055 16.1838 20.2734C16.2136 20.3735 16.1979 20.4673 16.137 20.5547C15.495 21.6201 14.8778 22.6982 14.2854 23.789C13.906 23.8597 13.531 23.9222 13.1604 23.9765C12.4417 23.9765 11.7229 23.9765 11.0042 23.9765C10.6336 23.9222 10.2586 23.8597 9.87915 23.789C9.22421 22.6492 8.56796 21.5086 7.9104 20.3672C8.59792 19.1797 9.28538 17.9922 9.9729 16.8047C10.6753 16.7578 11.3784 16.7422 12.0823 16.7578Z" fill="#E8E8E9"/>
<path opacity="0.231" fill-rule="evenodd" clip-rule="evenodd" d="M22.1135 18.5859C22.117 18.6575 22.0857 18.7044 22.0198 18.7266C22.0164 18.655 22.0476 18.6081 22.1135 18.5859Z" fill="#87888A"/>
</g>
<defs>
<clipPath id="clip0_4474_5103">
<rect width="24" height="24" fill="white" transform="translate(0.105713)"/>
</clipPath>
</defs>
</svg>
