<svg width="25" height="24" viewBox="0 0 25 24" fill="none" xmlns="http://www.w3.org/2000/svg">
<g clip-path="url(#clip0_4474_5102)">
<path opacity="0.998" fill-rule="evenodd" clip-rule="evenodd" d="M12.4573 -0.0234375C13.1135 -0.0234375 13.7698 -0.0234375 14.426 -0.0234375C16.6859 0.223811 18.6858 1.07537 20.426 2.53125C20.6254 2.72263 20.8129 2.91794 20.9885 3.11719C17.0393 6.99609 13.1096 10.9023 9.19946 14.8359C9.17771 14.8638 9.16988 14.895 9.17603 14.9297C9.16042 14.9297 9.14476 14.9297 9.12915 14.9297C7.08226 12.8516 5.01976 10.7891 2.94165 8.74219C3.72858 4.98778 5.86923 2.32371 9.36353 0.75C10.3677 0.358324 11.399 0.100511 12.4573 -0.0234375Z" fill="#FF8652"/>
<path fill-rule="evenodd" clip-rule="evenodd" d="M20.9885 3.11719C22.2798 4.37004 23.1782 5.87006 23.6838 7.61719C23.8679 8.28572 24.0008 8.95762 24.0822 9.63281C24.0822 10.2891 24.0822 10.9453 24.0822 11.6016C23.5021 15.9416 21.1896 18.9495 17.1447 20.625C16.5483 20.8405 15.939 21.0045 15.3166 21.1172C13.2697 19.0547 11.2229 16.9922 9.17598 14.9297C9.16983 14.895 9.17766 14.8638 9.19941 14.8359C13.1095 10.9023 17.0393 6.99609 20.9885 3.11719Z" fill="#FF3D57"/>
<path opacity="0.994" fill-rule="evenodd" clip-rule="evenodd" d="M2.94165 8.74219C5.01976 10.7891 7.08226 12.8516 9.12915 14.9297C6.67763 17.4046 4.21672 19.8734 1.74634 22.3359C1.72457 22.3638 1.71676 22.395 1.7229 22.4297C1.17602 21.8985 0.629152 21.3672 0.0822754 20.8359C0.0822754 20.7891 0.0822754 20.7422 0.0822754 20.6953C1.01815 19.7829 1.94783 18.861 2.87134 17.9297C3.54567 17.1096 3.8113 16.1721 3.66821 15.1172C3.45587 14.4332 3.25275 13.7457 3.05884 13.0547C2.76474 11.6239 2.72568 10.1864 2.94165 8.74219Z" fill="#FFC171"/>
<path fill-rule="evenodd" clip-rule="evenodd" d="M9.1291 14.9297C9.14471 14.9297 9.16037 14.9297 9.17598 14.9297C11.2229 16.9922 13.2697 19.0547 15.3166 21.1172C13.8062 21.3459 12.3062 21.2912 10.8166 20.9531C10.2039 20.7749 9.59452 20.5874 8.98848 20.3906C7.91645 20.2377 6.96334 20.5033 6.1291 21.1875C5.19779 22.111 4.2759 23.0407 3.36348 23.9766C3.3166 23.9766 3.26973 23.9766 3.22285 23.9766C2.72285 23.4609 2.22285 22.9453 1.72285 22.4297C1.71671 22.395 1.72453 22.3638 1.74629 22.3359C4.21667 19.8734 6.67759 17.4046 9.1291 14.9297Z" fill="#FF9366"/>
</g>
<defs>
<clipPath id="clip0_4474_5102">
<rect width="24" height="24" fill="white" transform="translate(0.105713)"/>
</clipPath>
</defs>
</svg>
