<svg width="25" height="24" viewBox="0 0 25 24" fill="none" xmlns="http://www.w3.org/2000/svg">
<g clip-path="url(#clip0_4474_5101)">
<path opacity="0.996" fill-rule="evenodd" clip-rule="evenodd" d="M11.051 -0.0234375C11.7385 -0.0234375 12.426 -0.0234375 13.1135 -0.0234375C13.969 0.0672253 14.8127 0.2391 15.6448 0.492188C15.2244 0.904692 14.7947 1.31094 14.3557 1.71094C14.0202 2.13193 13.7077 2.56943 13.4182 3.02344C12.9255 3.59468 12.3395 4.04 11.6604 4.35938C10.9637 4.56557 10.2762 4.79995 9.5979 5.0625C7.03037 6.39056 5.67099 8.50772 5.51978 11.4141C5.53234 13.376 6.21985 15.0479 7.58228 16.4297C7.58228 16.4453 7.58228 16.461 7.58228 16.4766C6.26978 17.8203 4.94167 19.1484 3.5979 20.4609C1.53202 18.4069 0.360147 15.9225 0.0822754 13.0078C0.0822754 12.3047 0.0822754 11.6016 0.0822754 10.8984C0.541978 6.94884 2.4326 3.89416 5.75415 1.73438C7.39112 0.748613 9.15671 0.162675 11.051 -0.0234375Z" fill="#97DE3D"/>
<path opacity="0.999" fill-rule="evenodd" clip-rule="evenodd" d="M15.6448 0.492188C16.1479 0.642637 16.6323 0.830137 17.0979 1.05469C16.4888 1.65597 15.8716 2.24972 15.2463 2.83594C14.1689 4.69247 12.5673 5.82525 10.4417 6.23438C8.39743 7.16991 7.23334 8.75583 6.94946 10.9922C6.85435 12.7153 7.39342 14.1997 8.56665 15.4453C8.56665 15.4609 8.56665 15.4766 8.56665 15.4922C8.26717 15.8386 7.93904 16.1511 7.58228 16.4297C6.21985 15.0479 5.53234 13.376 5.51978 11.4141C5.67099 8.50772 7.03037 6.39056 9.5979 5.0625C10.2762 4.79995 10.9637 4.56557 11.6604 4.35938C12.3395 4.04 12.9255 3.59468 13.4182 3.02344C13.7077 2.56943 14.0202 2.13193 14.3557 1.71094C14.7947 1.31094 15.2244 0.904692 15.6448 0.492188Z" fill="#FDF4F3"/>
<path opacity="0.999" fill-rule="evenodd" clip-rule="evenodd" d="M17.0979 1.05469C18.4187 1.63664 19.575 2.44914 20.5666 3.49219C16.5666 7.47656 12.5666 11.4609 8.56661 15.4453C7.39337 14.1997 6.85431 12.7153 6.94942 10.9922C7.23329 8.75583 8.39739 7.16991 10.4416 6.23438C12.5673 5.82525 14.1689 4.69247 15.2463 2.83594C15.8716 2.24972 16.4888 1.65597 17.0979 1.05469Z" fill="#59C36A"/>
<path opacity="0.999" fill-rule="evenodd" clip-rule="evenodd" d="M20.5667 3.49219C21.5817 4.46076 22.3786 5.58577 22.9573 6.86719C22.407 7.53619 21.8289 8.18466 21.2229 8.8125C19.9889 9.49964 19.0592 10.4762 18.4338 11.7422C18.2103 12.3081 18.0228 12.8862 17.8713 13.4766C16.7421 16.0147 14.7812 17.2256 11.9885 17.1094C10.6633 16.9466 9.52267 16.4076 8.56665 15.4922C8.56665 15.4766 8.56665 15.4609 8.56665 15.4453C12.5666 11.4609 16.5667 7.47656 20.5667 3.49219Z" fill="#01A66C"/>
<path opacity="0.999" fill-rule="evenodd" clip-rule="evenodd" d="M22.9573 6.86719C23.1962 7.34883 23.3993 7.8488 23.5667 8.36719C23.1714 8.81738 22.7651 9.26269 22.3479 9.70313C21.9507 10.0346 21.5288 10.3315 21.0823 10.5938C20.4644 11.118 19.9878 11.7508 19.6526 12.4922C19.1892 14.7265 17.9939 16.4374 16.0667 17.625C13.4994 18.9412 10.9994 18.8318 8.56665 17.2969C8.23079 17.0312 7.90267 16.7578 7.58228 16.4766C7.58228 16.461 7.58228 16.4453 7.58228 16.4297C7.93904 16.1511 8.26717 15.8386 8.56665 15.4922C9.52267 16.4076 10.6633 16.9466 11.9885 17.1094C14.7812 17.2256 16.7421 16.0147 17.8713 13.4766C18.0228 12.8862 18.2103 12.3081 18.4338 11.7422C19.0592 10.4762 19.9889 9.49964 21.2229 8.8125C21.8289 8.18466 22.407 7.53619 22.9573 6.86719Z" fill="#EDE1DC"/>
<path opacity="0.997" fill-rule="evenodd" clip-rule="evenodd" d="M23.5667 8.36719C23.8098 9.20217 23.9816 10.0459 24.0823 10.8984C24.0823 11.6172 24.0823 12.336 24.0823 13.0547C23.6226 17.0043 21.732 20.059 18.4104 22.2188C16.7734 23.2045 15.0078 23.7905 13.1135 23.9766C12.426 23.9766 11.7385 23.9766 11.051 23.9766C8.13629 23.6987 5.65192 22.5268 3.5979 20.4609C4.94167 19.1484 6.26978 17.8203 7.58228 16.4766C7.90267 16.7578 8.23079 17.0312 8.56665 17.2969C10.9994 18.8317 13.4994 18.9412 16.0667 17.625C17.9939 16.4374 19.1892 14.7265 19.6526 12.4922C19.9878 11.7508 20.4644 11.118 21.0823 10.5938C21.5288 10.3315 21.9507 10.0346 22.3479 9.70312C22.7651 9.26269 23.1714 8.81738 23.5667 8.36719Z" fill="#59C36A"/>
</g>
<defs>
<clipPath id="clip0_4474_5101">
<rect width="24" height="24" fill="white" transform="translate(0.105713)"/>
</clipPath>
</defs>
</svg>
