<svg width="25" height="24" viewBox="0 0 25 24" fill="none" xmlns="http://www.w3.org/2000/svg">
<g clip-path="url(#clip0_4474_5100)">
<path opacity="0.993" fill-rule="evenodd" clip-rule="evenodd" d="M11.0979 -0.0234375C11.7385 -0.0234375 12.3791 -0.0234375 13.0198 -0.0234375C16.7414 0.344478 19.6945 2.03198 21.8792 5.03906C21.5732 5.68097 21.2529 6.32161 20.9182 6.96094C19.945 8.66081 18.6403 10.0514 17.0042 11.1328C16.5707 6.88083 14.5238 3.66991 10.8635 1.5C10.109 1.12156 9.34342 0.785625 8.56665 0.492188C9.4036 0.259187 10.2474 0.0873117 11.0979 -0.0234375Z" fill="#6E77E4"/>
<path opacity="0.997" fill-rule="evenodd" clip-rule="evenodd" d="M8.56665 0.492188C9.34342 0.785625 10.109 1.12156 10.8635 1.5C14.5238 3.66991 16.5707 6.88083 17.0042 11.1328C15.6374 11.9633 14.1531 12.4478 12.551 12.5859C12.6505 12.3947 12.7443 12.1994 12.8323 12C12.2567 10.1056 11.1942 8.55089 9.64478 7.33594C8.82849 6.63788 7.92226 6.06755 6.92603 5.625C5.5854 5.06367 4.2104 4.63398 2.80103 4.33594C4.34392 2.49789 6.26579 1.21664 8.56665 0.492188Z" fill="#D8D8D8"/>
<path opacity="0.993" fill-rule="evenodd" clip-rule="evenodd" d="M2.80103 4.33594C4.2104 4.63398 5.5854 5.06367 6.92603 5.625C7.92226 6.06755 8.82849 6.63788 9.64478 7.33594C7.11812 8.93494 5.45406 11.1849 4.65259 14.0859C3.97824 16.8493 4.2673 19.5056 5.51978 22.0547C2.32904 19.8605 0.516534 16.8293 0.0822754 12.9609C0.0822754 12.2734 0.0822754 11.586 0.0822754 10.8984C0.344661 8.43717 1.25091 6.24966 2.80103 4.33594Z" fill="#FDA732"/>
<path opacity="0.998" fill-rule="evenodd" clip-rule="evenodd" d="M21.8791 5.03906C23.1621 6.82467 23.8808 8.82464 24.0354 11.0391C21.7548 15.2137 18.2391 17.6121 13.4885 18.2344C12.8335 18.2906 12.1772 18.3141 11.5198 18.3047C11.2581 16.9405 11.3597 15.5968 11.8244 14.2734C12.0286 13.6934 12.2708 13.1309 12.551 12.5859C14.153 12.4478 15.6374 11.9633 17.0041 11.1328C18.6403 10.0514 19.945 8.66081 20.9182 6.96094C21.2529 6.32161 21.5732 5.68097 21.8791 5.03906Z" fill="#FD9923"/>
<path opacity="0.998" fill-rule="evenodd" clip-rule="evenodd" d="M9.64478 7.33594C11.1942 8.55089 12.2568 10.1056 12.8323 12C12.7443 12.1994 12.6505 12.3947 12.551 12.5859C12.2708 13.1309 12.0287 13.6934 11.8245 14.2734C11.3598 15.5968 11.2582 16.9405 11.5198 18.3047C11.8251 20.4306 12.7157 22.2587 14.1917 23.7891C13.8185 23.8647 13.4435 23.9272 13.0667 23.9766C12.4104 23.9766 11.7542 23.9766 11.0979 23.9766C9.07942 23.7933 7.22008 23.1527 5.51978 22.0547C4.26731 19.5056 3.97825 16.8493 4.6526 14.0859C5.45406 11.1849 7.11813 8.93494 9.64478 7.33594Z" fill="#7986E7"/>
<path opacity="0.992" fill-rule="evenodd" clip-rule="evenodd" d="M24.0354 11.0391C24.0221 11.1288 24.0377 11.2069 24.0823 11.2734C24.0823 11.8515 24.0823 12.4297 24.0823 13.0078C23.5704 17.0723 21.586 20.1895 18.1292 22.3594C16.9065 23.082 15.594 23.5586 14.1917 23.7891C12.7157 22.2587 11.8251 20.4306 11.5198 18.3047C12.1772 18.3141 12.8335 18.2906 13.4885 18.2344C18.2392 17.6121 21.7548 15.2137 24.0354 11.0391Z" fill="#D9D8D8"/>
</g>
<defs>
<clipPath id="clip0_4474_5100">
<rect width="24" height="24" fill="white" transform="translate(0.105713)"/>
</clipPath>
</defs>
</svg>
